<svg xmlns="http://www.w3.org/2000/svg" viewBox="0 0 174.81 92.72"><defs><style>.a,.b{fill:#56a5ba;}.b,.e{fill-rule:evenodd;}.c{opacity:0.85;}.d,.e{fill:#ed2e2c;}.f{fill:#dc2e2c;}</style></defs><title>tmic_plain_stacked</title><polyline class="a" points="55.33 63.71 45.05 81.28 28.91 75.85 22.32 57.76 28.86 42.84 44.45 42.69 55.33 63.71"/><polygon class="b" points="29.01 38.75 22.75 24.27 29.39 7.12 44.82 1.94 54.91 17.91 44.61 38.58 29.01 38.75"/><polygon class="a" points="4.19 40.29 8.73 27.45 17.74 25.83 23.78 40.09 17.43 54.74 8.36 53.45 4.19 40.29"/><g class="c"><polygon class="d" points="18.18 57.86 24.9 42.51 40.95 42.35 52.13 63.98 41.57 82.06 24.96 76.47 18.18 57.86"/><polygon class="e" points="24.95 37.87 18.51 22.97 25.34 5.32 41.21 0 51.6 16.43 41 37.69 24.95 37.87"/><polygon class="d" points="0.84 40.43 5.5 27.23 14.78 25.55 20.99 40.22 14.46 55.3 5.13 53.97 0.84 40.43"/></g><path d="M9.71,99.32v1.28H7.55v5.92H6V100.6H3.87V99.32Z" transform="translate(-3.87 -14)"/><path d="M14.3,101.23a1.66,1.66,0,0,1,.66.52,1.45,1.45,0,0,1,.26.62,6.37,6.37,0,0,1,0,1v3.13H13.85v-3.24a1.48,1.48,0,0,0-.14-.69.74.74,0,0,0-.72-.38,1,1,0,0,0-.83.37,1.71,1.71,0,0,0-.29,1.06v2.88H10.48V99.35h1.39v2.54a1.72,1.72,0,0,1,.7-.65,2,2,0,0,1,.83-.18A2.37,2.37,0,0,1,14.3,101.23Z" transform="translate(-3.87 -14)"/><path d="M20.05,101.31a2.16,2.16,0,0,1,.92.78,2.57,2.57,0,0,1,.42,1.11,7.14,7.14,0,0,1,.05,1H17.56a1.26,1.26,0,0,0,.56,1.12,1.36,1.36,0,0,0,.77.2,1.2,1.2,0,0,0,.77-.24,1.09,1.09,0,0,0,.28-.37h1.43a1.76,1.76,0,0,1-.52,1,2.61,2.61,0,0,1-2,.77,2.94,2.94,0,0,1-1.88-.65,2.59,2.59,0,0,1-.81-2.13,2.87,2.87,0,0,1,.73-2.12,2.55,2.55,0,0,1,1.91-.74A3,3,0,0,1,20.05,101.31ZM18,102.51a1.42,1.42,0,0,0-.37.82H20a1.14,1.14,0,0,0-.37-.84,1.2,1.2,0,0,0-.82-.28A1.1,1.1,0,0,0,18,102.51Z" transform="translate(-3.87 -14)"/><path class="f" d="M29.81,99.32H32v7.2h-1.4v-5.45c0-.26,0-.45,0-.59l-1.36,6H27.75l-1.35-6v.59c0,.25,0,.44,0,.58v4.87H25v-7.2H27.2L28.51,105Z" transform="translate(-3.87 -14)"/><path class="f" d="M36.72,101.31a2.16,2.16,0,0,1,.92.78,2.57,2.57,0,0,1,.42,1.11,7.14,7.14,0,0,1,0,1H34.23a1.26,1.26,0,0,0,.56,1.12,1.36,1.36,0,0,0,.77.2,1.2,1.2,0,0,0,.77-.24,1.09,1.09,0,0,0,.28-.37H38a1.76,1.76,0,0,1-.52,1,2.62,2.62,0,0,1-2,.77,2.94,2.94,0,0,1-1.88-.65,2.59,2.59,0,0,1-.81-2.13,2.87,2.87,0,0,1,.73-2.12,2.55,2.55,0,0,1,1.91-.74A3,3,0,0,1,36.72,101.31Zm-2.08,1.2a1.42,1.42,0,0,0-.37.82h2.39a1.14,1.14,0,0,0-.37-.84,1.2,1.2,0,0,0-.82-.28A1.1,1.1,0,0,0,34.64,102.51Z" transform="translate(-3.87 -14)"/><path class="f" d="M38.26,102.24v-1H39V99.76h1.37v1.49h.87v1h-.87v2.81c0,.22,0,.36.09.41a.91.91,0,0,0,.5.08h.28v1l-.66,0a1.74,1.74,0,0,1-1.35-.34,1,1,0,0,1-.23-.73v-3.28Z" transform="translate(-3.87 -14)"/><path class="f" d="M44.25,103.28a2.18,2.18,0,0,0,.56-.12.41.41,0,0,0,.3-.39.47.47,0,0,0-.23-.45,1.39,1.39,0,0,0-.68-.13.91.91,0,0,0-.71.24,1.15,1.15,0,0,0-.2.49H42a2,2,0,0,1,.39-1.14,2.3,2.3,0,0,1,1.91-.71,3.44,3.44,0,0,1,1.56.35,1.34,1.34,0,0,1,.68,1.31v2.44c0,.17,0,.37,0,.61a.77.77,0,0,0,.08.38.61.61,0,0,0,.21.16v.2H45.27a2.43,2.43,0,0,1-.09-.3c0-.09,0-.2,0-.32a2.85,2.85,0,0,1-.66.53,2.06,2.06,0,0,1-1,.26,1.81,1.81,0,0,1-1.21-.41,1.5,1.5,0,0,1-.47-1.17,1.53,1.53,0,0,1,.76-1.43,3.67,3.67,0,0,1,1.23-.34Zm.85.65a1.74,1.74,0,0,1-.27.14l-.37.09-.32.06a2.14,2.14,0,0,0-.64.19.73.73,0,0,0-.13,1.11.82.82,0,0,0,.49.16,1.43,1.43,0,0,0,.84-.27,1.09,1.09,0,0,0,.4-1Z" transform="translate(-3.87 -14)"/><path class="f" d="M52.25,101.84a3,3,0,0,1,.59,2,3.46,3.46,0,0,1-.58,2.06,1.94,1.94,0,0,1-1.65.81,1.85,1.85,0,0,1-1.06-.26,2,2,0,0,1-.52-.55v.67H47.65V99.33h1.4v2.56a2,2,0,0,1,.58-.56,1.67,1.67,0,0,1,1-.25A2,2,0,0,1,52.25,101.84Zm-1.17,3.24a2,2,0,0,0,.3-1.14,2.55,2.55,0,0,0-.14-.94,1,1,0,0,0-1-.7,1,1,0,0,0-1.05.69,2.74,2.74,0,0,0-.14.94,2,2,0,0,0,.3,1.14,1.06,1.06,0,0,0,.93.45A1,1,0,0,0,51.08,105.08Z" transform="translate(-3.87 -14)"/><path class="f" d="M58.25,105.87a2.93,2.93,0,0,1-4.09,0,3.07,3.07,0,0,1-.68-2,3.12,3.12,0,0,1,.68-2,2.91,2.91,0,0,1,4.09,0,3.12,3.12,0,0,1,.67,2A3.06,3.06,0,0,1,58.25,105.87Zm-1.11-.77a2.07,2.07,0,0,0,.32-1.23,2,2,0,0,0-.32-1.23,1.24,1.24,0,0,0-1.88,0,2,2,0,0,0-.33,1.23,2,2,0,0,0,.33,1.23,1.22,1.22,0,0,0,1.88,0Z" transform="translate(-3.87 -14)"/><path class="f" d="M61.34,106.52H60v-7.2h1.39Z" transform="translate(-3.87 -14)"/><path class="f" d="M67.14,105.87a2.95,2.95,0,0,1-4.1,0,3.11,3.11,0,0,1-.67-2,3.17,3.17,0,0,1,.67-2,2.92,2.92,0,0,1,4.1,0,3.12,3.12,0,0,1,.67,2A3.06,3.06,0,0,1,67.14,105.87ZM66,105.1a2,2,0,0,0,.33-1.23,2,2,0,0,0-.33-1.23,1.08,1.08,0,0,0-.93-.43,1.1,1.1,0,0,0-.94.43,2,2,0,0,0-.33,1.23,2,2,0,0,0,.33,1.23,1.11,1.11,0,0,0,.94.44A1.09,1.09,0,0,0,66,105.1Z" transform="translate(-3.87 -14)"/><path class="f" d="M75.45,101.22a1.54,1.54,0,0,1,.62.48,1.46,1.46,0,0,1,.3.68,5,5,0,0,1,0,.79v3.35H75v-3.39a1.24,1.24,0,0,0-.09-.5.72.72,0,0,0-.69-.37.79.79,0,0,0-.79.48,1.44,1.44,0,0,0-.12.61v3.17h-1.4v-3.17a1.73,1.73,0,0,0-.1-.69.67.67,0,0,0-.68-.38.82.82,0,0,0-.8.38,1.44,1.44,0,0,0-.12.66v3.2H68.78v-5.31h1.35V102a2.53,2.53,0,0,1,.49-.6,1.72,1.72,0,0,1,1-.31,1.36,1.36,0,0,1,1.45.91,1.8,1.8,0,0,1,.68-.69,2.11,2.11,0,0,1,1-.22A1.9,1.9,0,0,1,75.45,101.22Z" transform="translate(-3.87 -14)"/><path class="f" d="M79.13,100.56H77.72V99.28h1.41Zm-1.41.64h1.41v5.32H77.72Z" transform="translate(-3.87 -14)"/><path class="f" d="M83.66,103.11a1.26,1.26,0,0,0-.2-.54.86.86,0,0,0-.73-.32,1,1,0,0,0-1,.7,2.64,2.64,0,0,0-.14,1,2.48,2.48,0,0,0,.14.94.93.93,0,0,0,.94.67.82.82,0,0,0,.69-.27,1.26,1.26,0,0,0,.25-.68h1.42a2.27,2.27,0,0,1-.46,1.2,2.22,2.22,0,0,1-1.94.91,2.25,2.25,0,0,1-1.89-.76,3.11,3.11,0,0,1-.61-2,3.17,3.17,0,0,1,.67-2.14,2.37,2.37,0,0,1,1.85-.76,2.77,2.77,0,0,1,1.64.45,2.09,2.09,0,0,1,.76,1.59Z" transform="translate(-3.87 -14)"/><path class="f" d="M87.12,104.82a.91.91,0,0,0,.19.53,1.27,1.27,0,0,0,1,.28,1.56,1.56,0,0,0,.66-.12.41.41,0,0,0,0-.73,8.09,8.09,0,0,0-1.45-.42,3,3,0,0,1-1.28-.56,1.21,1.21,0,0,1-.37-1,1.63,1.63,0,0,1,.58-1.26,2.29,2.29,0,0,1,1.63-.53,3,3,0,0,1,1.63.4,1.71,1.71,0,0,1,.72,1.37H89a.73.73,0,0,0-.16-.42.94.94,0,0,0-.78-.29,1.18,1.18,0,0,0-.65.14.42.42,0,0,0-.19.34.36.36,0,0,0,.2.34,8.26,8.26,0,0,0,1.46.39,2.66,2.66,0,0,1,1.24.59,1.32,1.32,0,0,1,.41,1A1.58,1.58,0,0,1,90,106.2a2.73,2.73,0,0,1-1.82.5,2.69,2.69,0,0,1-1.85-.53,1.71,1.71,0,0,1-.6-1.35Z" transform="translate(-3.87 -14)"/><path d="M95.86,106.52H94.37v-7.2h1.49Z" transform="translate(-3.87 -14)"/><path d="M101.45,101.5a1.77,1.77,0,0,1,.52,1.44v3.58h-1.43v-3.24a1.39,1.39,0,0,0-.11-.64.78.78,0,0,0-.77-.41,1,1,0,0,0-1,.6,2.08,2.08,0,0,0-.13.81v2.88H97.17v-5.31h1.34V102a2.5,2.5,0,0,1,.51-.6,1.77,1.77,0,0,1,1.08-.32A2.1,2.1,0,0,1,101.45,101.5Z" transform="translate(-3.87 -14)"/><path d="M107.56,101.5a1.8,1.8,0,0,1,.52,1.44v3.58h-1.43v-3.24a1.39,1.39,0,0,0-.11-.64.78.78,0,0,0-.77-.41,1,1,0,0,0-1,.6,2.08,2.08,0,0,0-.13.81v2.88h-1.4v-5.31h1.35V102a2.5,2.5,0,0,1,.51-.6,1.75,1.75,0,0,1,1.08-.32A2.1,2.1,0,0,1,107.56,101.5Z" transform="translate(-3.87 -14)"/><path d="M113.81,105.87a2.93,2.93,0,0,1-4.09,0,3.06,3.06,0,0,1-.67-2,3.12,3.12,0,0,1,.67-2,2.91,2.91,0,0,1,4.09,0,3.12,3.12,0,0,1,.68,2A3.07,3.07,0,0,1,113.81,105.87Zm-1.11-.77a2,2,0,0,0,.33-1.23,2,2,0,0,0-.33-1.23,1.24,1.24,0,0,0-1.88,0,2,2,0,0,0-.33,1.23,2,2,0,0,0,.33,1.23,1.22,1.22,0,0,0,1.88,0Z" transform="translate(-3.87 -14)"/><path d="M118.76,101.2h1.49l-1.92,5.32h-1.46L115,101.2h1.56l1.11,3.93Z" transform="translate(-3.87 -14)"/><path d="M123.15,103.28a2.08,2.08,0,0,0,.56-.12.41.41,0,0,0,.3-.39.47.47,0,0,0-.23-.45,1.39,1.39,0,0,0-.68-.13.91.91,0,0,0-.71.24,1,1,0,0,0-.19.49h-1.35a2,2,0,0,1,.39-1.14,2.3,2.3,0,0,1,1.91-.71,3.44,3.44,0,0,1,1.56.35,1.34,1.34,0,0,1,.68,1.31v2.44c0,.17,0,.37,0,.61a.9.9,0,0,0,.08.38.72.72,0,0,0,.21.16v.2h-1.52a2.43,2.43,0,0,1-.09-.3c0-.09,0-.2,0-.32a3.13,3.13,0,0,1-.67.53,2,2,0,0,1-1,.26,1.76,1.76,0,0,1-1.2-.41,1.47,1.47,0,0,1-.48-1.17,1.54,1.54,0,0,1,.76-1.43,3.67,3.67,0,0,1,1.23-.34Zm.85.65a1.74,1.74,0,0,1-.27.14l-.37.09-.32.06a2.14,2.14,0,0,0-.64.19.73.73,0,0,0-.13,1.11.82.82,0,0,0,.49.16,1.4,1.4,0,0,0,.84-.27,1.09,1.09,0,0,0,.4-1Z" transform="translate(-3.87 -14)"/><path d="M126.06,102.24v-1h.74V99.76h1.38v1.49H129v1h-.86v2.81c0,.22,0,.36.08.41a.93.93,0,0,0,.51.08H129v1l-.66,0a1.74,1.74,0,0,1-1.35-.34,1,1,0,0,1-.23-.73v-3.28Z" transform="translate(-3.87 -14)"/><path d="M131.37,100.56H130V99.28h1.42Zm-1.42.64h1.42v5.32H130Z" transform="translate(-3.87 -14)"/><path d="M137.15,105.87a2.93,2.93,0,0,1-4.09,0,3.06,3.06,0,0,1-.67-2,3.12,3.12,0,0,1,.67-2,2.91,2.91,0,0,1,4.09,0,3.12,3.12,0,0,1,.68,2A3.07,3.07,0,0,1,137.15,105.87ZM136,105.1a2,2,0,0,0,.33-1.23,2,2,0,0,0-.33-1.23,1.24,1.24,0,0,0-1.88,0,2,2,0,0,0-.33,1.23,2,2,0,0,0,.33,1.23,1.22,1.22,0,0,0,1.88,0Z" transform="translate(-3.87 -14)"/><path d="M143.11,101.5a1.77,1.77,0,0,1,.53,1.44v3.58h-1.43v-3.24a1.53,1.53,0,0,0-.11-.64.8.8,0,0,0-.78-.41,1,1,0,0,0-1,.6,2.07,2.07,0,0,0-.14.81v2.88h-1.39v-5.31h1.35V102a2.75,2.75,0,0,1,.5-.6,1.81,1.81,0,0,1,1.09-.32A2.07,2.07,0,0,1,143.11,101.5Z" transform="translate(-3.87 -14)"/><path d="M148.51,100.08a2.92,2.92,0,0,1,2.21-.89,3,3,0,0,1,2.63,1.19,2.62,2.62,0,0,1,.49,1.34h-1.5a2.18,2.18,0,0,0-.37-.78,1.5,1.5,0,0,0-1.19-.47,1.47,1.47,0,0,0-1.27.66,3.24,3.24,0,0,0-.46,1.88,2.81,2.81,0,0,0,.49,1.81,1.52,1.52,0,0,0,1.24.6,1.41,1.41,0,0,0,1.18-.51,2.36,2.36,0,0,0,.37-.84h1.5a3.22,3.22,0,0,1-1,1.91,2.85,2.85,0,0,1-2,.74,3.05,3.05,0,0,1-2.41-1,4,4,0,0,1-.88-2.75A4,4,0,0,1,148.51,100.08Z" transform="translate(-3.87 -14)"/><path d="M158.4,101.31a2.16,2.16,0,0,1,.92.78,2.57,2.57,0,0,1,.42,1.11,7.14,7.14,0,0,1,0,1h-3.88a1.26,1.26,0,0,0,.56,1.12,1.35,1.35,0,0,0,.76.2,1.21,1.21,0,0,0,.78-.24,1.09,1.09,0,0,0,.28-.37h1.42a1.68,1.68,0,0,1-.51,1,2.62,2.62,0,0,1-2,.77,2.94,2.94,0,0,1-1.88-.65,2.59,2.59,0,0,1-.81-2.13,2.87,2.87,0,0,1,.73-2.12,2.55,2.55,0,0,1,1.91-.74A3,3,0,0,1,158.4,101.31Zm-2.08,1.2a1.42,1.42,0,0,0-.37.82h2.39a1.14,1.14,0,0,0-.37-.84,1.2,1.2,0,0,0-.82-.28A1.1,1.1,0,0,0,156.32,102.51Z" transform="translate(-3.87 -14)"/><path d="M164.78,101.5a1.77,1.77,0,0,1,.53,1.44v3.58h-1.43v-3.24a1.53,1.53,0,0,0-.11-.64.8.8,0,0,0-.78-.41,1,1,0,0,0-1,.6,2.07,2.07,0,0,0-.14.81v2.88H160.5v-5.31h1.35V102a2.75,2.75,0,0,1,.5-.6,1.81,1.81,0,0,1,1.09-.32A2.07,2.07,0,0,1,164.78,101.5Z" transform="translate(-3.87 -14)"/><path d="M166.05,102.24v-1h.74V99.76h1.38v1.49H169v1h-.87v2.81a.67.67,0,0,0,.08.41,1,1,0,0,0,.51.08H169v1l-.66,0a1.74,1.74,0,0,1-1.35-.34,1,1,0,0,1-.24-.73v-3.28Z" transform="translate(-3.87 -14)"/><path d="M172.89,101.08H173v1.43l-.24,0h-.16a1.17,1.17,0,0,0-1.13.55,2.11,2.11,0,0,0-.16,1v2.54h-1.41V101.2h1.33v.93a3,3,0,0,1,.56-.73,1.53,1.53,0,0,1,1-.33Z" transform="translate(-3.87 -14)"/><path d="M177.29,101.31a2.16,2.16,0,0,1,.92.78,2.57,2.57,0,0,1,.42,1.11,6,6,0,0,1,.05,1H174.8a1.26,1.26,0,0,0,.56,1.12,1.36,1.36,0,0,0,.77.2,1.2,1.2,0,0,0,.77-.24,1.26,1.26,0,0,0,.29-.37h1.42a1.76,1.76,0,0,1-.52,1,2.61,2.61,0,0,1-2,.77,2.94,2.94,0,0,1-1.88-.65,2.59,2.59,0,0,1-.81-2.13,2.91,2.91,0,0,1,.73-2.12,2.55,2.55,0,0,1,1.91-.74A3,3,0,0,1,177.29,101.31Zm-2.08,1.2a1.42,1.42,0,0,0-.37.82h2.39a1.11,1.11,0,0,0-.37-.84,1.2,1.2,0,0,0-.82-.28A1.1,1.1,0,0,0,175.21,102.51Z" transform="translate(-3.87 -14)"/><path d="M88.51,56.29v6.38H77.74V92.28H70.17V62.67H59.36V56.29Z" transform="translate(-3.87 -14)"/><path d="M116.77,56.29h10.82v36h-7V67.94c0-.7,0-1.68,0-2.94s0-2.24,0-2.92l-6.81,30.2h-7.31l-6.77-30.2c0,.68,0,1.66,0,2.92s0,2.24,0,2.94V92.28h-7v-36h10.94l6.55,28.3Z" transform="translate(-3.87 -14)"/><path d="M141.41,92.28h-7.47v-36h7.47Z" transform="translate(-3.87 -14)"/><path d="M151.88,60.05a14.83,14.83,0,0,1,11.06-4.44q9,0,13.14,6a12.93,12.93,0,0,1,2.46,6.71H171a10.32,10.32,0,0,0-1.85-3.91,8.16,8.16,0,0,0-12.29,1c-1.55,2.2-2.32,5.33-2.32,9.36s.82,7.06,2.45,9.07a7.67,7.67,0,0,0,6.22,3,7.07,7.07,0,0,0,5.9-2.59A11.28,11.28,0,0,0,171,80h7.47a16.14,16.14,0,0,1-4.94,9.57,14.37,14.37,0,0,1-10.18,3.69q-7.68,0-12.07-5t-4.4-13.72Q146.88,65.16,151.88,60.05Z" transform="translate(-3.87 -14)"/></svg>