<?xml version="1.0" encoding="UTF-8" standalone="no"?>
<svg
   xmlns:dc="http://purl.org/dc/elements/1.1/"
   xmlns:cc="http://creativecommons.org/ns#"
   xmlns:rdf="http://www.w3.org/1999/02/22-rdf-syntax-ns#"
   xmlns:svg="http://www.w3.org/2000/svg"
   xmlns="http://www.w3.org/2000/svg"
   width="35mm"
   height="35mm"
   viewBox="0 0 35 34.999999"
   version="1.1"
   id="svg822">
  <defs
     id="defs816" />
  <metadata
     id="metadata819">
    <rdf:RDF>
      <cc:Work
         rdf:about="">
        <dc:format>image/svg+xml</dc:format>
        <dc:type
           rdf:resource="http://purl.org/dc/dcmitype/StillImage" />
        <dc:title></dc:title>
      </cc:Work>
    </rdf:RDF>
  </metadata>
  <g
     id="layer1"
     transform="translate(-7.9351269,-2.1840116)">
    <path
       style="opacity:0.97000002;fill:#ee0000;fill-opacity:1;stroke:none;stroke-width:0.63104773;stroke-miterlimit:4;stroke-dasharray:none;stroke-dashoffset:0;stroke-opacity:1"
       d="m 41.601947,21.99926 a 1.8189158,1.7409621 83.188449 0 0 -1.944431,-1.599684 1.8189158,1.7409621 83.188449 0 0 -1.387803,1.08226 l -1.478912,-0.225124 a 11.433197,11.433197 0 0 0 0.03502,-2.874396 11.433197,11.433197 0 0 0 -0.142777,-0.872897 l 0.969875,-0.237109 a 1.2212733,1.2212733 0 0 0 1.174041,0.557149 1.2212733,1.2212733 0 0 0 1.067668,-1.357323 1.2212733,1.2212733 0 0 0 -1.357387,-1.068179 1.2212733,1.2212733 0 0 0 -1.075306,1.219279 l -0.939006,0.229783 a 11.433197,11.433197 0 0 0 -1.514135,-3.417448 l 1.582252,-0.948836 a 1.7643862,1.764395 83.188449 0 0 1.396407,0.449403 1.7643862,1.764395 83.188449 0 0 1.542537,-1.961028 1.7643862,1.764395 83.188449 0 0 -1.961028,-1.5425337 1.7643862,1.764395 83.188449 0 0 -1.542534,1.9610247 1.7643862,1.764395 83.188449 0 0 0.09913,0.402948 l -1.610419,0.965729 a 11.433197,11.433197 0 0 0 -2.621966,-2.474799 l 0.633093,-1.1482407 a 1.2732423,1.2732423 0 0 0 0.559313,0.05966 1.2732423,1.2732423 0 0 0 1.113301,-1.415341 1.2732423,1.2732423 0 0 0 -1.41528,-1.112785 1.2732423,1.2732423 0 0 0 -1.113362,1.414825 1.2732423,1.2732423 0 0 0 0.259297,0.628423 L 31.274236,9.9029062 A 11.433197,11.433197 0 0 0 27.645928,8.5189293 l 0.103413,-1.831279 a 1.7929331,1.7929331 0 0 0 0.16723,-0.01164 1.7929331,1.7929331 0 0 0 1.567897,-1.9926802 1.7929331,1.7929331 0 0 0 -1.993191,-1.567839 1.7929331,1.7929331 0 0 0 -1.567326,1.993133 1.7929331,1.7929331 0 0 0 1.052769,1.4241122 l -0.105238,1.872615 a 11.433197,11.433197 0 0 0 -2.754365,-0.01918 11.433197,11.433197 0 0 0 -1.328081,0.253354 l -0.115928,-0.765768 a 1.0913506,1.0913506 0 0 0 0.621255,-1.116645 1.0913506,1.0913506 0 0 0 -1.213149,-0.954256 1.0913506,1.0913506 0 0 0 -0.953743,1.213085 1.0913506,1.0913506 0 0 0 0.874397,0.941636 l 0.129241,0.851091 A 11.433197,11.433197 0 0 0 19.200984,10.184969 L 18.714313,9.1735943 a 1.9228558,1.9228558 0 0 0 0.592183,-1.625801 1.9228558,1.9228558 0 0 0 -2.137365,-1.681248 1.9228558,1.9228558 0 0 0 -1.681247,2.137371 1.9228558,1.9228558 0 0 0 2.034132,1.68837 l 0.616212,1.2810957 a 11.433197,11.433197 0 0 0 -1.904042,2.05417 l -1.12168,-0.837677 a 0.98741241,0.98741241 0 0 0 0.0059,-0.268732 0.98741241,0.98741241 0 0 0 -1.097693,-0.863438 0.98741241,0.98741241 0 0 0 -0.862927,1.097629 0.98741241,0.98741241 0 0 0 1.097118,0.862989 0.98741241,0.98741241 0 0 0 0.441201,-0.166674 l 1.097674,0.819726 a 11.433197,11.433197 0 0 0 -1.198351,2.585554 l -2.031116,-0.295003 a 1.6630104,1.6630104 0 0 0 -1.843614,-1.422286 1.6630104,1.6630104 0 0 0 -1.4539779,1.848443 1.6630104,1.6630104 0 0 0 1.8484419,1.453975 1.6630104,1.6630104 0 0 0 1.287675,-0.905319 l 1.933122,0.280683 a 11.433197,11.433197 0 0 0 -0.279797,2.942669 l -1.137065,0.135819 a 1.013397,1.013397 0 0 0 -1.027832,-0.55744 1.013397,1.013397 0 0 0 -0.886032,1.12641 1.013397,1.013397 0 0 0 1.126414,0.886032 1.013397,1.013397 0 0 0 0.860933,-0.757026 l 1.112438,-0.132877 a 11.433197,11.433197 0 0 0 0.0159,0.233339 11.433197,11.433197 0 0 0 0.929934,3.314965 l -1.806914,0.937157 a 1.8189175,1.8189175 0 0 0 -1.624557,-0.655826 1.8189175,1.8189175 0 0 0 -1.590429,2.021914 1.8189175,1.8189175 0 0 0 2.021911,1.590429 1.8189175,1.8189175 0 0 0 1.590429,-2.021914 1.8189175,1.8189175 0 0 0 -0.04715,-0.237932 l 1.788784,-0.927706 a 11.433197,11.433197 0 0 0 1.279782,1.908588 l -1.130303,1.055145 a 0.96142791,0.96142791 0 0 0 -0.508566,-0.07925 0.96142791,0.96142791 0 0 0 -0.840335,1.068911 0.96142791,0.96142791 0 0 0 1.068395,0.840397 0.96142791,0.96142791 0 0 0 0.840912,-1.06846 0.96142791,0.96142791 0 0 0 -0.08132,-0.284334 l 1.106856,-1.033608 a 11.433197,11.433197 0 0 0 1.288174,1.194583 l -1.278721,1.68179 a 1.2732423,1.2732423 0 0 0 -0.460118,-0.03091 1.2732423,1.2732423 0 0 0 -1.113298,1.415338 1.2732423,1.2732423 0 0 0 1.415338,1.113301 1.2732423,1.2732423 0 0 0 1.113301,-1.415338 1.2732423,1.2732423 0 0 0 -0.290616,-0.668399 l 1.2436,-1.635956 a 11.433197,11.433197 0 0 0 2.664902,1.339798 l -0.73665,1.671164 a 2.0527784,2.0527784 0 0 0 -0.574175,-0.01416 2.0527784,2.0527784 0 0 0 -1.794592,2.282061 2.0527784,2.0527784 0 0 0 2.281544,1.794653 2.0527784,2.0527784 0 0 0 1.794656,-2.281545 2.0527784,2.0527784 0 0 0 -1.020424,-1.53675 l 0.743595,-1.687084 a 11.433197,11.433197 0 0 0 3.13894,0.419769 l -0.09686,1.406864 a 1.0913506,1.0913506 0 0 0 -0.852884,1.194792 1.0913506,1.0913506 0 0 0 1.213149,0.95426 1.0913506,1.0913506 0 0 0 0.954257,-1.213149 1.0913506,1.0913506 0 0 0 -0.642258,-0.867357 l 0.103685,-1.506564 a 11.433197,11.433197 0 0 0 0.616278,-0.04291 11.433197,11.433197 0 0 0 3.259188,-0.904536 l 0.849294,1.886108 a 1.740964,1.740964 0 0 0 -0.56714,1.499987 1.740964,1.740964 0 0 0 1.935179,1.522203 1.740964,1.740964 0 0 0 1.522203,-1.935178 1.740964,1.740964 0 0 0 -1.935115,-1.52169 1.740964,1.740964 0 0 0 -0.270793,0.05524 l -0.828021,-1.838685 a 11.433197,11.433197 0 0 0 1.654336,-1.072982 l 0.636058,0.793674 a 0.83150522,0.83150522 0 0 0 -0.05422,0.408776 0.83150522,0.83150522 0 0 0 0.924219,0.726991 0.83150522,0.83150522 0 0 0 0.726987,-0.924222 0.83150522,0.83150522 0 0 0 -0.924221,-0.726991 0.83150522,0.83150522 0 0 0 -0.23482,0.06448 l -0.588949,-0.73476 a 11.433197,11.433197 0 0 0 1.648942,-1.762958 l 1.140323,0.897903 a 1.1693042,1.1693042 0 0 0 -0.04861,0.495017 1.1693042,1.1693042 0 0 0 1.299372,1.022543 1.1693042,1.1693042 0 0 0 1.022483,-1.299882 1.1693042,1.1693042 0 0 0 -1.299822,-1.021972 1.1693042,1.1693042 0 0 0 -0.589319,0.246822 l -1.125388,-0.886156 a 11.433197,11.433197 0 0 0 1.648921,-3.902474 l 1.513944,0.23083 a 1.8189158,1.7409621 83.188449 0 0 2.64e-4,0.0031 1.8189158,1.7409621 83.188449 0 0 1.944434,1.599685 1.8189158,1.7409621 83.188449 0 0 1.512945,-2.012659 z"
       id="path4568">
        <animateTransform
          attributeName="transform"
          type="rotate"
          from="0 25.4351269 19.6840116"
          to="360 25.4351269 19.6840116"
          dur="90s"
          repeatCount="indefinite" />
    </path>
    <path
       id="path1441"
       d="m 25.061942,29.640242 c -1.419324,-0.06158 -2.767367,-0.405515 -4.020711,-1.025824 -0.486793,-0.240925 -0.921793,-0.500636 -1.36024,-0.812116 -0.08583,-0.06096 -0.168655,-0.116744 -0.184086,-0.123955 -0.03694,-0.01726 -0.172137,-0.124784 -0.384017,-0.305412 -0.498446,-0.424927 -0.863318,-0.790384 -1.350412,-1.352575 -0.16073,-0.185512 -0.221247,-0.262895 -0.358193,-0.458036 -0.09064,-0.129145 -0.180089,-0.260352 -0.198792,-0.291571 -0.0187,-0.03122 -0.07221,-0.116067 -0.118899,-0.188549 -0.780701,-1.211996 -1.284145,-2.597537 -1.465808,-4.034098 -0.05503,-0.435192 -0.07231,-0.729426 -0.07231,-1.231551 0,-0.605938 0.03081,-1.002131 0.123471,-1.587947 0.01722,-0.108899 0.03365,-0.215818 0.03651,-0.237596 0.0059,-0.0447 0.06281,-0.288138 0.132949,-0.568423 0.353444,-1.412308 1.03867,-2.749008 1.990308,-3.882582 0.247642,-0.294988 0.500253,-0.564387 0.750997,-0.80091 0.355281,-0.335131 0.581695,-0.52425 1.038264,-0.867236 0.406926,-0.305695 0.517459,-0.376724 0.936164,-0.601589 0.583517,-0.313376 1.008743,-0.508066 1.484263,-0.679574 0.09901,-0.03571 0.237643,-0.08944 0.308055,-0.119386 0.09066,-0.03857 0.214412,-0.08026 0.424075,-0.142874 0.25364,-0.07576 0.323563,-0.09336 0.488088,-0.122866 0.105617,-0.01895 0.222638,-0.03675 0.260045,-0.0396 0.03741,-0.0028 0.140024,-0.0172 0.228038,-0.03191 1.154312,-0.1929795 2.259523,-0.1964871 3.384602,-0.01075 0.390474,0.06446 0.72805,0.142285 1.220216,0.281295 0.254618,0.07191 0.595582,0.196285 1.14801,0.418742 l 0.463007,0.18645 0.394792,0.229667 c 0.267746,0.155762 0.430387,0.255761 0.50541,0.31075 0.06085,0.04458 0.166103,0.118501 0.233915,0.164238 0.232906,0.157093 0.469968,0.334544 0.71948,0.538565 0.07262,0.05937 0.211235,0.168872 0.308053,0.243329 0.165015,0.126901 0.195864,0.15512 0.492902,0.450914 0.348072,0.346612 0.496942,0.512179 0.796441,0.885776 0.132131,0.164819 0.232602,0.301245 0.355791,0.483115 0.151485,0.223642 0.194529,0.29505 0.366143,0.607387 0.117199,0.213303 0.256647,0.482381 0.350932,0.677155 l 0.156453,0.323205 0.178923,0.497787 c 0.171113,0.476054 0.178925,0.500317 0.178925,0.555742 0,0.04279 0.0074,0.08352 0.02841,0.155607 0.148377,0.509855 0.264085,1.111638 0.323345,1.68164 0.03757,0.361348 0.04381,0.502112 0.04406,0.993952 2.89e-4,0.550238 -0.01149,0.761081 -0.06818,1.219669 -0.187901,1.520615 -0.727316,2.956993 -1.592707,4.241126 -0.511008,0.758274 -1.010963,1.316632 -1.834025,2.048262 l -0.390597,0.347203 -0.20551,0.137231 c -0.206676,0.138006 -0.771985,0.479617 -1.017656,0.614961 -0.389866,0.214782 -0.881652,0.440359 -1.305782,0.598944 -0.903226,0.337728 -1.824651,0.53572 -2.838954,0.610023 -0.161981,0.01187 -0.911598,0.02168 -1.08419,0.01418 z"
       style="fill:#38b349;stroke-width:0.00796057" />
    <path
       id="path1439"
       d="m 25.057367,29.66168 c -1.419217,-0.06166 -2.767163,-0.406074 -4.020416,-1.027242 -0.270852,-0.134246 -0.42605,-0.218602 -0.680071,-0.369646 -0.264266,-0.157135 -0.724303,-0.462799 -0.759118,-0.504379 -0.0098,-0.01173 -0.0084,-0.01255 0.01407,-0.0081 0.02203,0.0044 0.02498,0.0029 0.02498,-0.01283 0,-0.0098 0.01219,-0.0343 0.02711,-0.05453 0.01491,-0.02021 0.02863,-0.04388 0.03048,-0.05261 0.0035,-0.01653 0.0067,-0.01725 0.03642,-0.0084 0.01512,0.0046 0.018,0.0024 0.018,-0.01329 0,-0.03742 -0.04312,-0.09813 -0.126596,-0.178217 -0.04659,-0.04471 -0.04407,-0.06471 0.01058,-0.0839 0.03201,-0.01124 0.05521,-0.01317 0.116013,-0.0096 0.0418,0.0024 0.09041,0.0079 0.10801,0.01202 0.01761,0.0043 0.06441,0.01114 0.104011,0.01553 0.07786,0.0086 0.142717,0.02658 0.212022,0.05879 0.03663,0.01702 0.05563,0.02046 0.113358,0.02053 0.08748,9.4e-5 0.09466,-0.0026 0.09466,-0.03644 0,-0.01935 0.0075,-0.03522 0.02696,-0.05665 0.01483,-0.01638 0.03873,-0.04881 0.05312,-0.07208 0.02573,-0.04164 0.02599,-0.043 0.016,-0.0843 -0.0061,-0.02493 -0.0077,-0.05284 -0.0042,-0.06872 0.0033,-0.0147 0.0076,-0.0984 0.0095,-0.186005 l 0.0033,-0.15928 -0.02481,-0.06193 c -0.02713,-0.06767 -0.04797,-0.183907 -0.04803,-0.267869 -5.6e-5,-0.05995 0.0051,-0.06402 0.04187,-0.03333 0.01332,0.01111 0.02878,0.01913 0.03431,0.01785 0.0056,-0.0013 0.0371,-0.02442 0.07013,-0.05139 0.04459,-0.0364 0.06256,-0.05681 0.0698,-0.07931 0.01488,-0.04621 0.05288,-0.08182 0.08743,-0.08194 0.02578,-8.9e-5 0.03888,-0.01036 0.140446,-0.110109 0.127323,-0.125048 0.129846,-0.129988 0.131245,-0.256924 7.28e-4,-0.06598 -0.002,-0.07787 -0.05142,-0.22149 -0.0721,-0.209655 -0.07124,-0.208339 -0.163833,-0.25315 -0.0418,-0.02023 -0.108412,-0.04803 -0.148016,-0.06178 l -0.072,-0.02499 -0.210787,-0.221762 c -0.190631,-0.200555 -0.213233,-0.221759 -0.236358,-0.221759 -0.01968,0 -0.03359,-0.0081 -0.0604,-0.03518 -0.0262,-0.02648 -0.04493,-0.03756 -0.07568,-0.04482 -0.02247,-0.0054 -0.05705,-0.01669 -0.07685,-0.0253 -0.0198,-0.0087 -0.0882,-0.03666 -0.152016,-0.06232 -0.119359,-0.048 -0.219116,-0.107126 -0.271598,-0.160984 -0.03058,-0.03139 -0.0401,-0.0333 -0.08602,-0.01724 -0.01737,0.0061 -0.06643,0.01364 -0.109017,0.0168 l -0.07742,0.0058 1.91e-4,-0.03069 c 1.05e-4,-0.01687 0.0034,-0.0447 0.0074,-0.06182 0.0061,-0.02592 0.0047,-0.03442 -0.0083,-0.05081 -0.01171,-0.01476 -0.01433,-0.02641 -0.01049,-0.04672 0.0062,-0.03314 -0.0025,-0.04329 -0.132876,-0.152681 -0.09602,-0.08061 -0.14678,-0.12784 -0.209044,-0.194522 -0.02659,-0.02848 -0.05106,-0.04512 -0.08685,-0.05902 -0.02741,-0.01064 -0.05165,-0.02404 -0.05385,-0.02975 -0.0064,-0.01667 -0.01966,-0.0123 -0.06448,0.02139 -0.02319,0.01743 -0.04588,0.03169 -0.05042,0.03169 -0.01502,0 -0.03142,-0.05426 -0.03142,-0.103893 0,-0.08213 -0.01121,-0.09321 -0.173646,-0.171734 -0.104703,-0.05061 -0.143948,-0.07369 -0.15934,-0.09369 -0.01239,-0.01609 -0.01799,-0.0306 -0.01425,-0.03679 0.02221,-0.03686 0.06058,-0.07415 0.0932,-0.09055 0.04193,-0.02109 0.04159,-0.02007 0.02942,-0.08679 -0.0061,-0.03316 -0.0218,-0.06886 -0.05334,-0.120807 -0.04098,-0.06753 -0.0473,-0.08457 -0.07484,-0.202237 -0.02702,-0.115342 -0.07205,-0.255871 -0.0967,-0.301775 -0.005,-0.0094 -0.06436,-0.102709 -0.131812,-0.207396 -0.110683,-0.171772 -0.128396,-0.195133 -0.181566,-0.239447 -0.0324,-0.02702 -0.09585,-0.07123 -0.140989,-0.09825 -0.08955,-0.05363 -0.226437,-0.152454 -0.252941,-0.182615 -0.03462,-0.03941 -0.114332,-0.156063 -0.146281,-0.214093 -0.02847,-0.05172 -0.03494,-0.07271 -0.04546,-0.147777 -0.0118,-0.08405 -0.01494,-0.09277 -0.08024,-0.221267 -0.05572,-0.10968 -0.07404,-0.138533 -0.101673,-0.160227 -0.01854,-0.01455 -0.03495,-0.02767 -0.03644,-0.02914 -0.0015,-0.0015 0.0018,-0.01492 0.0071,-0.02989 0.0085,-0.02335 0.0074,-0.03769 -0.0084,-0.101712 -0.0225,-0.09158 -0.02719,-0.100599 -0.0876,-0.169121 l -0.04846,-0.05493 V 20.83022 20.7683 l -0.04562,-0.0355 c -0.04376,-0.03404 -0.0481,-0.03559 -0.105826,-0.03778 l -0.0602,-0.0023 -0.07218,-0.09237 c -0.03971,-0.05082 -0.09969,-0.120829 -0.133303,-0.155619 -0.06048,-0.06259 -0.06121,-0.06385 -0.07061,-0.121766 -0.0052,-0.03218 -0.01971,-0.09599 -0.03219,-0.141789 -0.01249,-0.04579 -0.02706,-0.112783 -0.03241,-0.148849 -0.0087,-0.05892 -0.01784,-0.08168 -0.02845,-0.07115 -0.002,0.002 -0.0081,0.03002 -0.01346,0.06226 l -0.0098,0.05861 -0.03056,0.0025 c -0.01681,0.0014 -0.03522,-0.0014 -0.04092,-0.0061 -0.0056,-0.0047 -0.01479,-0.03585 -0.02024,-0.06925 l -0.0099,-0.06071 0.02882,-0.02694 c 0.02667,-0.02494 0.02842,-0.02941 0.0237,-0.06015 -0.0064,-0.04216 -0.01536,-0.05302 -0.04331,-0.05302 -0.01548,0 -0.02833,0.0075 -0.04144,0.02407 l -0.019,0.02407 -0.04621,-0.02097 c -0.03293,-0.01494 -0.05328,-0.01956 -0.07082,-0.01609 -0.03782,0.0075 -0.04612,0.0186 -0.04612,0.06158 0,0.02416 -0.0064,0.05171 -0.01712,0.07239 -0.02716,0.05297 -0.06999,0.116664 -0.07846,0.116664 -0.0044,0 -0.02273,-0.04729 -0.04102,-0.105083 -0.0183,-0.05779 -0.05626,-0.163857 -0.08436,-0.235691 l -0.05108,-0.130606 v -0.149543 c 0,-0.121688 0.0038,-0.172073 0.01985,-0.269904 0.01092,-0.06615 0.03264,-0.212468 0.04828,-0.32514 0.01563,-0.112671 0.03731,-0.241151 0.04815,-0.285513 0.02794,-0.114279 0.02782,-0.253664 -2.8e-4,-0.368653 -0.02844,-0.116409 -0.02654,-0.165304 0.01142,-0.290458 0.01728,-0.05698 0.04978,-0.168455 0.07223,-0.247722 0.02245,-0.07927 0.06668,-0.214886 0.09829,-0.301374 0.05039,-0.137863 0.0575,-0.164093 0.05772,-0.212766 1.73e-4,-0.04034 -0.0036,-0.06121 -0.01396,-0.07635 -0.01414,-0.02074 -0.01338,-0.02318 0.161248,-0.527668 l 0.175441,-0.506839 0.114796,-0.227748 c 0.06314,-0.125261 0.11754,-0.227748 0.120895,-0.227748 0.0033,0 0.0038,0.04162 7.74e-4,0.09247 -0.0033,0.05714 -0.0024,0.09069 0.0021,0.08785 0.0042,-0.0025 0.01799,-0.0263 0.03076,-0.0528 0.01278,-0.02652 0.02783,-0.04821 0.03346,-0.04821 0.0098,0 0.03485,0.06836 0.03485,0.09522 0,0.0073 -0.009,0.03927 -0.02001,0.07133 -0.02475,0.07213 -0.02475,0.07847 0,0.126894 0.011,0.02153 0.02001,0.04399 0.02001,0.04994 0,0.006 -0.03818,0.103318 -0.08486,0.21638 -0.193798,0.469427 -0.200481,0.488309 -0.210715,0.595264 -0.0051,0.05294 -0.0073,0.105583 -0.0048,0.116981 0.0024,0.0114 0.0062,0.02964 0.0085,0.04055 0.0022,0.01089 0.0068,0.01983 0.01008,0.01983 0.0032,0 0.02828,-0.03657 0.05558,-0.08128 0.04459,-0.07298 0.05019,-0.08697 0.05479,-0.136807 0.004,-0.0426 0.01592,-0.08067 0.0515,-0.163504 0.02551,-0.05939 0.05797,-0.148616 0.07211,-0.198272 0.0544,-0.190881 0.132202,-0.397462 0.183997,-0.488588 0.04326,-0.0761 0.0605,-0.09766 0.127592,-0.159421 0.05688,-0.05235 0.09235,-0.07805 0.132918,-0.09626 0.03045,-0.01366 0.06975,-0.0387 0.08735,-0.05567 0.01761,-0.01696 0.04281,-0.03333 0.056,-0.03638 0.0132,-0.0031 0.03161,-0.01234 0.04087,-0.02069 0.0093,-0.0084 0.05609,-0.02536 0.10401,-0.03784 0.04794,-0.01249 0.09614,-0.02681 0.107141,-0.03187 0.03176,-0.01455 0.124998,-0.197242 0.136783,-0.267984 0.0051,-0.03064 0.01872,-0.07305 0.03026,-0.09426 0.01914,-0.03518 0.02763,-0.04176 0.09698,-0.07494 l 0.07599,-0.03637 0.04002,-0.07011 c 0.03953,-0.06926 0.04057,-0.0703 0.08638,-0.08535 0.04102,-0.01348 0.05245,-0.02245 0.09907,-0.07766 0.05575,-0.06603 0.0525,-0.06419 0.168276,-0.09426 0.02965,-0.0077 0.0343,-0.01204 0.03889,-0.03629 0.0029,-0.01516 0.0099,-0.02754 0.01557,-0.02754 0.0056,0 0.03321,0.01018 0.06111,0.02257 0.03145,0.01398 0.07262,0.02471 0.108243,0.02817 0.06866,0.0068 0.07006,0.0053 0.07692,-0.08004 0.0025,-0.03136 0.0093,-0.06546 0.01509,-0.07575 0.01424,-0.02538 0.10284,-0.105304 0.166816,-0.150473 0.04891,-0.03451 0.06087,-0.03883 0.18402,-0.06627 0.109235,-0.02433 0.15357,-0.0302 0.259732,-0.03438 l 0.128014,-0.0051 0.04615,-0.02955 c 0.02538,-0.01626 0.04969,-0.02955 0.05401,-0.02955 0.0045,0 0.0078,0.02449 0.0078,0.0554 v 0.0554 l -0.03141,0.02061 -0.03141,0.02061 -0.03528,-0.02049 c -0.0563,-0.03271 -0.07972,-0.02832 -0.173597,0.0324 -0.09066,0.05865 -0.0861,0.0493 -0.06388,0.131061 0.01074,0.03959 0.02234,0.03879 0.09596,-0.0067 0.03279,-0.02021 0.07446,-0.04336 0.09256,-0.05145 0.03275,-0.01463 0.03321,-0.0146 0.09134,0.0051 l 0.05843,0.0197 0.04041,-0.02575 c 0.03383,-0.02155 0.05025,-0.0264 0.100677,-0.02972 l 0.06025,-0.004 0.0041,-0.02776 c 0.0037,-0.02518 0.0066,-0.02795 0.032,-0.02976 0.05682,-0.0041 0.119604,-0.02025 0.13558,-0.03499 0.009,-0.0084 0.01643,-0.02472 0.01643,-0.03638 0,-0.01414 0.01092,-0.03223 0.03283,-0.05437 0.02871,-0.02899 0.03214,-0.03625 0.02738,-0.0577 -0.0031,-0.0135 -0.009,-0.02674 -0.01337,-0.0294 -0.0083,-0.0052 -0.09578,0.04969 -0.161562,0.101224 -0.0213,0.01668 -0.04396,0.03035 -0.05032,0.03035 -0.0063,0 -0.04002,-0.01288 -0.07475,-0.02861 l -0.06315,-0.02861 -0.0056,-0.05165 c -0.0046,-0.042 -0.002,-0.0643 0.01345,-0.119422 0.01857,-0.06609 0.02006,-0.06843 0.06003,-0.09383 0.05755,-0.03657 0.06566,-0.0639 0.03102,-0.104701 -0.011,-0.01297 -0.02001,-0.02573 -0.02001,-0.02837 0,-0.0026 0.02071,-0.0048 0.04601,-0.0048 0.03636,-5.6e-5 0.05475,-0.0051 0.08772,-0.0238 0.04563,-0.02593 0.05836,-0.04272 0.05815,-0.07673 -2.06e-4,-0.03767 -0.01013,-0.04364 -0.09704,-0.05847 -0.07568,-0.01292 -0.08755,-0.01311 -0.136909,-0.0022 -0.02973,0.0066 -0.05835,0.01048 -0.06358,0.0088 -0.0052,-0.0018 0.01471,-0.02297 0.04435,-0.04721 0.0525,-0.04292 0.05538,-0.04415 0.111909,-0.04775 0.05474,-0.0035 0.06125,-0.0061 0.114824,-0.04464 0.03314,-0.02389 0.06529,-0.04095 0.0772,-0.04095 0.02699,0 0.113818,0.03146 0.228329,0.08274 0.08442,0.03781 0.102764,0.04289 0.197431,0.05474 l 0.104367,0.01306 0.130649,-0.04028 c 0.09697,-0.0299 0.137542,-0.039 0.15738,-0.03533 0.0147,0.0028 0.02882,0.0084 0.03135,0.01239 0.005,0.008 -0.124498,0.105449 -0.26009,0.19573 -0.07443,0.04955 -0.08995,0.06414 -0.136012,0.127831 -0.04982,0.06887 -0.05565,0.07395 -0.138016,0.120523 -0.04731,0.02675 -0.08601,0.05294 -0.08601,0.05821 0,0.0214 0.02545,0.04314 0.06166,0.0527 0.0211,0.0056 0.05995,0.02163 0.08635,0.03571 0.0264,0.01406 0.07089,0.02991 0.0989,0.0352 0.100121,0.01892 0.117578,0.04153 0.04311,0.05584 -0.07034,0.01352 -0.082,0.02017 -0.082,0.04671 0,0.02196 0.002,0.0233 0.04374,0.02846 0.04043,0.0051 0.04766,0.0032 0.09587,-0.02348 0.07002,-0.03883 0.09041,-0.03515 0.05015,0.0091 -0.03551,0.03897 -0.03695,0.04866 -0.0077,0.05198 0.01727,0.002 0.02254,0.0073 0.02453,0.02432 0.0014,0.012 0.0053,0.02182 0.0087,0.02182 0.0085,0 0.09233,-0.05876 0.136566,-0.09574 0.03456,-0.02888 0.07029,-0.09435 0.06027,-0.110423 -0.0021,-0.0034 -0.01671,-0.0086 -0.03246,-0.01149 -0.0337,-0.0063 -0.03306,-0.01295 0.0038,-0.03763 0.015,-0.01008 0.03458,-0.02808 0.0435,-0.04003 l 0.01623,-0.02172 -0.01749,-0.01845 c -0.0096,-0.01016 -0.01748,-0.02131 -0.01748,-0.02481 0,-0.0035 0.01285,-0.01801 0.02855,-0.03227 0.02782,-0.02524 0.02832,-0.02679 0.01974,-0.05843 -0.0099,-0.03632 -0.01821,-0.04233 -0.07789,-0.05622 -0.05015,-0.01166 -0.05598,-0.01788 -0.0596,-0.06365 -0.0026,-0.03365 -0.0014,-0.03622 0.02426,-0.04829 0.01489,-0.007 0.0419,-0.03223 0.06001,-0.05603 0.01812,-0.02381 0.06083,-0.06943 0.09493,-0.101424 0.03411,-0.03197 0.062,-0.06139 0.062,-0.06533 0,-0.004 -0.01261,-0.01456 -0.02801,-0.02357 -0.0154,-0.0091 -0.02802,-0.01913 -0.02802,-0.02247 0,-0.0033 0.01404,-0.01531 0.03118,-0.02655 0.0225,-0.01477 0.044,-0.02113 0.07722,-0.02286 l 0.04603,-0.0024 0.01373,-0.04186 c 0.01061,-0.0324 0.02436,-0.05153 0.0608,-0.08464 l 0.04707,-0.04278 -0.01546,-0.02639 c -0.04521,-0.07719 -0.05255,-0.09712 -0.05255,-0.142733 v -0.04623 h 0.04001 c 0.05087,0 0.05115,-0.0074 0.0031,-0.07891 -0.03674,-0.05477 -0.03686,-0.05513 -0.04056,-0.136712 -0.0031,-0.0697 -9.25e-4,-0.09117 0.0151,-0.145242 l 0.01883,-0.06344 0.03953,-0.0025 c 0.02173,-0.0014 0.0441,-0.0062 0.0497,-0.01085 0.0056,-0.0046 0.02835,-0.04171 0.05058,-0.08245 0.02222,-0.04073 0.07803,-0.139354 0.124014,-0.219134 0.07641,-0.132559 0.09192,-0.164884 0.07916,-0.164884 -0.02156,0 -0.180055,0.07781 -0.216905,0.106472 l -0.04662,0.03628 -0.07,5e-6 c -0.0385,2e-6 -0.07,-0.0029 -0.07,-0.0061 0,-0.0034 0.0049,-0.0132 0.01084,-0.02182 0.006,-0.0087 0.01883,-0.03706 0.02863,-0.06323 0.03817,-0.102186 0.04872,-0.114378 0.16509,-0.190834 0.05911,-0.03884 0.107484,-0.07382 0.107484,-0.07774 0,-0.0039 -0.0076,-0.01937 -0.01696,-0.03432 l -0.01696,-0.02719 0.02445,-0.04908 c 0.03679,-0.07382 0.03825,-0.09143 0.01078,-0.127968 -0.02342,-0.03113 -0.07517,-0.0586 -0.112052,-0.05948 -0.01088,-2.56e-4 -0.0722,0.03443 -0.146225,0.08271 -0.117834,0.07684 -0.129948,0.08701 -0.159677,0.13401 -0.02726,0.04309 -0.03854,0.05354 -0.07379,0.06839 -0.02289,0.0096 -0.08725,0.03898 -0.143022,0.06518 -0.09727,0.04572 -0.10199,0.04907 -0.116012,0.08227 -0.02018,0.04776 -0.217317,0.244879 -0.257744,0.257705 -0.0159,0.0051 -0.0559,0.02403 -0.08891,0.0422 -0.033,0.01815 -0.108611,0.05348 -0.168018,0.07847 -0.15446,0.06502 -0.221602,0.110384 -0.321726,0.217421 -0.13291,0.142084 -0.237159,0.232216 -0.26859,0.232216 -0.05287,0 -0.03751,-0.07227 0.03181,-0.149838 0.02576,-0.02881 0.06205,-0.07722 0.08065,-0.107559 0.02931,-0.04784 0.05135,-0.06916 0.165825,-0.160558 0.173772,-0.138741 0.176596,-0.141917 0.170629,-0.191855 -0.0059,-0.049 0.02034,-0.10889 0.08881,-0.203105 0.06984,-0.09609 0.102897,-0.165303 0.09661,-0.202246 l -0.0051,-0.02995 0.08256,-0.04891 c 0.0571,-0.03383 0.102296,-0.06861 0.146569,-0.112809 l 0.064,-0.0639 0.284623,-0.12865 c 0.156544,-0.07075 0.30956,-0.134796 0.340037,-0.14231 0.03047,-0.0075 0.08242,-0.02684 0.115417,-0.04295 0.05615,-0.02741 0.06558,-0.02947 0.146939,-0.032 0.06163,-0.0019 0.08535,-1.77e-4 0.08151,0.006 -0.0079,0.0128 -0.09003,0.06665 -0.13874,0.09108 -0.02326,0.01166 -0.04035,0.02433 -0.03798,0.02814 0.0023,0.0038 0.02889,0.01128 0.0589,0.01661 0.04348,0.0077 0.05839,0.0077 0.07336,-2.94e-4 0.01704,-0.0091 0.02073,-0.0076 0.03972,0.01547 0.01746,0.02121 0.02553,0.025 0.04862,0.02283 0.02743,-0.0026 0.02773,-0.0031 0.03171,-0.04721 0.0039,-0.04226 0.0063,-0.04662 0.04801,-0.08316 0.02419,-0.0212 0.06768,-0.06091 0.09663,-0.08824 l 0.05265,-0.04969 h 0.115819 c 0.146546,0 0.198131,-0.01433 0.246129,-0.06838 0.02621,-0.02952 0.04909,-0.04289 0.141164,-0.08245 0.120908,-0.05195 0.168111,-0.07714 0.190474,-0.101633 0.01722,-0.01886 0.01306,-0.02861 -0.01926,-0.04518 -0.02128,-0.01091 -0.02916,-0.01062 -0.0855,0.0032 -0.115894,0.02838 -0.114601,0.02856 -0.05805,-0.0082 0.0286,-0.01864 0.06998,-0.05164 0.09195,-0.07332 0.02776,-0.0274 0.05824,-0.04704 0.100011,-0.06444 0.124602,-0.05193 0.401474,-0.155567 0.405346,-0.151728 0.0022,0.0022 -0.002,0.01309 -0.0093,0.0242 -0.0095,0.01434 -0.03811,0.02965 -0.09865,0.05279 -0.04691,0.01792 -0.0943,0.04091 -0.105299,0.05111 -0.011,0.0102 -0.0434,0.02904 -0.072,0.04188 -0.07597,0.03412 -0.08266,0.04401 -0.07452,0.110293 l 0.0067,0.05426 0.05792,-0.0011 c 0.05217,-10e-4 0.05793,4.34e-4 0.05793,0.01414 0,0.02882 -0.02253,0.06641 -0.07432,0.123983 -0.0353,0.03925 -0.0576,0.0728 -0.0697,0.10484 -0.0098,0.02592 -0.02211,0.05068 -0.02741,0.05504 -0.0053,0.0043 -0.04516,0.01359 -0.08859,0.02052 -0.05028,0.008 -0.105318,0.0236 -0.151501,0.04289 -0.0399,0.01666 -0.09234,0.03471 -0.116541,0.0401 -0.05455,0.01216 -0.07618,0.02523 -0.09204,0.05568 -0.0068,0.01305 -0.01728,0.02371 -0.02327,0.02371 -0.006,0 -0.03437,-0.01089 -0.06308,-0.02421 l -0.05218,-0.0242 -0.112735,0.05599 c -0.062,0.03079 -0.112733,0.05914 -0.112733,0.063 0,0.0039 0.0099,0.0094 0.02201,0.01228 0.06796,0.01626 0.08201,0.0218 0.08201,0.03237 0,0.0063 -0.02052,0.05238 -0.04563,0.102336 l -0.04561,0.09083 0.01033,0.09364 c 0.0056,0.0515 0.01165,0.09496 0.01325,0.09659 0.0068,0.0068 0.0441,-0.0085 0.08002,-0.03256 0.03129,-0.02104 0.04506,-0.03856 0.07326,-0.0933 0.01912,-0.03707 0.03898,-0.06741 0.04416,-0.06741 0.0052,0 0.01485,0.0173 0.02148,0.03845 0.01234,0.03939 0.01072,0.04959 -0.01859,0.117153 -0.0068,0.01574 0.0084,0.02271 0.03756,0.01719 0.01356,-0.0025 0.03259,-0.01897 0.05282,-0.04553 0.02416,-0.03172 0.04639,-0.04921 0.09431,-0.07414 0.0508,-0.02643 0.06818,-0.04059 0.09163,-0.0746 0.01591,-0.02309 0.03152,-0.05089 0.03465,-0.06179 0.0031,-0.0109 0.02049,-0.0512 0.03856,-0.08955 l 0.03284,-0.06971 0.06668,-0.0314 c 0.03668,-0.01727 0.06841,-0.0314 0.07053,-0.0314 0.0021,0 0.0039,0.0075 0.0039,0.0167 0,0.0099 -0.02254,0.03975 -0.0556,0.07354 -0.05503,0.05626 -0.05565,0.05738 -0.0611,0.110187 -0.0051,0.04928 -0.0044,0.05335 0.0099,0.05335 0.02625,0 0.202629,-0.07782 0.236308,-0.104268 0.01755,-0.01378 0.05409,-0.0361 0.08122,-0.04962 l 0.04931,-0.02457 0.0046,-0.06344 c 0.0024,-0.0349 0.01046,-0.07866 0.01769,-0.09727 0.0096,-0.0247 0.01188,-0.04727 0.0084,-0.08371 -0.0047,-0.04875 -0.0042,-0.05037 0.02093,-0.07125 0.02007,-0.01674 0.03459,-0.02158 0.06701,-0.02232 0.07927,-0.0018 0.08406,-0.0046 0.142893,-0.08631 0.04815,-0.0668 0.05846,-0.08801 0.09101,-0.187295 0.04267,-0.130173 0.04844,-0.136648 0.139802,-0.157145 0.06197,-0.01391 0.09865,-0.03151 0.09407,-0.04516 -0.0032,-0.0095 -0.09842,-0.04408 -0.154347,-0.05606 -0.05321,-0.0114 -0.0592,-0.01834 -0.03323,-0.03859 0.01183,-0.0092 0.02729,-0.02782 0.03431,-0.04129 0.01182,-0.02268 0.01176,-0.02524 -8.57e-4,-0.03441 -0.0075,-0.0054 -0.02754,-0.01224 -0.04449,-0.01508 -0.0408,-0.0068 -0.04818,-0.01755 -0.05012,-0.07261 -0.0016,-0.04603 -0.0015,-0.04634 0.02238,-0.04881 0.0132,-0.0014 0.05844,-0.01506 0.100529,-0.03041 l 0.07653,-0.02791 0.0575,0.01731 c 0.03162,0.0095 0.05916,0.01998 0.06119,0.02323 0.0063,0.01021 -0.01233,0.06519 -0.03238,0.09522 -0.01228,0.0184 -0.02104,0.04603 -0.02425,0.07653 -0.0048,0.04651 -0.0045,0.04829 0.02057,0.06908 0.03195,0.02665 0.07135,0.02796 0.130082,0.0044 0.02872,-0.01156 0.05706,-0.01659 0.08831,-0.01565 0.05827,0.0017 0.06002,-0.0097 0.0081,-0.05369 -0.03994,-0.03384 -0.03992,-0.03838 2.49e-4,-0.05892 0.03304,-0.0169 0.07787,-0.0028 0.125102,0.03926 0.03527,0.03143 0.04271,0.03465 0.08006,0.03465 0.03549,0 0.04822,-0.0048 0.09216,-0.03461 0.02804,-0.01903 0.09079,-0.05115 0.139413,-0.07138 0.08359,-0.03475 0.0925,-0.03678 0.162684,-0.03686 0.07528,-9e-5 0.236457,-0.03271 0.450293,-0.09115 0.07907,-0.02161 0.08127,-0.02176 0.188437,-0.0129 0.12843,0.01062 0.169975,0.01126 0.164542,0.0025 -0.0021,-0.0035 -0.03459,-0.02494 -0.07196,-0.04759 l -0.06796,-0.04117 -0.14117,-0.01358 -0.141173,-0.01358 -0.04974,0.01768 c -0.04108,0.0146 -0.07538,0.01873 -0.197378,0.02376 -0.142006,0.0058 -0.180674,0.0036 -0.248387,-0.01448 -0.03283,-0.0087 -0.0396,-0.02043 -0.04205,-0.07244 -0.0015,-0.03018 -0.02497,-0.02409 0.254812,-0.0659 1.35834,-0.2030238 2.799839,-0.1182298 4.111251,0.241836 0.301985,0.08291 0.296598,0.08094 0.301206,0.110154 0.004,0.02464 0.0081,0.02702 0.14611,0.08378 0.07816,0.03213 0.186173,0.07309 0.240025,0.09103 0.05385,0.01794 0.123119,0.04588 0.15392,0.06208 0.05415,0.0285 0.05594,0.0304 0.05406,0.05724 -0.0019,0.02688 6.55e-4,0.02954 0.08001,0.08397 0.07717,0.05293 0.357332,0.202091 0.453999,0.241726 0.06612,0.02711 0.06827,0.0299 0.04298,0.05606 l -0.02166,0.0224 0.01535,0.02972 c 0.0084,0.01634 0.03245,0.04652 0.05335,0.06706 0.0209,0.02054 0.03797,0.04203 0.03793,0.04776 -8e-5,0.0057 -0.0089,0.02916 -0.01963,0.05206 -0.01628,0.03467 -0.02307,0.04164 -0.04046,0.04164 -0.02505,0 -0.02441,0.0031 0.0211,0.101128 0.03149,0.0679 0.03713,0.08921 0.02359,0.08921 -0.0042,0 -0.05903,-0.02495 -0.122011,-0.05545 -0.08783,-0.04253 -0.123856,-0.05592 -0.154535,-0.05751 -0.02201,-0.0012 -0.04131,0.0014 -0.0429,0.0055 -0.0016,0.0042 0.0731,0.05045 0.166018,0.102948 0.09291,0.05249 0.168917,0.09968 0.168917,0.104872 0,0.0052 -0.01075,0.01178 -0.02391,0.01464 -0.01316,0.0028 -0.02572,0.008 -0.02792,0.01164 -0.0068,0.01103 0.04313,0.122431 0.06194,0.137963 0.0098,0.0081 0.03856,0.02511 0.06388,0.03779 0.02531,0.01267 0.04603,0.02497 0.04603,0.02733 0,0.0023 -0.01146,0.01468 -0.02547,0.02737 -0.02363,0.0214 -0.02901,0.02279 -0.07401,0.01924 l -0.04853,-0.0038 0.04903,0.02314 c 0.02697,0.01272 0.0515,0.02708 0.05451,0.03192 0.01235,0.01979 -0.02328,0.01591 -0.127387,-0.01394 -0.101177,-0.029 -0.120375,-0.03779 -0.243773,-0.111504 -0.07367,-0.04401 -0.137897,-0.08001 -0.14272,-0.08001 -0.0048,0 -0.01122,-0.0039 -0.01422,-0.0088 -0.004,-0.0063 0.03634,-0.008 0.142873,-0.0059 0.08159,0.0016 0.150842,2.83e-4 0.153925,-0.0028 0.0031,-0.0031 0.0073,-0.0209 0.0093,-0.03965 0.0037,-0.03394 0.0035,-0.03431 -0.05098,-0.07815 -0.03009,-0.02422 -0.0821,-0.06235 -0.115568,-0.08474 l -0.06102,-0.0407 -0.127138,-0.01667 c -0.06993,-0.0092 -0.179344,-0.02745 -0.243149,-0.04061 -0.115356,-0.02381 -0.316704,-0.04656 -0.416044,-0.047 -0.05069,-2.3e-4 -0.05391,-0.0016 -0.126923,-0.05118 l -0.07491,-0.05094 -0.04909,0.0184 c -0.027,0.01012 -0.0743,0.03046 -0.105102,0.0452 l -0.056,0.02679 -0.008,0.0509 c -0.0045,0.028 -0.01222,0.05229 -0.0174,0.054 -0.0052,0.0018 -0.0245,-0.0045 -0.04296,-0.01387 -0.03756,-0.01899 -0.04151,-0.01701 -0.05583,0.02793 -0.0066,0.02055 -0.0253,0.04571 -0.05319,0.07139 -0.03144,0.02895 -0.04356,0.0461 -0.04487,0.06344 -0.0016,0.02129 7.37e-4,0.02391 0.02222,0.02503 0.0132,6.91e-4 0.02869,0.0016 0.03441,0.0019 0.02524,0.0018 0.03554,0.05702 0.03708,0.199001 0.0015,0.138635 0.0016,0.138846 0.027,0.190339 0.01403,0.02834 0.02551,0.05545 0.02551,0.06022 4e-6,0.0047 -0.02135,0.02566 -0.04746,0.0464 -0.05501,0.04372 -0.05861,0.04998 -0.04397,0.07618 0.01758,0.03146 0.01363,0.03796 -0.02658,0.04382 -0.0601,0.0088 -0.07001,0.01492 -0.08204,0.05105 -0.0079,0.02396 -0.02556,0.04598 -0.06235,0.0781 -0.03408,0.02975 -0.05923,0.06035 -0.07506,0.09133 -0.02375,0.04646 -0.02379,0.04678 -0.01465,0.114999 0.01723,0.128615 0.02123,0.139114 0.08303,0.217574 0.03158,0.04009 0.07174,0.09344 0.08924,0.118553 0.02394,0.03435 0.04967,0.05729 0.103831,0.09258 0.06202,0.04042 0.08037,0.04829 0.13227,0.05673 0.06015,0.0098 0.06033,0.0098 0.09466,-0.01278 0.02585,-0.01694 0.04142,-0.03649 0.06264,-0.07857 0.04043,-0.08022 0.04609,-0.08523 0.08995,-0.07975 0.08681,0.01087 0.136662,0.02225 0.145913,0.0333 0.0055,0.0066 0.01727,0.02993 0.02627,0.05205 0.01384,0.03403 0.03108,0.05255 0.112361,0.12068 0.08777,0.07358 0.100602,0.08792 0.149559,0.167188 0.06394,0.103537 0.112,0.148025 0.174171,0.161241 0.06714,0.01427 0.06651,0.01463 0.08843,-0.04876 l 0.01989,-0.05749 0.044,-0.008 c 0.02421,-0.0044 0.04851,-0.01081 0.05401,-0.01435 0.0064,-0.0043 0.01,-0.02631 0.01,-0.06233 0,-0.05563 -2.88e-4,-0.05637 -0.058,-0.148182 l -0.058,-0.09228 0.0016,-0.07773 c 0.0015,-0.07022 0.0035,-0.08002 0.02168,-0.101405 0.01106,-0.01303 0.02257,-0.0368 0.0256,-0.05279 0.0052,-0.02767 0.0033,-0.03109 -0.0377,-0.0686 -0.02912,-0.02661 -0.07238,-0.05315 -0.132763,-0.08141 -0.09766,-0.04574 -0.09941,-0.04743 -0.190928,-0.184132 -0.03807,-0.05688 -0.03904,-0.05977 -0.03683,-0.111033 0.0022,-0.05326 0.007,-0.06368 0.05821,-0.128564 0.01152,-0.01459 0.01736,-0.0372 0.0205,-0.07931 l 0.0045,-0.0589 -0.04855,-0.03372 c -0.03964,-0.02755 -0.04953,-0.03892 -0.05391,-0.06199 -0.0047,-0.02409 -0.002,-0.03169 0.01714,-0.05153 0.01917,-0.01982 0.02857,-0.02327 0.06357,-0.02327 0.04398,0 0.103562,0.01709 0.145885,0.04184 0.02076,0.01215 0.02863,0.02437 0.03862,0.06007 0.0068,0.02466 0.01401,0.04933 0.01579,0.05485 0.0018,0.0056 -7.43e-4,0.06939 -0.0056,0.141934 l -0.0088,0.131892 0.07644,0.0703 c 0.04205,0.03868 0.09361,0.09435 0.114598,0.123752 0.04477,0.06272 0.04503,0.06293 0.08926,0.07434 0.01876,0.0048 0.06349,0.02984 0.09939,0.05552 0.03606,0.02581 0.0709,0.04512 0.07788,0.04314 0.0069,-0.002 0.02729,-0.0078 0.04521,-0.01284 0.02134,-0.0061 0.05725,-0.03085 0.10401,-0.07177 0.03929,-0.03436 0.07503,-0.06252 0.07942,-0.06254 0.0045,-2.5e-5 0.035,0.0152 0.068,0.03383 0.04923,0.02779 0.06001,0.03738 0.06001,0.05346 0,0.02689 -0.04856,0.04881 -0.155884,0.07042 -0.04612,0.0093 -0.08847,0.02144 -0.09409,0.02701 -0.0056,0.0056 -0.01441,0.02996 -0.01952,0.05421 -0.009,0.04263 -0.0085,0.04533 0.01471,0.08292 l 0.02405,0.03884 0.07538,0.004 c 0.0883,0.0047 0.119269,0.02052 0.170843,0.08756 l 0.03082,0.04006 -0.02264,0.02343 c -0.01244,0.0129 -0.02714,0.02342 -0.03261,0.02342 -0.0055,0 -0.03942,-0.01774 -0.07542,-0.03942 -0.0767,-0.04617 -0.09531,-0.05327 -0.10387,-0.03955 -0.01235,0.01978 -0.01626,0.09181 -0.0074,0.134509 0.01075,0.05139 0.01417,0.05713 0.08735,0.147537 0.03092,0.03819 0.0562,0.07503 0.05617,0.08187 0,0.0068 -0.01081,0.02849 -0.02397,0.04813 -0.01608,0.02396 -0.02395,0.04562 -0.02395,0.06595 -8e-5,0.0451 -0.0106,0.05833 -0.05127,0.06437 -0.02923,0.0044 -0.04299,0.0017 -0.07595,-0.01492 -0.02216,-0.01112 -0.04756,-0.02023 -0.05646,-0.02023 -0.03998,0 -0.121617,0.04321 -0.203738,0.107844 -0.109875,0.08647 -0.11757,0.08941 -0.159707,0.06094 -0.01797,-0.01214 -0.04813,-0.03722 -0.06702,-0.05576 -0.01889,-0.01855 -0.03712,-0.03371 -0.04052,-0.03371 -0.0034,0 -0.04199,0.01977 -0.08579,0.04395 -0.06304,0.03479 -0.0846,0.04302 -0.103398,0.03951 -0.01307,-0.0024 -0.02669,-0.0074 -0.0303,-0.01094 -0.01328,-0.01317 0.01169,-0.05388 0.05935,-0.09678 l 0.04895,-0.04409 -0.02712,-0.03544 c -0.01491,-0.01949 -0.03597,-0.05437 -0.0468,-0.07753 -0.01856,-0.03966 -0.02105,-0.04182 -0.04359,-0.03733 -0.03315,0.0067 -0.06009,0.02555 -0.0689,0.04854 -0.0084,0.02203 -0.01807,0.0232 -0.08325,0.01024 -0.05131,-0.01021 -0.06051,-0.02132 -0.04149,-0.05009 0.01701,-0.02572 0.01626,-0.04066 -0.0034,-0.06809 -0.009,-0.01251 -0.02702,-0.04842 -0.04007,-0.0798 -0.01305,-0.03138 -0.02775,-0.06186 -0.03264,-0.06771 -0.01541,-0.01842 -0.04664,-0.01204 -0.07406,0.01513 -0.01432,0.01417 -0.04108,0.03758 -0.05947,0.05199 -0.0333,0.02611 -0.03343,0.02645 -0.03341,0.07931 0,0.04031 0.0042,0.05976 0.0172,0.08085 0.0094,0.01527 0.04214,0.07694 0.07269,0.137048 0.03053,0.06012 0.07465,0.134323 0.09804,0.164919 0.03606,0.04717 0.04161,0.0589 0.03654,0.07709 -0.0043,0.01517 -0.01045,0.02075 -0.02122,0.01905 -0.146848,-0.02312 -0.171252,-0.02102 -0.171252,0.0147 0,0.02679 -0.02098,0.03671 -0.08938,0.04237 -0.06267,0.0052 -0.06842,0.0073 -0.09664,0.03452 -0.0319,0.03084 -0.03484,0.04498 -0.01861,0.08925 0.009,0.02463 0.0079,0.03401 -0.0094,0.08328 -0.01074,0.03054 -0.02189,0.07514 -0.02478,0.09914 l -0.0052,0.04363 -0.08002,0.05252 c -0.04401,0.02888 -0.09673,0.05855 -0.117166,0.06593 -0.06498,0.02343 -0.06543,0.0242 -0.0508,0.08675 0.0069,0.02985 0.01162,0.05745 0.01033,0.06132 -0.0013,0.0039 -0.03839,0.02766 -0.08238,0.05287 -0.08256,0.04729 -0.08732,0.05341 -0.07529,0.09697 0.0028,0.01 -0.01183,0.01225 -0.09162,0.01413 l -0.0949,0.0022 -0.03878,-0.03595 c -0.03843,-0.03564 -0.05777,-0.04356 -0.06763,-0.02775 -0.0029,0.0045 0.02025,0.05107 0.05125,0.103457 0.0445,0.07519 0.05381,0.09622 0.04429,0.09985 -0.0067,0.0025 -0.05241,-8.19e-4 -0.101727,-0.0075 l -0.08965,-0.01203 -0.128002,0.02359 c -0.07041,0.01298 -0.129807,0.02539 -0.132013,0.02762 -0.0022,0.0022 0.0063,0.01229 0.01915,0.02236 0.02052,0.01626 0.02266,0.02201 0.01881,0.05054 -0.0026,0.01974 -8e-4,0.03497 0.0048,0.03937 0.0051,0.004 0.0398,0.01165 0.0772,0.01708 0.07203,0.01047 0.261829,0.06679 0.277046,0.0822 0.005,0.0051 0.01505,0.03421 0.02242,0.06486 0.0074,0.03066 0.01591,0.05974 0.01898,0.06463 0.0031,0.0048 0.0278,0.02511 0.05497,0.04493 0.02931,0.02139 0.06293,0.05578 0.08269,0.08463 0.03695,0.05393 0.04231,0.07831 0.05183,0.235248 0.0051,0.08406 0.0041,0.09323 -0.02024,0.178444 -0.01409,0.0494 -0.02966,0.09244 -0.03464,0.09565 -0.01369,0.0089 -0.204878,0.0074 -0.393072,-0.0031 -0.121706,-0.0068 -0.208614,-0.007 -0.315303,-10e-4 -0.146535,0.0082 -0.147491,0.0082 -0.188019,-0.01058 -0.04722,-0.02181 -0.101762,-0.02476 -0.120171,-0.0066 -0.0069,0.0069 -0.01257,0.0247 -0.01257,0.03966 v 0.0272 h -0.05947 c -0.05651,0 -0.06029,0.0012 -0.076,0.02303 -0.02161,0.03009 -0.02087,0.04156 0.0043,0.0648 0.03004,0.02786 0.03566,0.04179 0.02779,0.06896 -0.0054,0.01857 -0.0033,0.02982 0.0088,0.04964 0.01318,0.02148 0.01486,0.03375 0.01034,0.07554 -0.0047,0.04385 -0.0029,0.0555 0.01591,0.09602 0.0211,0.04567 0.02125,0.04731 0.01569,0.167721 l -0.0056,0.121604 -0.05325,0.08151 c -0.04397,0.0673 -0.05587,0.09293 -0.06833,0.146989 -0.013,0.0564 -0.01348,0.06647 -0.0036,0.07271 0.0063,0.004 0.0349,0.02072 0.06351,0.0372 l 0.05201,0.02998 0.0041,0.130149 0.0041,0.130149 0.03599,0.01076 c 0.03744,0.01119 0.06488,0.01036 0.21874,-0.0067 l 0.08672,-0.0095 0.05193,0.05062 c 0.02855,0.02783 0.06059,0.06738 0.07121,0.08786 0.01837,0.03546 0.08254,0.09361 0.10331,0.09361 0.0053,0 0.03816,-0.0223 0.07311,-0.04957 0.03496,-0.02727 0.08763,-0.06508 0.11704,-0.08402 l 0.05348,-0.03446 0.101247,0.0095 c 0.112155,0.01052 0.286063,0.0043 0.298018,-0.01084 0.004,-0.005 0.01507,-0.03287 0.0247,-0.06199 0.0096,-0.02912 0.02181,-0.05622 0.02707,-0.06022 0.0053,-0.004 0.03476,-0.01709 0.06555,-0.02908 0.03081,-0.01199 0.0605,-0.02546 0.066,-0.02998 0.0061,-0.005 0.01,-0.02778 0.01,-0.05788 0,-0.04629 0.0023,-0.05289 0.03492,-0.09618 0.01922,-0.02556 0.04621,-0.05696 0.06,-0.06976 0.03808,-0.03537 0.03446,-0.06275 -0.01586,-0.119762 l -0.04095,-0.04638 0.0051,-0.04933 c 0.0068,-0.06602 0.06613,-0.198372 0.113528,-0.253364 0.02812,-0.03261 0.05708,-0.05283 0.136423,-0.09519 0.09597,-0.05124 0.145737,-0.09069 0.167861,-0.133053 0.0049,-0.0094 0.01318,-0.04627 0.01832,-0.08181 l 0.0093,-0.06464 -0.02576,-0.05178 -0.02576,-0.05179 0.02744,-0.03155 c 0.01509,-0.01736 0.04365,-0.03949 0.06344,-0.04915 0.03138,-0.01534 0.0442,-0.017 0.100009,-0.01292 0.0352,0.0025 0.10833,0.01552 0.162502,0.02877 0.05417,0.01325 0.100014,0.02409 0.101872,0.02409 0.0019,0 0.04456,-0.03723 0.09489,-0.08275 0.05032,-0.04552 0.101709,-0.08797 0.114168,-0.09436 0.02919,-0.01496 0.04662,-0.03506 0.0562,-0.06479 0.0063,-0.01986 0.0141,-0.02538 0.04666,-0.03349 0.04362,-0.01084 0.03468,-0.01378 0.147779,0.04872 0.07505,0.04147 0.114638,0.08368 0.147428,0.157175 0.02262,0.05073 0.02361,0.05152 0.104095,0.08566 0.03729,0.01581 0.12315,0.06763 0.208021,0.125549 0.14632,0.09985 0.171127,0.111544 0.237378,0.111885 0.02925,1.49e-4 0.04409,0.0056 0.07201,0.02668 0.02846,0.02146 0.117953,0.07412 0.183062,0.107747 0.0066,0.0034 0.02303,0.02184 0.03666,0.041 0.01889,0.02658 0.03132,0.03593 0.05239,0.03931 0.03869,0.0062 0.0426,0.0096 0.08606,0.07348 0.100201,0.147377 0.111059,0.191175 0.06159,0.248464 -0.02143,0.02483 -0.04662,0.0399 -0.115055,0.06887 -0.09484,0.04013 -0.08621,0.03942 -0.205536,0.01722 -0.01801,-0.0033 -0.03598,0.0022 -0.072,0.02234 -0.02641,0.01474 -0.04909,0.03226 -0.05042,0.03895 -0.0014,0.0068 0.01716,0.0287 0.04195,0.0497 0.03933,0.03332 0.05699,0.04138 0.156094,0.0713 0.06145,0.01856 0.139263,0.04669 0.172902,0.06254 0.03364,0.01585 0.06362,0.02878 0.06661,0.02878 0.0031,0 0.01162,-0.01036 0.01918,-0.02303 0.01825,-0.03062 0.01735,-0.0825 -0.0023,-0.133793 -0.01541,-0.04021 -0.01553,-0.04383 -0.0029,-0.09388 0.0073,-0.02862 0.01827,-0.05398 0.02445,-0.05633 0.0061,-0.0023 0.01981,0.0037 0.03026,0.01341 0.01045,0.0097 0.02248,0.01557 0.02672,0.01298 0.01032,-0.0063 0.04948,-0.104087 0.04948,-0.123541 0,-0.0085 -0.0043,-0.0246 -0.0094,-0.03582 -0.0076,-0.01657 -0.0068,-0.02564 0.0041,-0.04824 0.01351,-0.02808 0.01812,-0.103445 0.0073,-0.11895 -0.0032,-0.0047 -0.03002,-0.02166 -0.05953,-0.03786 -0.02951,-0.0162 -0.05586,-0.03301 -0.05855,-0.03731 -0.0063,-0.01021 0.01101,-0.09321 0.02078,-0.09919 0.02217,-0.01357 0.07003,-0.004 0.115504,0.02321 0.06939,0.04147 0.09993,0.03662 0.09993,-0.01592 0,-0.05446 -0.04748,-0.0859 -0.292029,-0.193353 -0.106991,-0.047 -0.121731,-0.05584 -0.135834,-0.08141 -0.01837,-0.03333 -0.02915,-0.03727 -0.102331,-0.03741 -0.04998,-1.01e-4 -0.05952,-0.0031 -0.124013,-0.03918 -0.05214,-0.02915 -0.08777,-0.05732 -0.140451,-0.111056 -0.03882,-0.0396 -0.123429,-0.113808 -0.18802,-0.164905 -0.0646,-0.0511 -0.119833,-0.09631 -0.122763,-0.100483 -0.003,-0.0043 -0.0078,-0.03218 -0.01088,-0.06224 -0.0047,-0.04533 -0.01021,-0.06072 -0.03291,-0.09021 -0.01505,-0.01955 -0.02564,-0.03833 -0.02354,-0.04172 0.0079,-0.01277 0.10835,-0.05832 0.119321,-0.05416 0.0062,0.0024 0.02268,0.02336 0.03639,0.04659 0.01371,0.02322 0.02951,0.04803 0.03507,0.05509 0.01783,0.02262 0.07147,0.05454 0.09166,0.05454 0.01365,0 0.04091,0.02038 0.09042,0.06759 0.07835,0.07472 0.121081,0.09852 0.177319,0.09878 0.02621,1.2e-4 0.07534,0.01451 0.163399,0.04785 0.135306,0.05123 0.205431,0.08582 0.364823,0.180003 l 0.101665,0.06008 0.02031,0.06036 c 0.01117,0.03319 0.03563,0.100964 0.05435,0.150602 0.03199,0.08481 0.03652,0.09212 0.07507,0.121169 0.03206,0.02416 0.04315,0.03851 0.05083,0.06563 0.0147,0.05205 0.04974,0.08078 0.12467,0.102228 0.06696,0.01917 0.06946,0.02213 0.05548,0.06607 -0.0047,0.01454 -0.0015,0.0179 0.02131,0.02282 0.0147,0.0032 0.03856,0.01602 0.05301,0.02854 0.01445,0.01254 0.03146,0.02278 0.0378,0.02278 0.0154,0 0.03594,0.04083 0.03594,0.0715 0,0.01358 0.0076,0.04237 0.01704,0.06394 0.01273,0.02934 0.02232,0.04042 0.038,0.04392 0.07265,0.01622 0.0687,0.01344 0.07297,0.05109 0.0039,0.03336 0.0053,0.03522 0.02911,0.03522 0.02299,0 0.05782,0.02709 0.05865,0.04561 4.95e-4,0.01114 0.02208,0.0061 0.04291,-0.01028 0.01143,-0.009 0.02453,-0.02944 0.02909,-0.04561 0.0077,-0.02744 0.0061,-0.03243 -0.02373,-0.07555 -0.01761,-0.02539 -0.03201,-0.04949 -0.03201,-0.05354 0,-0.0041 0.0102,-0.0074 0.02267,-0.0074 0.01247,0 0.02491,-0.0022 0.02763,-0.005 0.0028,-0.0028 -0.0075,-0.02118 -0.02287,-0.04104 -0.01532,-0.01986 -0.02656,-0.03997 -0.02501,-0.04464 0.0016,-0.0047 0.02155,-0.0096 0.04444,-0.01092 0.03991,-0.0023 0.04153,-0.0033 0.03937,-0.0238 -0.0019,-0.01811 0.0012,-0.02178 0.01977,-0.0239 0.0121,-0.0014 0.02201,-0.0054 0.02201,-0.0088 0,-0.0034 -0.01744,-0.02906 -0.03878,-0.05698 -0.03756,-0.04916 -0.04093,-0.05144 -0.107247,-0.0728 -0.0769,-0.02479 -0.110357,-0.0462 -0.104874,-0.06715 0.0024,-0.0093 -0.01989,-0.04031 -0.06581,-0.09197 -0.06007,-0.06754 -0.06999,-0.0828 -0.07343,-0.113015 -0.0021,-0.01921 -9.25e-4,-0.03492 0.0029,-0.03492 0.0038,0 0.02399,0.01682 0.04506,0.03738 0.03787,0.03696 0.03855,0.03724 0.06028,0.02471 0.01499,-0.0087 0.02763,-0.01056 0.03973,-0.0061 0.02843,0.01069 0.02815,-0.0033 -0.0015,-0.06449 -0.01527,-0.03157 -0.02518,-0.06193 -0.02204,-0.06746 0.0031,-0.0056 0.01973,-0.02105 0.03683,-0.0345 0.03014,-0.02371 0.03361,-0.02447 0.112515,-0.02447 0.09097,0 0.0912,1.25e-4 0.146345,0.07709 0.02198,0.03069 0.02328,0.03605 0.01561,0.06453 -0.0076,0.02849 -0.0062,0.03433 0.01705,0.07033 0.02651,0.04094 0.03064,0.05728 0.01776,0.07006 -0.0043,0.0043 -0.0051,0.01163 -0.002,0.01654 0.0084,0.01327 0.06423,0.03452 0.09066,0.03452 0.02036,0 0.02303,0.0029 0.02303,0.02439 0,0.01841 -0.0078,0.03135 -0.03201,0.05286 -0.03519,0.03132 -0.03954,0.04838 -0.01736,0.06827 0.0179,0.01606 0.02537,0.0163 0.05371,0.0018 0.02031,-0.01045 0.02545,-0.0098 0.06155,0.0084 0.03886,0.01952 0.03931,0.02018 0.03422,0.05 -0.005,0.02922 -0.0041,0.03088 0.03023,0.05077 0.01945,0.0113 0.05455,0.02803 0.078,0.0372 0.02345,0.0092 0.05408,0.02662 0.06806,0.0388 0.02147,0.01869 0.03529,0.02299 0.08854,0.02765 0.05069,0.0044 0.06939,0.0099 0.09511,0.02775 0.01761,0.01224 0.04354,0.02446 0.05765,0.02715 0.02257,0.0043 0.02857,0.0014 0.05,-0.0244 0.01849,-0.02223 0.02436,-0.03722 0.02436,-0.06221 0,-0.04111 0.0094,-0.04887 0.06743,-0.05563 0.04366,-0.0051 0.05051,-0.0034 0.116845,0.02884 l 0.07048,0.03422 0.03665,-0.01387 c 0.05043,-0.01909 0.08883,-0.06705 0.102415,-0.127904 0.01003,-0.04489 0.01254,-0.04833 0.05039,-0.06887 0.06112,-0.03318 0.06784,-0.03076 0.06784,0.02449 0,0.04885 6.96e-4,0.05033 0.06611,0.140324 0.01603,0.02204 0.04035,0.07023 0.05405,0.107065 0.0284,0.07636 0.08526,0.276101 0.09164,0.321888 0.01329,0.09558 0.03576,0.293689 0.03993,0.351812 0.0026,0.03707 0.0068,0.08428 0.0093,0.104909 l 0.0045,0.03748 -0.0745,0.04776 c -0.04099,0.02627 -0.07793,0.04776 -0.08212,0.04776 -0.0043,0 -0.01365,-0.0055 -0.02105,-0.01207 -0.01286,-0.01154 -0.106064,-0.0351 -0.139987,-0.03538 -0.01109,-9.6e-5 -0.0362,0.02536 -0.08002,0.08113 -0.0351,0.0447 -0.07596,0.09466 -0.09078,0.111032 l -0.02693,0.02977 h -0.2587 -0.258701 l -0.121513,-0.0287 c -0.120904,-0.02855 -0.121683,-0.02888 -0.156085,-0.06542 l -0.03458,-0.03673 -0.114337,0.0022 -0.114338,0.0022 -0.02681,0.02951 c -0.03689,0.04058 -0.09034,0.116387 -0.117208,0.166191 l -0.02239,0.04151 0.0326,0.07349 c 0.01792,0.04041 0.03991,0.09194 0.04883,0.114483 l 0.01625,0.041 -0.03534,0.07197 c -0.03443,0.07012 -0.06643,0.103692 -0.09894,0.10378 -0.0061,0 -0.06554,-0.02468 -0.132177,-0.05486 L 31.177893,18.1043 31.047662,18.092 c -0.07163,-0.0068 -0.133467,-0.01427 -0.137425,-0.01668 -0.004,-0.0024 -0.02936,-0.04558 -0.05643,-0.09591 -0.05351,-0.09944 -0.0557,-0.101267 -0.132151,-0.110725 -0.02612,-0.0032 -0.0727,-0.01486 -0.103492,-0.02584 -0.05293,-0.01888 -0.06589,-0.02005 -0.236025,-0.02151 -0.225762,-0.002 -0.283791,-0.01437 -0.397155,-0.08528 -0.06285,-0.03932 -0.07352,-0.04923 -0.08161,-0.07598 -0.01514,-0.05007 -0.01175,-0.06133 0.04271,-0.142054 0.05055,-0.07494 0.05201,-0.07851 0.05201,-0.128087 v -0.051 l -0.06015,-0.05493 c -0.03308,-0.03022 -0.06332,-0.06083 -0.06718,-0.06802 -0.0046,-0.0085 -8.1e-5,-0.04056 0.01278,-0.09111 0.01089,-0.04291 0.01783,-0.07999 0.01542,-0.08237 -0.0024,-0.0024 -0.02302,0.0036 -0.0458,0.01331 l -0.04141,0.01765 -0.02885,-0.03211 c -0.01949,-0.02169 -0.04551,-0.03866 -0.08023,-0.05227 -0.02826,-0.01108 -0.05204,-0.02016 -0.05286,-0.02016 -8.06e-4,0 -0.02346,0.02107 -0.05033,0.04682 -0.06746,0.06463 -0.09996,0.07583 -0.202062,0.06966 -0.05328,-0.0032 -0.0868,-0.0018 -0.100254,0.0043 -0.01926,0.0088 -0.05425,0.0039 -0.100452,-0.01374 -0.0092,-0.0035 -0.02736,0.0076 -0.05779,0.03488 -0.02448,0.02197 -0.05829,0.04693 -0.07515,0.05544 l -0.03064,0.01549 -0.0556,-0.02344 c -0.05253,-0.02214 -0.05956,-0.02313 -0.127599,-0.01808 -0.04764,0.0035 -0.119385,0.01836 -0.212023,0.04378 -0.07702,0.02113 -0.179241,0.0444 -0.227184,0.05171 l -0.08717,0.0133 -0.08085,0.05953 c -0.04448,0.03275 -0.102451,0.07888 -0.128854,0.102537 -0.03696,0.03313 -0.07055,0.05277 -0.146083,0.08546 -0.05395,0.02334 -0.129265,0.05187 -0.167382,0.0634 l -0.06931,0.02096 -0.09664,-0.01317 c -0.05316,-0.0074 -0.155583,-0.016 -0.227619,-0.01943 l -0.130975,-0.0062 -0.02104,-0.02668 c -0.04937,-0.06263 -0.05087,-0.06361 -0.101634,-0.06819 l -0.04841,-0.0044 -0.05738,0.110908 c -0.05198,0.100465 -0.05861,0.118661 -0.07041,0.193287 -0.0071,0.04532 -0.01653,0.0867 -0.02083,0.09196 -0.0044,0.0053 -0.04962,0.03154 -0.100746,0.05839 -0.05112,0.02684 -0.135879,0.07581 -0.188348,0.108838 -0.112015,0.07049 -0.133416,0.09741 -0.171774,0.216108 -0.01343,0.04156 -0.03759,0.103993 -0.05367,0.138736 -0.0161,0.03474 -0.04015,0.09279 -0.05349,0.129 l -0.02424,0.06584 0.0259,0.05886 0.0259,0.05887 -0.02592,0.06373 c -0.02221,0.05464 -0.03636,0.07469 -0.099,0.140378 -0.04018,0.04215 -0.114647,0.112837 -0.165452,0.15708 -0.09023,0.07857 -0.0946,0.08124 -0.18802,0.114932 -0.0526,0.01897 -0.124012,0.0451 -0.158685,0.05806 l -0.06304,0.02358 -0.03843,0.0814 c -0.02274,0.04815 -0.06875,0.123026 -0.112623,0.183308 -0.04079,0.05605 -0.109026,0.158089 -0.151614,0.226758 -0.06514,0.105016 -0.07831,0.131863 -0.083,0.168984 -0.0056,0.04397 -0.0058,0.04425 -0.05893,0.07837 -0.02936,0.01884 -0.06279,0.0445 -0.07428,0.05705 -0.0223,0.02433 -0.227731,0.412605 -0.289962,0.548031 -0.02049,0.0446 -0.04806,0.09794 -0.06121,0.118533 -0.02231,0.03487 -0.03073,0.07256 -0.01886,0.08433 0.0029,0.0029 0.01553,-0.0023 0.02829,-0.01132 0.0306,-0.0216 0.04252,-0.01559 0.05331,0.02687 0.0049,0.01947 0.02522,0.05596 0.04542,0.08175 0.03923,0.05008 0.03909,0.04967 0.05184,0.137241 0.02413,0.165562 -0.08513,0.753557 -0.169731,0.913545 -0.04388,0.08296 -0.120473,0.173968 -0.146426,0.173968 -0.0109,0 -0.01982,0.0039 -0.01982,0.0086 0,0.0047 0.03961,0.06331 0.08801,0.130252 0.04841,0.06693 0.08801,0.127684 0.08801,0.134978 0,0.0074 -0.0068,0.02273 -0.01509,0.03431 -0.01817,0.02532 -0.0328,0.07476 -0.03286,0.110968 -8e-5,0.03697 0.04661,0.115917 0.0976,0.165067 0.03085,0.02974 0.06118,0.04878 0.111493,0.06995 0.0771,0.03248 0.07889,0.0352 0.07889,0.120155 0,0.03806 0.0032,0.04612 0.03001,0.07567 0.03645,0.04017 0.118475,0.100751 0.210525,0.155503 l 0.06852,0.04075 0.08951,0.136448 c 0.08011,0.122117 0.08951,0.14017 0.08951,0.171874 0,0.02725 0.0095,0.05345 0.04118,0.113497 0.03273,0.06203 0.03925,0.08039 0.03179,0.0893 -0.01393,0.01663 0.05216,0.06827 0.129579,0.101238 0.03768,0.01605 0.08664,0.04607 0.123187,0.07553 0.04046,0.03262 0.08887,0.0615 0.145479,0.08678 0.151184,0.06752 0.238587,0.122632 0.298106,0.187943 0.05193,0.05699 0.05593,0.05957 0.16189,0.103736 0.05975,0.02493 0.142745,0.05753 0.184433,0.07249 l 0.0758,0.02719 0.11035,-0.02381 c 0.06069,-0.01309 0.20036,-0.05134 0.31037,-0.08499 l 0.200021,-0.06119 0.212023,6.5e-4 c 0.205118,6.26e-4 0.214496,0.0014 0.288029,0.02203 l 0.07601,0.02138 0.145147,-0.05455 c 0.108134,-0.04064 0.16685,-0.06806 0.230249,-0.107508 0.07526,-0.04682 0.09392,-0.05475 0.161309,-0.0685 0.06818,-0.0139 0.081,-0.01942 0.121787,-0.05247 0.05515,-0.04469 0.06781,-0.05017 0.207596,-0.08994 0.14866,-0.04231 0.347381,-0.06636 0.459877,-0.05564 0.100877,0.0096 0.141461,0.02937 0.192529,0.09381 0.03446,0.04349 0.03875,0.05367 0.04707,0.112018 0.0084,0.05923 0.01148,0.06627 0.0394,0.09128 0.04784,0.04284 0.06684,0.04264 0.203542,-0.0022 0.251744,-0.08257 0.309721,-0.0977 0.364475,-0.09514 0.04635,0.0021 0.05205,0.0044 0.06126,0.02348 0.01134,0.02354 0.06627,0.04631 0.11167,0.04631 0.01636,0 0.02861,0.0046 0.03138,0.01178 0.0025,0.0066 5.59e-4,0.07718 -0.0044,0.157084 -0.0071,0.11658 -0.01376,0.164031 -0.03356,0.240029 -0.0164,0.06292 -0.02328,0.105191 -0.02049,0.125885 0.0029,0.02138 -4.39e-4,0.04015 -0.01053,0.05976 -0.0081,0.01573 -0.02726,0.06417 -0.04254,0.107628 -0.02519,0.07151 -0.09358,0.202475 -0.12241,0.234416 -0.01,0.01108 -0.0068,0.02279 0.02544,0.09517 0.02027,0.0454 0.04053,0.08695 0.04499,0.09234 0.0046,0.0054 0.06873,0.04813 0.142784,0.09495 0.109844,0.06946 0.137977,0.09104 0.152678,0.117093 0.0099,0.01757 0.03299,0.05513 0.05126,0.08349 0.0493,0.07645 0.07638,0.154989 0.08721,0.252879 0.0063,0.05729 0.01501,0.09499 0.02711,0.118012 0.01197,0.02275 0.02164,0.06429 0.02951,0.126894 0.01511,0.12013 0.01618,0.111905 -0.01616,0.125299 -0.0319,0.01321 -0.03071,0.0091 -0.02817,0.09863 0.0015,0.05046 0.007,0.08014 0.02231,0.117979 0.01908,0.04731 0.01971,0.05318 0.01,0.0912 -0.03193,0.124553 -0.07062,0.196144 -0.124157,0.229716 -0.03427,0.02149 -0.09265,0.07954 -0.182589,0.18154 -0.03665,0.04156 -0.0549,0.07249 -0.08524,0.144528 -0.02661,0.06317 -0.05474,0.113201 -0.09048,0.161001 -0.02852,0.03815 -0.06668,0.09872 -0.08478,0.134608 -0.03222,0.06389 -0.03291,0.06697 -0.03291,0.147814 0,0.07577 0.002,0.08689 0.02485,0.135207 0.01367,0.02895 0.03145,0.07809 0.03952,0.10918 0.0086,0.03343 0.0263,0.07327 0.04312,0.09748 l 0.02844,0.04095 -0.01667,0.04898 c -0.01275,0.03744 -0.02523,0.05644 -0.05292,0.0806 l -0.03622,0.0316 0.0041,0.05369 c 0.0037,0.05003 0.002,0.05774 -0.026,0.113174 -0.01648,0.03272 -0.03251,0.07334 -0.03559,0.09031 -0.0051,0.02788 -0.0031,0.03356 0.02195,0.05948 0.02853,0.02966 0.02831,0.02878 0.03982,0.159527 0.0016,0.01728 -0.0062,0.02389 -0.06047,0.05156 -0.05492,0.02801 -0.06326,0.03521 -0.07128,0.06151 -0.005,0.01639 -0.0068,0.032 -0.0042,0.03471 0.0028,0.0028 0.01861,0.005 0.03529,0.0051 0.02371,1.35e-4 0.08138,-0.02617 0.264822,-0.120818 0.231053,-0.119217 0.309641,-0.151854 0.172951,-0.07183 -0.395138,0.231351 -0.964098,0.498553 -1.445111,0.67867 -0.90316,0.338193 -1.824518,0.536461 -2.838745,0.610865 -0.16197,0.01188 -0.911533,0.02171 -1.084112,0.0142 z M 16.829885,19.137168 c 0.02177,-0.01952 0.01858,-0.03154 -0.02638,-0.09943 -0.02741,-0.0414 -0.04608,-0.06193 -0.05626,-0.06193 -0.02569,0 -0.07073,0.02228 -0.07073,0.03498 0,0.02573 0.03447,0.101463 0.05462,0.119982 0.02545,0.0234 0.07614,0.02667 0.09877,0.0064 z M 16.644456,18.89515 c 2.3e-5,-0.0074 -0.01256,-0.04287 -0.02797,-0.07906 -0.0263,-0.06184 -0.02801,-0.07111 -0.02801,-0.153515 0,-0.09939 0.0064,-0.08466 -0.08991,-0.204904 -0.03437,-0.04288 -0.07148,-0.09554 -0.08244,-0.11698 -0.03849,-0.07528 -0.06422,-0.04218 -0.05713,0.07348 0.0054,0.08705 0.0056,0.0866 -0.05455,0.09736 -0.01761,0.0031 -0.0365,0.0094 -0.04202,0.01391 -0.01833,0.01503 -0.01034,0.05006 0.02412,0.105752 0.01876,0.03034 0.05002,0.08281 0.06944,0.116615 0.01941,0.03382 0.03949,0.06146 0.0446,0.06146 0.0051,0 0.01378,-0.0098 0.01926,-0.02169 l 0.01,-0.02168 0.0229,0.02764 c 0.02033,0.02454 0.02472,0.02652 0.03922,0.01771 0.009,-0.0055 0.01961,-0.0099 0.02364,-0.0099 0.01434,0 0.0809,0.098 0.0809,0.11913 0,0.01154 0.0026,0.02362 0.0059,0.02683 0.0076,0.0076 0.04202,-0.03494 0.04207,-0.05214 z m -0.308848,-0.709109 c 0.01064,-0.02751 0.0035,-0.111553 -0.02272,-0.269673 -0.01788,-0.107564 -0.02946,-0.209089 -0.03291,-0.288805 -0.003,-0.06761 -0.01033,-0.147251 -0.01642,-0.17698 -0.0061,-0.02974 -0.01108,-0.08226 -0.01108,-0.116754 0,-0.07815 -0.02494,-0.142266 -0.06292,-0.161734 -0.03576,-0.01834 -0.04474,-0.01578 -0.06827,0.01946 -0.03906,0.05849 -0.0357,0.103204 0.0054,0.07121 0.02215,-0.01727 0.02617,-0.01492 0.04808,0.02791 0.01075,0.02101 0.01085,0.02726 7.84e-4,0.05099 -0.01002,0.02361 -0.0099,0.03522 7.49e-4,0.09167 0.0068,0.03554 0.01229,0.101823 0.01238,0.147283 9e-5,0.04546 0.0039,0.105854 0.0082,0.134207 0.0045,0.02834 0.01111,0.09973 0.01482,0.158619 l 0.0068,0.107065 -0.02749,0.03032 -0.02749,0.03031 0.0205,0.02719 c 0.01129,0.01495 0.03011,0.03988 0.04181,0.0554 0.02193,0.02904 0.07962,0.0739 0.09585,0.07454 0.005,1.9e-4 0.01133,-0.0053 0.01401,-0.01219 z m 10.632048,-3.624912 c 0.03152,-0.03559 0.09679,-0.05652 0.134901,-0.04326 0.02469,0.0086 0.02841,0.0078 0.04303,-0.0096 0.0088,-0.01046 0.0196,-0.02515 0.024,-0.03263 0.01185,-0.02016 0.108072,-0.03798 0.171988,-0.03186 0.03666,0.0035 0.06857,9.26e-4 0.108039,-0.0085 0.03081,-0.0074 0.09745,-0.01607 0.148096,-0.01922 0.08225,-0.0052 0.09807,-0.0087 0.148015,-0.03286 0.04068,-0.01971 0.05661,-0.03182 0.0584,-0.04442 0.0039,-0.02643 -0.02181,-0.03558 -0.0824,-0.0294 -0.0675,0.0069 -0.06848,-0.0043 -0.0052,-0.05874 0.04356,-0.03755 0.04758,-0.04394 0.05675,-0.09014 0.01118,-0.0563 0.01035,-0.05761 -0.06182,-0.09955 -0.03306,-0.0192 -0.03772,-0.01981 -0.09231,-0.01222 -0.03163,0.0044 -0.0605,0.0053 -0.06418,0.002 -0.0036,-0.0033 -9.25e-4,-0.01699 0.006,-0.03037 0.0069,-0.01337 0.01268,-0.02909 0.01268,-0.03491 0,-0.01964 -0.06692,-0.06724 -0.103077,-0.07329 -0.03505,-0.0059 -0.03643,-0.0087 -0.02179,-0.04378 0.003,-0.0071 -0.0082,-0.03031 -0.02773,-0.0575 -0.03131,-0.04368 -0.03416,-0.04561 -0.06787,-0.04561 -0.0407,0 -0.04678,-0.0069 -0.07565,-0.08589 -0.01592,-0.04359 -0.02575,-0.05637 -0.07463,-0.09715 -0.05016,-0.04186 -0.06024,-0.04701 -0.0928,-0.04752 -0.02009,-3.06e-4 -0.04359,-0.0033 -0.05221,-0.0067 -0.01476,-0.0058 -0.01439,-0.0069 0.006,-0.02014 0.02121,-0.01376 0.02136,-0.0145 0.0082,-0.03651 -0.0133,-0.02231 -0.01318,-0.02268 0.01937,-0.05768 0.02083,-0.0224 0.03796,-0.05161 0.04708,-0.08029 0.02201,-0.0692 0.01929,-0.07101 -0.113781,-0.07575 -0.109674,-0.0039 -0.111198,-0.0043 -0.113857,-0.02284 -0.002,-0.01418 0.0068,-0.02751 0.0355,-0.05364 0.02338,-0.02127 0.03528,-0.03755 0.0307,-0.04194 -0.01845,-0.01769 -0.170967,-0.032 -0.193003,-0.01812 -0.0052,0.0033 -0.0106,0.02366 -0.01199,0.04527 -0.0024,0.03861 -0.0031,0.0395 -0.03767,0.05138 -0.02949,0.01018 -0.0402,0.01936 -0.05426,0.04654 -7.67e-4,0.0015 -0.01415,-0.0019 -0.02971,-0.0075 -0.02517,-0.0091 -0.03017,-0.0085 -0.045,0.0048 -0.01255,0.01125 -0.01609,0.02261 -0.01428,0.04586 0.0022,0.02902 0.0048,0.03194 0.04401,0.04829 0.02289,0.0095 0.04385,0.01959 0.04656,0.02227 0.0028,0.0028 4.95e-4,0.0195 -0.0049,0.03739 -0.01343,0.04448 -1.43e-4,0.07618 0.02896,0.06905 0.01088,-0.0026 0.02906,-0.0071 0.0404,-0.0099 l 0.02064,-0.0051 -0.0056,0.06449 c -0.0064,0.07341 0.0021,0.08368 0.02813,0.03331 0.0088,-0.01714 0.01983,-0.03351 0.02445,-0.03634 0.01196,-0.0074 0.06971,0.05235 0.07645,0.07904 0.0042,0.01641 -8e-5,0.03388 -0.01587,0.06584 -0.01183,0.02393 -0.01971,0.0453 -0.01749,0.04749 0.0022,0.0022 0.04731,-0.0043 0.100187,-0.01436 0.05288,-0.01011 0.09831,-0.01624 0.100947,-0.0136 0.0026,0.0026 -8.58e-4,0.01562 -0.0078,0.02888 -0.0069,0.01329 -0.01259,0.02949 -0.01259,0.03603 0,0.0066 0.02303,0.02817 0.05116,0.04809 0.05003,0.0354 0.05146,0.03743 0.06487,0.09159 0.01719,0.06948 0.01367,0.08174 -0.02007,0.07008 -0.01825,-0.0063 -0.03397,-0.0061 -0.05973,0.0012 -0.02231,0.0062 -0.05255,0.0077 -0.0836,0.0041 -0.04734,-0.0055 -0.04865,-0.0051 -0.04861,0.01304 1.11e-4,0.04676 0.01595,0.07691 0.0502,0.0956 0.02904,0.01584 0.03411,0.02248 0.03622,0.04766 0.0022,0.02679 -3.84e-4,0.03103 -0.03132,0.0504 -0.01858,0.01163 -0.04939,0.02642 -0.06847,0.03287 -0.04117,0.01391 -0.04357,0.02666 -0.0095,0.05071 0.01902,0.01343 0.04148,0.01907 0.09161,0.02301 0.05296,0.0043 0.07293,0.0095 0.09864,0.02638 0.01774,0.01163 0.03468,0.02115 0.03766,0.02115 0.003,0 0.01722,-0.009 0.03164,-0.01983 0.01442,-0.01089 0.02828,-0.01983 0.03075,-0.01983 0.0085,0 0.0047,0.02452 -0.0076,0.04798 -0.01145,0.02197 -0.01515,0.0234 -0.06019,0.0234 h -0.04799 l -0.09982,0.09629 c -0.0549,0.05296 -0.09982,0.100596 -0.09982,0.105855 0,0.01141 0.03286,0.02773 0.04345,0.02155 0.0042,-0.0024 0.01789,-0.01613 0.03064,-0.03054 z M 26.47465,14.252556 c 0.100315,-0.05334 0.159324,-0.07499 0.222887,-0.08172 l 0.04801,-0.0051 0.0087,-0.07931 c 0.0078,-0.07139 0.0071,-0.08387 -0.0067,-0.124845 -0.0085,-0.02505 -0.02416,-0.0583 -0.03485,-0.07392 -0.01068,-0.01561 -0.01735,-0.03169 -0.01482,-0.03575 0.0025,-0.0041 0.01861,-0.0074 0.03572,-0.0074 0.02605,0 0.03454,-0.0045 0.05206,-0.0272 0.03392,-0.04409 0.02964,-0.07148 -0.01828,-0.116763 -0.02236,-0.02115 -0.04723,-0.03843 -0.05526,-0.03842 -0.0081,1.5e-5 -0.03933,0.0087 -0.06958,0.01911 -0.05197,0.01804 -0.05711,0.01845 -0.09439,0.0075 -0.02168,-0.0064 -0.05636,-0.01052 -0.07704,-0.0093 l -0.03763,0.0024 -0.0023,0.06147 -0.0023,0.06146 h -0.07502 c -0.10469,0 -0.115673,0.006 -0.08433,0.04542 0.02278,0.0287 0.01997,0.04487 -0.012,0.06905 -0.0154,0.01164 -0.02801,0.02605 -0.02801,0.03202 0,0.0061 0.01854,0.01692 0.04201,0.02462 0.07651,0.02504 0.09257,0.04338 0.062,0.0708 -0.02261,0.02029 -0.02027,0.02618 0.01601,0.04058 0.01761,0.007 0.03201,0.01709 0.03201,0.02247 0,0.0054 -0.02509,0.01953 -0.05577,0.03147 -0.04369,0.01699 -0.06101,0.02877 -0.08002,0.05437 -0.02881,0.03883 -0.02893,0.04 -0.0075,0.07422 l 0.01665,0.02671 h 0.06852 c 0.06785,0 0.06932,-4.27e-4 0.15134,-0.04404 z m -3.647106,-1.682067 c 0.01035,-0.0028 0.03233,-0.0252 0.05017,-0.05126 0.02077,-0.03032 0.05316,-0.06187 0.09361,-0.09117 0.03401,-0.02465 0.09244,-0.07625 0.129846,-0.114686 0.06795,-0.06983 0.06807,-0.0699 0.148014,-0.0953 0.04401,-0.01398 0.103756,-0.03716 0.132782,-0.05152 0.05506,-0.02727 0.06932,-0.04501 0.136384,-0.169909 0.01683,-0.03134 0.02307,-0.03621 0.05124,-0.03995 0.01764,-0.0023 0.04089,-0.01037 0.05164,-0.01785 0.01654,-0.01149 0.03994,-0.01358 0.152291,-0.01358 0.125309,0 0.136512,-0.0013 0.200242,-0.02285 0.110911,-0.03755 0.180214,-0.06704 0.326326,-0.138889 0.07635,-0.03755 0.144029,-0.06826 0.150414,-0.06826 0.0063,0 0.02265,0.0056 0.03616,0.01258 0.03505,0.01796 0.113091,0.0056 0.382699,-0.06031 0.121013,-0.02962 0.24065,-0.058 0.265862,-0.06306 0.03436,-0.0069 0.04969,-0.01455 0.06121,-0.0305 0.0084,-0.01171 0.03374,-0.03185 0.05617,-0.04476 0.04796,-0.0276 0.04846,-0.03051 0.0212,-0.123392 -0.01633,-0.05572 -0.02493,-0.07164 -0.052,-0.09643 -0.02954,-0.02704 -0.03244,-0.0332 -0.03244,-0.06909 v -0.03941 l 0.0459,-0.0094 c 0.04342,-0.009 0.0503,-0.0081 0.127498,0.01669 0.09318,0.02986 0.0986,0.02853 0.11456,-0.02795 0.01134,-0.04016 0.01872,-0.0476 0.0819,-0.08278 0.02521,-0.01403 0.04807,-0.02907 0.05077,-0.03343 0.0093,-0.0148 -0.01422,-0.05395 -0.04947,-0.08259 -0.03521,-0.0286 -0.04383,-0.04343 -0.02515,-0.04325 0.02452,2.46e-4 0.150016,-0.04324 0.150016,-0.05198 0,-0.0054 -0.03441,-0.03156 -0.07649,-0.05823 -0.04207,-0.02668 -0.0744,-0.05183 -0.07186,-0.0559 0.0025,-0.0041 0.0243,-0.01145 0.04834,-0.01639 0.02406,-0.005 0.04627,-0.0131 0.0494,-0.0181 0.0031,-0.0051 0.01319,-0.036 0.02238,-0.06887 l 0.0167,-0.05976 0.06377,-0.004 c 0.0625,-0.0039 0.104476,-0.01771 0.09588,-0.03151 -0.0093,-0.01481 -0.06176,-0.02461 -0.165655,-0.03092 -0.104169,-0.0063 -0.10954,-0.0075 -0.146207,-0.03252 -0.07642,-0.05212 -0.149919,-0.0762 -0.27834,-0.0912 -0.10893,-0.01273 -0.120519,-0.01281 -0.150177,-0.0011 -0.02697,0.0107 -0.07,0.01275 -0.267695,0.01275 -0.301979,0 -0.429246,0.01468 -0.718152,0.08283 -0.05019,0.01184 -0.109573,0.02028 -0.142745,0.02028 -0.05173,0 -0.06299,0.0032 -0.126079,0.0357 -0.0381,0.01964 -0.08367,0.04793 -0.101281,0.06288 -0.04108,0.0349 -0.03398,0.04878 0.03648,0.07132 0.04028,0.01288 0.05385,0.02133 0.06217,0.03871 0.01239,0.02587 0.0086,0.03339 -0.05799,0.114614 -0.03401,0.0415 -0.04761,0.0518 -0.08322,0.06308 -0.03579,0.01133 -0.04862,0.02113 -0.08071,0.06159 -0.03053,0.03851 -0.05158,0.0552 -0.105457,0.08363 -0.06658,0.03513 -0.06734,0.03588 -0.06974,0.06848 -0.0023,0.03147 -0.0012,0.03337 0.026,0.04226 0.07865,0.02573 -0.02082,0.07902 -0.148022,0.07932 -0.04861,1.15e-4 -0.05427,0.002 -0.07752,0.0259 -0.02658,0.02731 -0.04519,0.06589 -0.03765,0.07799 0.0024,0.004 0.03852,0.0073 0.08007,0.0073 0.04154,0 0.07554,0.003 0.07554,0.0065 0,0.0036 -0.0297,0.02124 -0.066,0.03931 -0.05553,0.02762 -0.07651,0.03366 -0.132189,0.038 -0.05389,0.0042 -0.07798,0.01083 -0.129643,0.03558 -0.05704,0.02734 -0.06547,0.03436 -0.08337,0.06939 -0.014,0.02739 -0.02772,0.04216 -0.04615,0.04974 -0.03366,0.01381 -0.127264,0.09358 -0.142,0.121009 -0.01,0.01858 -0.0097,0.02275 0.002,0.03563 0.0074,0.008 0.01331,0.01797 0.01331,0.0221 0,0.0042 -0.02558,0.0324 -0.05687,0.06282 -0.04885,0.04751 -0.06302,0.06815 -0.100567,0.146509 -0.08892,0.185553 -0.0986,0.214355 -0.0986,0.293375 v 0.07112 l 0.034,0.01763 c 0.01871,0.0097 0.05202,0.01957 0.07401,0.02197 l 0.04001,0.0044 0.002,0.07138 c 0.0021,0.07591 0.0117,0.104944 0.0378,0.115433 0.0193,0.0078 0.09666,0.0093 0.122564,0.0024 z m 2.605861,-0.228218 c 0.160855,-0.04478 0.308893,-0.09383 0.324007,-0.107351 0.01415,-0.01267 0.04805,-0.08925 0.04805,-0.108574 0,-0.01429 -0.07069,-0.119576 -0.08358,-0.124477 -0.0055,-0.002 -0.03683,-0.0083 -0.06971,-0.01372 -0.05913,-0.0099 -0.0601,-0.0097 -0.09113,0.01117 -0.03654,0.02462 -0.04875,0.02522 -0.17492,0.0089 -0.05204,-0.0068 -0.09664,-0.01028 -0.09913,-0.0078 -0.0024,0.0024 0.0069,0.0162 0.02093,0.03052 0.014,0.01432 0.02544,0.02854 0.02544,0.0316 0,0.0031 -0.0298,0.0056 -0.06623,0.0056 -0.04757,0 -0.07134,0.0036 -0.08438,0.01261 -0.02727,0.01894 -0.03788,0.0096 -0.0492,-0.04328 -0.01761,-0.08223 -0.04801,-0.09443 -0.128263,-0.05144 -0.03078,0.01647 -0.05598,0.03431 -0.05598,0.03963 0,0.0085 0.04398,0.02824 0.102018,0.046 0.02284,0.007 0.0389,0.03448 0.02703,0.04624 -0.0047,0.0046 -0.03084,0.01239 -0.05818,0.01729 -0.02734,0.0048 -0.05091,0.0124 -0.05233,0.01665 -0.0015,0.0043 0.01721,0.01949 0.04144,0.03385 0.04611,0.02735 0.05301,0.04216 0.0323,0.06931 -0.02799,0.03669 -0.01165,0.04979 0.08775,0.07047 0.0308,0.0064 0.08121,0.02058 0.112011,0.0315 0.06426,0.02278 0.05549,0.02345 0.19202,-0.01456 z m 1.764184,-1.434593 c 0,-0.0057 -0.01801,-0.03569 -0.04001,-0.06665 -0.02201,-0.03096 -0.04001,-0.0607 -0.04001,-0.06609 0,-0.0138 0.07889,-0.0053 0.139824,0.01512 0.02629,0.0089 0.04929,0.01454 0.05109,0.01275 0.0018,-0.0018 -0.0026,-0.01218 -0.0098,-0.02309 -0.01334,-0.02018 -0.09702,-0.06267 -0.172068,-0.08739 -0.03856,-0.0127 -0.04079,-0.0149 -0.03895,-0.03862 0.002,-0.02479 9.25e-4,-0.02548 -0.06206,-0.04629 -0.07893,-0.02607 -0.112001,-0.02701 -0.206106,-0.0059 -0.04067,0.0091 -0.08922,0.01639 -0.107928,0.01615 -0.02234,-2.81e-4 -0.034,0.003 -0.034,0.0096 0,0.01399 0.04637,0.0562 0.08001,0.0728 0.0154,0.0076 0.04863,0.02911 0.07385,0.04777 0.02723,0.02015 0.07111,0.04231 0.108011,0.05453 0.03419,0.01133 0.09816,0.04194 0.142161,0.06805 0.0778,0.04613 0.116012,0.0584 0.116012,0.03722 z m 5.49657,15.660683 c 0,-0.0043 0.02354,-0.04436 0.0523,-0.08919 0.02877,-0.04482 0.07059,-0.117755 0.09294,-0.162066 0.04597,-0.09117 0.08647,-0.143239 0.234915,-0.302182 0.05727,-0.06132 0.138857,-0.156092 0.181312,-0.210618 0.04245,-0.05452 0.110173,-0.134535 0.150484,-0.177801 0.04031,-0.04327 0.125376,-0.144166 0.189031,-0.224225 0.108481,-0.136436 0.120029,-0.154377 0.184159,-0.286156 0.03763,-0.07733 0.09697,-0.211974 0.131856,-0.299213 0.06066,-0.15166 0.06502,-0.166963 0.09964,-0.348957 0.0392,-0.206111 0.09874,-0.424086 0.144449,-0.528906 0.01581,-0.03625 0.09092,-0.222944 0.166911,-0.414869 0.07598,-0.191928 0.183182,-0.45781 0.238199,-0.590852 0.05502,-0.13304 0.165484,-0.408687 0.24548,-0.61255 l 0.145445,-0.370659 0.07515,-0.340953 c 0.06436,-0.291983 0.0815,-0.386259 0.119268,-0.656391 0.03735,-0.267137 0.04539,-0.346137 0.05242,-0.515936 0.01111,-0.26823 0.01094,-0.300957 -0.0016,-0.28857 -0.0054,0.0054 -0.07523,0.147957 -0.155138,0.316839 -0.08236,0.174073 -0.150309,0.308063 -0.156906,0.309382 -0.0063,0.0013 -0.03429,-0.02168 -0.06196,-0.05102 l -0.05034,-0.05334 0.0049,-0.06795 0.0049,-0.06794 -0.03378,-0.06074 c -0.01857,-0.03342 -0.06689,-0.0982 -0.107349,-0.143969 -0.06707,-0.07587 -0.07661,-0.08369 -0.10801,-0.08853 -0.01894,-0.003 -0.0403,-0.0069 -0.04748,-0.009 -0.01281,-0.0036 -0.08487,-0.199434 -0.142676,-0.3878 l -0.02434,-0.07931 -0.06598,-0.05657 -0.06598,-0.05657 -0.07548,-0.228549 c -0.04152,-0.125701 -0.09101,-0.260183 -0.109991,-0.298849 l -0.03452,-0.07029 -0.06635,-0.03038 c -0.03649,-0.0167 -0.07033,-0.03522 -0.0752,-0.04114 -0.0049,-0.006 -0.01148,-0.05357 -0.0147,-0.105918 -0.0032,-0.05234 -0.0086,-0.1026 -0.01211,-0.111679 -0.0034,-0.0091 -0.08345,-0.125068 -0.177798,-0.257753 -0.334263,-0.470117 -0.479107,-0.684152 -0.474494,-0.701164 0.0023,-0.0088 0.0045,-0.02218 0.0045,-0.02982 7.9e-5,-0.0077 0.0047,-0.01384 0.01012,-0.01381 0.01541,9.5e-5 0.108046,0.147019 0.123672,0.196156 0.01142,0.03594 0.02167,0.05 0.05756,0.07895 0.0757,0.0611 0.135704,0.08402 0.125736,0.04801 -0.01023,-0.03696 -0.01474,-0.07733 -0.0086,-0.07733 0.02141,0 0.09073,0.05901 0.160419,0.136565 0.111305,0.123876 0.197756,0.244665 0.259281,0.362278 0.05125,0.09798 0.05259,0.09966 0.08595,0.107666 0.02954,0.0071 0.03943,0.01579 0.07745,0.06812 0.0486,0.06688 0.128173,0.251713 0.161954,0.376222 0.01065,0.03927 0.02284,0.08423 0.02706,0.09995 0.0062,0.02315 0.01819,0.03549 0.06305,0.06507 0.0449,0.02961 0.0654,0.05076 0.108483,0.112012 0.02922,0.04153 0.07482,0.113481 0.101335,0.159877 0.02652,0.04638 0.06091,0.104024 0.07643,0.12806 0.06031,0.09346 0.07581,0.147957 0.122356,0.430361 0.01443,0.08762 0.08464,0.34793 0.100824,0.373888 0.0073,0.01169 0.03465,0.0075 0.04998,-0.0078 0.01082,-0.01071 0.01735,-0.03738 0.02482,-0.10112 0.0089,-0.07582 0.01656,-0.102267 0.06191,-0.21295 0.127886,-0.312283 0.160812,-0.410286 0.190319,-0.566483 0.06966,-0.368769 0.07488,-0.418518 0.08041,-0.766414 l 0.0051,-0.317235 -0.04024,-0.347872 -0.04025,-0.347873 -0.05388,-0.09431 c -0.03795,-0.06644 -0.06483,-0.103467 -0.09096,-0.125313 -0.03384,-0.02827 -0.04048,-0.04013 -0.07561,-0.13479 -0.02119,-0.05709 -0.04161,-0.103785 -0.04539,-0.103785 -0.0087,0 -0.0096,-0.02027 0.0097,0.21066 l 0.01659,0.198762 -0.02038,0.0457 c -0.01182,0.02652 -0.02392,0.04352 -0.0288,0.04054 -0.01142,-0.007 -0.07629,-0.136921 -0.08313,-0.166522 -0.0031,-0.01309 -0.0108,-0.04232 -0.01725,-0.06496 -0.01169,-0.04096 -0.01194,-0.04118 -0.04967,-0.0461 -0.02086,-0.0028 -0.04401,-0.0074 -0.05143,-0.01037 -0.0074,-0.0031 -0.07675,-0.09066 -0.154016,-0.194809 l -0.140537,-0.189335 v -0.09332 c 0,-0.101666 6.08e-4,-0.102949 0.04858,-0.102949 0.0214,0 0.02645,0.0062 0.06286,0.07733 0.02302,0.045 0.05569,0.09417 0.07808,0.117586 0.04435,0.04637 0.165165,0.121171 0.206442,0.127811 l 0.02809,0.0045 v -0.08335 c 0,-0.08953 0.0062,-0.104844 0.04075,-0.09977 0.01425,0.0021 0.02256,0.01621 0.0434,0.07363 0.01417,0.03907 0.02953,0.07228 0.03412,0.07379 0.01323,0.0044 0.06314,-0.06616 0.08329,-0.11766 0.01012,-0.02584 0.02068,-0.04699 0.02348,-0.04699 0.0061,0 0.05579,0.176525 0.106701,0.378679 0.141564,0.562147 0.226333,1.095698 0.273743,1.723003 0.01113,0.14723 0.01414,0.285489 0.01433,0.658264 2.89e-4,0.550997 -0.0115,0.762131 -0.06816,1.221354 -0.187886,1.522717 -0.727261,2.961079 -1.592588,4.246989 -0.273629,0.406622 -0.571221,0.785957 -0.892839,1.138078 -0.119927,0.131304 -0.146447,0.157645 -0.146447,0.145454 z m -16.919254,-4.60657 c -0.07649,-0.315966 -0.156573,-0.826947 -0.193914,-1.237217 -0.03138,-0.344783 -0.03654,-0.475219 -0.03609,-0.912053 4.46e-4,-0.432367 0.0093,-0.640195 0.03972,-0.927913 0.0064,-0.06106 0.0118,-0.1146 0.01187,-0.118962 7.6e-5,-0.0044 0.0028,-0.0038 0.006,0.0012 0.0032,0.0051 0.0035,0.06569 6.75e-4,0.134824 -0.0086,0.207401 -0.0074,0.639252 0.002,0.79587 0.0087,0.142723 0.01001,0.150027 0.04816,0.268075 0.03206,0.09915 0.04726,0.133242 0.0831,0.186306 0.04032,0.05973 0.04388,0.06859 0.04388,0.110058 0,0.02481 -0.0093,0.102582 -0.02068,0.172825 l -0.02068,0.12772 0.02113,0.117178 c 0.02114,0.117153 0.02114,0.117199 0.0089,0.231718 -0.01469,0.138275 -0.02922,0.216046 -0.0561,0.300405 l -0.02025,0.06352 0.01625,0.117197 c 0.0089,0.06445 0.03239,0.224262 0.05213,0.355121 0.03833,0.254077 0.04372,0.337981 0.01373,0.214134 z"
       style="fill:#2d3090;stroke-width:0.00796579" />
  </g>
</svg>
