<?xml version="1.0" encoding="UTF-8" standalone="no"?>
<svg
   xmlns:dc="http://purl.org/dc/elements/1.1/"
   xmlns:cc="http://creativecommons.org/ns#"
   xmlns:rdf="http://www.w3.org/1999/02/22-rdf-syntax-ns#"
   xmlns:svg="http://www.w3.org/2000/svg"
   xmlns="http://www.w3.org/2000/svg"
   width="83.602135mm"
   height="12.674545mm"
   viewBox="0 0 83.602134 12.674545"
   version="1.1"
   id="svg822">
  <defs
     id="defs816" />
  <metadata
     id="metadata819">
    <rdf:RDF>
      <cc:Work
         rdf:about="">
        <dc:format>image/svg+xml</dc:format>
        <dc:type
           rdf:resource="http://purl.org/dc/dcmitype/StillImage" />
        <dc:title></dc:title>
      </cc:Work>
    </rdf:RDF>
  </metadata>
  <g
     style="stroke:#ffffff;stroke-opacity:1;stroke-width:0;stroke-miterlimit:4;stroke-dasharray:none"
     id="layer1"
     transform="matrix(0.36948435,0,0,0.36948435,4.4818154,-0.72488309)">
    <path
       style="opacity:0.97000002;fill:#000000;fill-opacity:1;stroke:#ffffff;stroke-width:0;stroke-miterlimit:4;stroke-dasharray:none;stroke-dashoffset:0;stroke-opacity:1"
       d="m 41.601489,21.508449 a 1.8814944,1.8008587 83.188449 0 0 -2.011328,-1.65472 1.8814944,1.8008587 83.188449 0 0 -1.435549,1.119495 l -1.529793,-0.23287 a 11.826549,11.826549 0 0 0 0.03622,-2.973287 11.826549,11.826549 0 0 0 -0.147689,-0.902929 l 1.003243,-0.245266 a 1.2632904,1.2632904 0 0 0 1.214433,0.576317 1.2632904,1.2632904 0 0 0 1.104401,-1.404021 1.2632904,1.2632904 0 0 0 -1.404087,-1.104929 1.2632904,1.2632904 0 0 0 -1.112302,1.261228 l -0.971311,0.237688 a 11.826549,11.826549 0 0 0 -1.566228,-3.535023 l 1.636688,-0.98148 a 1.8250887,1.8250978 83.188449 0 0 1.44445,0.464865 1.8250887,1.8250978 83.188449 0 0 1.595607,-2.028496 1.8250887,1.8250978 83.188449 0 0 -2.028496,-1.5956038 1.8250887,1.8250978 83.188449 0 0 -1.595604,2.0284928 1.8250887,1.8250978 83.188449 0 0 0.10254,0.416811 L 34.27086,11.953675 A 11.826549,11.826549 0 0 0 31.558691,9.3937322 l 0.654874,-1.1877451 a 1.3170474,1.3170474 0 0 0 0.578556,0.061713 1.3170474,1.3170474 0 0 0 1.151603,-1.4640349 1.3170474,1.3170474 0 0 0 -1.463972,-1.1510696 1.3170474,1.3170474 0 0 0 -1.151666,1.4635011 1.3170474,1.3170474 0 0 0 0.268218,0.6500435 L 30.91846,8.9959284 A 11.826549,11.826549 0 0 0 27.165322,7.5643367 l 0.106971,-1.8942829 a 1.8546178,1.8546178 0 0 0 0.172984,-0.01204 1.8546178,1.8546178 0 0 0 1.621839,-2.061237 1.8546178,1.8546178 0 0 0 -2.061765,-1.6217795 1.8546178,1.8546178 0 0 0 -1.621249,2.0617054 1.8546178,1.8546178 0 0 0 1.088989,1.4731079 l -0.108859,1.9370411 a 11.826549,11.826549 0 0 0 -2.849127,-0.01984 11.826549,11.826549 0 0 0 -1.373773,0.2620705 L 22.021416,6.896968 A 1.1288978,1.1288978 0 0 0 22.664045,5.7419056 1.1288978,1.1288978 0 0 0 21.409158,4.754819 1.1288978,1.1288978 0 0 0 20.422602,6.0096394 1.1288978,1.1288978 0 0 0 21.327082,6.9836718 L 21.46077,7.864044 A 11.826549,11.826549 0 0 0 18.429836,9.2876954 L 17.926421,8.2415251 a 1.9890104,1.9890104 0 0 0 0.612557,-1.6817357 1.9890104,1.9890104 0 0 0 -2.2109,-1.7390902 1.9890104,1.9890104 0 0 0 -1.739089,2.2109059 1.9890104,1.9890104 0 0 0 2.104115,1.7464572 l 0.637412,1.3251707 a 11.826549,11.826549 0 0 0 -1.969549,2.124843 l -1.160271,-0.866497 a 1.0213837,1.0213837 0 0 0 0.0061,-0.277978 1.0213837,1.0213837 0 0 0 -1.135458,-0.893144 1.0213837,1.0213837 0 0 0 -0.892616,1.135393 1.0213837,1.0213837 0 0 0 1.134864,0.892679 1.0213837,1.0213837 0 0 0 0.45638,-0.172408 l 1.135439,0.847928 a 11.826549,11.826549 0 0 0 -1.23958,2.674508 L 11.56483,15.263405 a 1.7202252,1.7202252 0 0 0 -1.9070421,-1.471219 1.7202252,1.7202252 0 0 0 -1.504001,1.912037 1.7202252,1.7202252 0 0 0 1.9120361,1.503998 1.7202252,1.7202252 0 0 0 1.331977,-0.936465 l 1.99963,0.290339 a 11.826549,11.826549 0 0 0 -0.289424,3.04391 l -1.176185,0.140492 a 1.0482623,1.0482623 0 0 0 -1.063193,-0.576619 1.0482623,1.0482623 0 0 0 -0.9165158,1.165164 1.0482623,1.0482623 0 0 0 1.1651678,0.916515 1.0482623,1.0482623 0 0 0 0.890553,-0.783071 l 1.15071,-0.137449 a 11.826549,11.826549 0 0 0 0.01645,0.241367 11.826549,11.826549 0 0 0 0.961928,3.429015 l -1.86908,0.969399 a 1.8814961,1.8814961 0 0 0 -1.680448,-0.678389 1.8814961,1.8814961 0 0 0 -1.6451471,2.091476 1.8814961,1.8814961 0 0 0 2.0914731,1.645147 1.8814961,1.8814961 0 0 0 1.645147,-2.091477 1.8814961,1.8814961 0 0 0 -0.04877,-0.246118 l 1.850326,-0.959623 a 11.826549,11.826549 0 0 0 1.323812,1.974252 l -1.16919,1.091446 a 0.9945052,0.9945052 0 0 0 -0.526063,-0.08198 0.9945052,0.9945052 0 0 0 -0.869247,1.105686 0.9945052,0.9945052 0 0 0 1.105153,0.86931 0.9945052,0.9945052 0 0 0 0.869843,-1.105219 0.9945052,0.9945052 0 0 0 -0.08412,-0.294117 l 1.144937,-1.069168 a 11.826549,11.826549 0 0 0 1.332493,1.235682 l -1.322715,1.739651 a 1.3170474,1.3170474 0 0 0 -0.475948,-0.03197 1.3170474,1.3170474 0 0 0 -1.1516,1.464032 1.3170474,1.3170474 0 0 0 1.464031,1.151603 1.3170474,1.3170474 0 0 0 1.151604,-1.464032 1.3170474,1.3170474 0 0 0 -0.300615,-0.691394 l 1.286386,-1.69224 a 11.826549,11.826549 0 0 0 2.756586,1.385893 l -0.761994,1.728659 a 2.1234029,2.1234029 0 0 0 -0.593929,-0.01465 2.1234029,2.1234029 0 0 0 -1.856334,2.360573 2.1234029,2.1234029 0 0 0 2.360039,1.856397 2.1234029,2.1234029 0 0 0 1.8564,-2.36004 2.1234029,2.1234029 0 0 0 -1.055531,-1.589621 l 0.769178,-1.745127 a 11.826549,11.826549 0 0 0 3.246933,0.434211 l -0.100192,1.455266 a 1.1288978,1.1288978 0 0 0 -0.882227,1.235898 1.1288978,1.1288978 0 0 0 1.254886,0.987091 1.1288978,1.1288978 0 0 0 0.987088,-1.254886 1.1288978,1.1288978 0 0 0 -0.664355,-0.897198 l 0.107253,-1.558397 a 11.826549,11.826549 0 0 0 0.63748,-0.04439 11.826549,11.826549 0 0 0 3.371318,-0.935656 l 0.878514,1.950998 a 1.8008607,1.8008607 0 0 0 -0.586652,1.551594 1.8008607,1.8008607 0 0 0 2.001757,1.574573 1.8008607,1.8008607 0 0 0 1.574574,-2.001757 1.8008607,1.8008607 0 0 0 -2.001692,-1.574042 1.8008607,1.8008607 0 0 0 -0.280109,0.05714 l -0.856509,-1.901944 a 11.826549,11.826549 0 0 0 1.711253,-1.109897 l 0.657941,0.82098 a 0.86011261,0.86011261 0 0 0 -0.05609,0.42284 0.86011261,0.86011261 0 0 0 0.956017,0.752002 0.86011261,0.86011261 0 0 0 0.751998,-0.956019 0.86011261,0.86011261 0 0 0 -0.956018,-0.752003 0.86011261,0.86011261 0 0 0 -0.242899,0.0667 L 32.63466,28.118531 a 11.826549,11.826549 0 0 0 1.705672,-1.823612 l 1.179555,0.928795 a 1.2095333,1.2095333 0 0 0 -0.05028,0.512048 1.2095333,1.2095333 0 0 0 1.344076,1.057723 1.2095333,1.2095333 0 0 0 1.057661,-1.344604 1.2095333,1.2095333 0 0 0 -1.344542,-1.057132 1.2095333,1.2095333 0 0 0 -0.609594,0.255314 L 34.7531,25.730419 a 11.826549,11.826549 0 0 0 1.705651,-4.036736 l 1.56603,0.238772 a 1.8814944,1.8008587 83.188449 0 0 2.73e-4,0.0032 1.8814944,1.8008587 83.188449 0 0 2.011331,1.654721 1.8814944,1.8008587 83.188449 0 0 1.564997,-2.081903 z"
       id="path4568" />
    <path
       id="path1441"
       d="m 24.492436,29.412314 c -1.468155,-0.0637 -2.862576,-0.419466 -4.159041,-1.061117 -0.503541,-0.249213 -0.953507,-0.51786 -1.407038,-0.840056 -0.08878,-0.06306 -0.174458,-0.12076 -0.190419,-0.12822 -0.03821,-0.01785 -0.17806,-0.129077 -0.397229,-0.315919 -0.515595,-0.439546 -0.89302,-0.817577 -1.396872,-1.399109 -0.16626,-0.191895 -0.228859,-0.27194 -0.370517,-0.473795 -0.09376,-0.133588 -0.186285,-0.269309 -0.205631,-0.301602 -0.01934,-0.03229 -0.07469,-0.12006 -0.12299,-0.195036 -0.80756,-1.253694 -1.328325,-2.686904 -1.516238,-4.172889 -0.05692,-0.450164 -0.0748,-0.754521 -0.0748,-1.273921 0,-0.626785 0.03187,-1.036609 0.127719,-1.64258 0.01781,-0.112645 0.03481,-0.223243 0.03777,-0.24577 0.0061,-0.04624 0.06497,-0.298051 0.137523,-0.587979 0.365604,-1.460898 1.074405,-2.843586 2.058784,-4.01616 0.256162,-0.305137 0.517464,-0.583804 0.776834,-0.828464 0.367504,-0.346661 0.601708,-0.542287 1.073985,-0.897073 0.420926,-0.316212 0.535262,-0.389685 0.968372,-0.622286 0.603593,-0.324158 1.043448,-0.5255461 1.535328,-0.7029547 0.102417,-0.036939 0.245819,-0.092517 0.318654,-0.1234934 0.09378,-0.039897 0.221788,-0.083021 0.438665,-0.1477895 0.262366,-0.078367 0.334695,-0.096572 0.50488,-0.1270931 0.109251,-0.019602 0.230298,-0.038014 0.268992,-0.040962 0.0387,-0.0029 0.144841,-0.017792 0.235883,-0.033008 1.194025,-0.1996188 2.337261,-0.2032471 3.501047,-0.01112 0.403908,0.066678 0.753098,0.1471802 1.262197,0.2909727 0.263378,0.074384 0.616072,0.2030381 1.187506,0.4331486 l 0.478937,0.1928644 0.408374,0.237569 c 0.276958,0.161121 0.445195,0.26456 0.522799,0.321441 0.06294,0.04611 0.171817,0.122578 0.241962,0.169888 0.240919,0.162498 0.486137,0.346054 0.744234,0.557094 0.07512,0.06141 0.218502,0.174682 0.318651,0.251701 0.170692,0.131267 0.202603,0.160457 0.50986,0.466427 0.360047,0.358537 0.514039,0.5298 0.823842,0.916251 0.136677,0.170489 0.240604,0.311609 0.368032,0.499736 0.156696,0.231336 0.201221,0.305201 0.37874,0.628284 0.121231,0.220641 0.265476,0.498977 0.363005,0.700452 l 0.161836,0.334325 0.185079,0.514913 c 0.177,0.492432 0.18508,0.51753 0.18508,0.574862 0,0.04426 0.0077,0.08639 0.02939,0.16096 0.153482,0.527396 0.27317,1.149883 0.334469,1.739496 0.03886,0.37378 0.04532,0.519387 0.04558,1.028148 2.99e-4,0.569169 -0.01188,0.787266 -0.07053,1.261631 -0.194365,1.572931 -0.752338,3.058726 -1.647503,4.387039 -0.528588,0.784362 -1.045744,1.36193 -1.897123,2.118731 l -0.404035,0.359148 -0.212581,0.141953 c -0.213786,0.142754 -0.798544,0.496118 -1.052667,0.636118 -0.40328,0.222172 -0.911985,0.455509 -1.350707,0.61955 -0.934301,0.349348 -1.887427,0.554151 -2.936626,0.631011 -0.167554,0.01228 -0.942961,0.02243 -1.121491,0.01467 z"
       style="fill:#000000;stroke-width:0;fill-opacity:0;stroke:#ffffff;stroke-opacity:1;stroke-miterlimit:4;stroke-dasharray:none" />
    <path
       id="path1439"
       d="m 24.487704,29.43449 c -1.468045,-0.06378 -2.862366,-0.420045 -4.158736,-1.062584 -0.280171,-0.138864 -0.440708,-0.226123 -0.703469,-0.382363 -0.273358,-0.162541 -0.749222,-0.478722 -0.785235,-0.521732 -0.01014,-0.01213 -0.0087,-0.01298 0.01455,-0.0084 0.02279,0.0046 0.02584,0.003 0.02584,-0.01327 0,-0.01014 0.01261,-0.03548 0.02804,-0.05641 0.01542,-0.02091 0.02961,-0.04539 0.03153,-0.05442 0.0036,-0.0171 0.0069,-0.01784 0.03767,-0.0087 0.01564,0.0048 0.01862,0.0025 0.01862,-0.01375 0,-0.03871 -0.0446,-0.101507 -0.130952,-0.184349 -0.04819,-0.04625 -0.04559,-0.06694 0.01094,-0.08679 0.03311,-0.01163 0.05711,-0.01362 0.120004,-0.0099 0.04324,0.0025 0.09352,0.0082 0.111726,0.01243 0.01822,0.0044 0.06663,0.01152 0.10759,0.01606 0.08054,0.0089 0.147627,0.02749 0.219316,0.06081 0.03789,0.0176 0.05754,0.02116 0.117258,0.02124 0.09049,9.7e-5 0.09792,-0.0027 0.09792,-0.03769 0,-0.02002 0.0078,-0.03643 0.02789,-0.0586 0.01534,-0.01694 0.04006,-0.05049 0.05495,-0.07456 0.02661,-0.04307 0.02688,-0.04448 0.01655,-0.0872 -0.0063,-0.02579 -0.008,-0.05466 -0.0043,-0.07108 0.0034,-0.01521 0.0079,-0.101785 0.0098,-0.192404 l 0.0034,-0.16476 -0.02566,-0.06406 c -0.02806,-0.07 -0.04962,-0.190234 -0.04968,-0.277085 -5.8e-5,-0.06201 0.0053,-0.06622 0.04331,-0.03448 0.01378,0.01149 0.02977,0.01979 0.03549,0.01846 0.0058,-0.0013 0.03838,-0.02526 0.07254,-0.05316 0.04612,-0.03765 0.06471,-0.05877 0.0722,-0.08204 0.01539,-0.0478 0.0547,-0.08463 0.09044,-0.08476 0.02667,-9.2e-5 0.04022,-0.01072 0.145278,-0.113897 0.131703,-0.129351 0.134313,-0.134461 0.13576,-0.265764 7.53e-4,-0.06825 -0.0021,-0.08055 -0.05319,-0.22911 -0.07458,-0.216868 -0.07369,-0.215507 -0.16947,-0.261859 -0.04324,-0.02093 -0.112142,-0.04968 -0.153108,-0.06391 l -0.07448,-0.02585 -0.218039,-0.229391 c -0.19719,-0.207455 -0.220569,-0.229389 -0.24449,-0.229389 -0.02036,0 -0.03475,-0.0084 -0.06248,-0.03639 -0.0271,-0.02739 -0.04648,-0.03885 -0.07828,-0.04636 -0.02324,-0.0056 -0.05901,-0.01726 -0.07949,-0.02617 -0.02048,-0.009 -0.09123,-0.03792 -0.157246,-0.06447 -0.123465,-0.04965 -0.226654,-0.110811 -0.280942,-0.166522 -0.03163,-0.03247 -0.04148,-0.03445 -0.08898,-0.01783 -0.01797,0.0063 -0.06872,0.01411 -0.112768,0.01738 l -0.08008,0.006 1.97e-4,-0.03175 c 1.09e-4,-0.01745 0.0035,-0.04624 0.0077,-0.06395 0.0063,-0.02681 0.0049,-0.03561 -0.0086,-0.05256 -0.01211,-0.01527 -0.01482,-0.02732 -0.01085,-0.04833 0.0064,-0.03428 -0.0026,-0.04478 -0.137447,-0.157934 -0.09932,-0.08338 -0.15183,-0.132238 -0.216236,-0.201214 -0.02751,-0.02946 -0.05282,-0.04667 -0.08984,-0.06105 -0.02835,-0.01101 -0.05343,-0.02487 -0.0557,-0.03077 -0.0066,-0.01724 -0.02034,-0.01272 -0.0667,0.02213 -0.02399,0.01803 -0.04746,0.03278 -0.05215,0.03278 -0.01554,0 -0.0325,-0.05613 -0.0325,-0.107467 0,-0.08496 -0.0116,-0.09642 -0.17962,-0.177643 -0.108305,-0.05235 -0.148901,-0.07622 -0.164822,-0.09691 -0.01282,-0.01664 -0.01861,-0.03165 -0.01474,-0.03806 0.02297,-0.03813 0.06266,-0.0767 0.09641,-0.09367 0.04337,-0.02182 0.04302,-0.02076 0.03043,-0.08978 -0.0063,-0.0343 -0.02255,-0.07123 -0.05517,-0.124963 -0.04239,-0.06985 -0.04893,-0.08748 -0.07742,-0.209195 -0.02795,-0.119311 -0.07453,-0.264674 -0.100027,-0.312158 -0.0052,-0.0097 -0.06657,-0.106242 -0.136347,-0.214531 -0.114491,-0.177682 -0.132813,-0.201846 -0.187812,-0.247685 -0.03352,-0.02795 -0.09915,-0.07368 -0.14584,-0.10163 -0.09263,-0.05547 -0.234227,-0.157699 -0.261643,-0.188898 -0.03581,-0.04077 -0.118266,-0.161432 -0.151314,-0.221459 -0.02945,-0.0535 -0.03614,-0.07521 -0.04702,-0.152861 -0.01221,-0.08694 -0.01545,-0.09596 -0.083,-0.228879 -0.05764,-0.113454 -0.07659,-0.1433 -0.105171,-0.16574 -0.01918,-0.01505 -0.03615,-0.02862 -0.03769,-0.03014 -0.0016,-0.0016 0.0019,-0.01543 0.0073,-0.03092 0.0088,-0.02415 0.0077,-0.03899 -0.0087,-0.105211 -0.02327,-0.09473 -0.02812,-0.10406 -0.09061,-0.17494 l -0.05013,-0.05682 v -0.06405 -0.06405 l -0.04719,-0.03672 c -0.04527,-0.03521 -0.04976,-0.03682 -0.109467,-0.03908 l -0.06227,-0.0024 -0.07466,-0.09555 c -0.04108,-0.05257 -0.10312,-0.124986 -0.137889,-0.160973 -0.06256,-0.06474 -0.06332,-0.06605 -0.07304,-0.125956 -0.0054,-0.03329 -0.02039,-0.09929 -0.0333,-0.146667 -0.01292,-0.04736 -0.02799,-0.116663 -0.03352,-0.15397 -0.009,-0.06095 -0.01845,-0.08449 -0.02943,-0.0736 -0.0021,0.0021 -0.0084,0.03105 -0.01392,0.0644 l -0.01014,0.06063 -0.03161,0.0026 c -0.01739,0.0014 -0.03643,-0.0014 -0.04233,-0.0063 -0.0058,-0.0049 -0.0153,-0.03708 -0.02094,-0.07163 l -0.01024,-0.0628 0.02981,-0.02787 c 0.02759,-0.0258 0.0294,-0.03042 0.02451,-0.06222 -0.0066,-0.04361 -0.01589,-0.05485 -0.0448,-0.05485 -0.01601,0 -0.0293,0.0078 -0.04287,0.0249 l -0.01965,0.0249 -0.0478,-0.02169 c -0.03406,-0.01545 -0.05511,-0.02023 -0.07326,-0.01664 -0.03912,0.0078 -0.04771,0.01924 -0.04771,0.0637 0,0.02499 -0.0066,0.05349 -0.01771,0.07488 -0.02809,0.05479 -0.0724,0.120677 -0.08116,0.120677 -0.0046,0 -0.02351,-0.04892 -0.04243,-0.108698 -0.01893,-0.05978 -0.0582,-0.169494 -0.08726,-0.2438 l -0.05284,-0.135099 v -0.154688 c 0,-0.125875 0.0039,-0.177993 0.02053,-0.27919 0.0113,-0.06843 0.03376,-0.219778 0.04994,-0.336326 0.01617,-0.116547 0.03859,-0.249448 0.04981,-0.295336 0.0289,-0.118211 0.02878,-0.262391 -2.9e-4,-0.381336 -0.02942,-0.120414 -0.02745,-0.170991 0.01181,-0.300451 0.01787,-0.05894 0.05149,-0.174251 0.07471,-0.256245 0.02322,-0.082 0.06897,-0.222279 0.101671,-0.311742 0.05212,-0.142607 0.05948,-0.169739 0.05971,-0.220087 1.79e-4,-0.04173 -0.0037,-0.06331 -0.01444,-0.07898 -0.01463,-0.02145 -0.01384,-0.02398 0.166796,-0.545822 l 0.181477,-0.524277 0.118745,-0.235583 c 0.06531,-0.129571 0.121584,-0.235584 0.125054,-0.235584 0.0034,0 0.0039,0.04305 8.01e-4,0.09565 -0.0034,0.05911 -0.0025,0.09381 0.0022,0.09087 0.0043,-0.0026 0.01861,-0.0272 0.03182,-0.05462 0.01322,-0.02743 0.02879,-0.04987 0.03461,-0.04987 0.01014,0 0.03605,0.07071 0.03605,0.0985 0,0.0076 -0.0093,0.04062 -0.0207,0.07378 -0.0256,0.07461 -0.0256,0.08117 0,0.131259 0.01138,0.02227 0.0207,0.0455 0.0207,0.05166 0,0.0062 -0.03949,0.106872 -0.08778,0.223824 -0.200465,0.485577 -0.207378,0.505109 -0.217964,0.615744 -0.0053,0.05476 -0.0076,0.109215 -0.005,0.121005 0.0025,0.01179 0.0064,0.03066 0.0088,0.04194 0.0023,0.01127 0.007,0.02051 0.01043,0.02051 0.0033,0 0.02925,-0.03783 0.05749,-0.08408 0.04612,-0.07549 0.05192,-0.08996 0.05668,-0.141513 0.0041,-0.04407 0.01647,-0.08345 0.05327,-0.16913 0.02639,-0.06143 0.05996,-0.153729 0.07459,-0.205093 0.05627,-0.197448 0.13675,-0.411137 0.190327,-0.505398 0.04475,-0.07872 0.06258,-0.10102 0.131982,-0.164905 0.05884,-0.05415 0.09553,-0.08074 0.137491,-0.09957 0.0315,-0.01413 0.07215,-0.04003 0.09036,-0.05759 0.01822,-0.01754 0.04428,-0.03448 0.05793,-0.03763 0.01365,-0.0032 0.0327,-0.01276 0.04228,-0.0214 0.0096,-0.0087 0.05802,-0.02623 0.107588,-0.03914 0.04959,-0.01292 0.09945,-0.02773 0.110827,-0.03297 0.03285,-0.01505 0.129299,-0.204028 0.141489,-0.277204 0.0053,-0.03169 0.01936,-0.07556 0.0313,-0.0975 0.0198,-0.03639 0.02858,-0.0432 0.100317,-0.07752 l 0.0786,-0.03762 0.0414,-0.07252 c 0.04089,-0.07164 0.04197,-0.07272 0.08935,-0.08829 0.04243,-0.01394 0.05425,-0.02322 0.102478,-0.08033 0.05767,-0.0683 0.05431,-0.0664 0.174066,-0.0975 0.03067,-0.008 0.03548,-0.01245 0.04023,-0.03754 0.003,-0.01568 0.01024,-0.02849 0.0161,-0.02849 0.0058,0 0.03435,0.01053 0.06321,0.02335 0.03253,0.01446 0.07512,0.02556 0.111967,0.02914 0.07102,0.007 0.07247,0.0055 0.07957,-0.08279 0.0026,-0.03244 0.0096,-0.06771 0.01561,-0.07836 0.01473,-0.02625 0.106378,-0.108927 0.172555,-0.15565 0.05059,-0.0357 0.06297,-0.04017 0.190352,-0.06855 0.112993,-0.02517 0.158853,-0.03124 0.268667,-0.03556 l 0.132419,-0.0053 0.04774,-0.03057 c 0.02625,-0.01682 0.0514,-0.03057 0.05587,-0.03057 0.0047,0 0.0081,0.02533 0.0081,0.05731 v 0.05731 l -0.03249,0.02132 -0.03249,0.02132 -0.03649,-0.0212 c -0.05824,-0.03384 -0.08246,-0.02929 -0.17957,0.03351 -0.09378,0.06067 -0.08906,0.051 -0.06608,0.13557 0.01111,0.04095 0.02311,0.04012 0.09926,-0.0069 0.03392,-0.02091 0.07702,-0.04485 0.09575,-0.05322 0.03388,-0.01513 0.03435,-0.0151 0.09448,0.0053 l 0.06044,0.02038 0.0418,-0.02664 c 0.03499,-0.02229 0.05198,-0.02731 0.10414,-0.03074 l 0.06232,-0.0041 0.0042,-0.02872 c 0.0038,-0.02605 0.0068,-0.02891 0.0331,-0.03078 0.05877,-0.0042 0.123719,-0.02095 0.140245,-0.03619 0.0093,-0.0087 0.017,-0.02557 0.017,-0.03763 0,-0.01463 0.0113,-0.03334 0.03396,-0.05624 0.0297,-0.02999 0.03325,-0.0375 0.02832,-0.05968 -0.0032,-0.01397 -0.0093,-0.02766 -0.01383,-0.03041 -0.0086,-0.0054 -0.09907,0.0514 -0.16712,0.104707 -0.02203,0.01725 -0.04547,0.03139 -0.05205,0.03139 -0.0065,0 -0.0414,-0.01332 -0.07732,-0.02959 l -0.06532,-0.02959 -0.0058,-0.05343 c -0.0048,-0.04345 -0.0021,-0.06651 0.01391,-0.123531 0.01921,-0.06836 0.02075,-0.07078 0.06209,-0.09706 0.05953,-0.03783 0.06792,-0.0661 0.03209,-0.108303 -0.01138,-0.01342 -0.0207,-0.02662 -0.0207,-0.02935 0,-0.0027 0.02142,-0.005 0.04759,-0.005 0.03761,-5.8e-5 0.05663,-0.0053 0.09074,-0.02462 0.0472,-0.02682 0.06037,-0.04419 0.06015,-0.07937 -2.13e-4,-0.03897 -0.01048,-0.04514 -0.100378,-0.06048 -0.07828,-0.01336 -0.09056,-0.01356 -0.14162,-0.0023 -0.03075,0.0068 -0.06036,0.01084 -0.06577,0.0091 -0.0054,-0.0019 0.01522,-0.02376 0.04588,-0.04883 0.05431,-0.0444 0.05729,-0.04567 0.115759,-0.04939 0.05662,-0.0036 0.06336,-0.0063 0.118774,-0.04618 0.03428,-0.02471 0.06754,-0.04236 0.07986,-0.04236 0.02792,0 0.117734,0.03254 0.236185,0.08559 0.08732,0.03911 0.106299,0.04437 0.204223,0.05662 l 0.107958,0.01351 0.135144,-0.04167 c 0.100306,-0.03093 0.142274,-0.04034 0.162794,-0.03655 0.01521,0.0029 0.02981,0.0087 0.03243,0.01282 0.0052,0.0083 -0.128781,0.109077 -0.269038,0.202464 -0.07699,0.05125 -0.09305,0.06635 -0.140692,0.132229 -0.05153,0.07124 -0.05756,0.07649 -0.142764,0.124669 -0.04894,0.02767 -0.08897,0.05476 -0.08897,0.06021 0,0.02214 0.02632,0.04462 0.06378,0.05451 0.02183,0.0058 0.06201,0.02237 0.08932,0.03694 0.02731,0.01454 0.07333,0.03094 0.102303,0.03641 0.103565,0.01957 0.121623,0.04296 0.04459,0.05776 -0.07276,0.01398 -0.08482,0.02086 -0.08482,0.04832 0,0.02271 0.0021,0.0241 0.04524,0.02944 0.04182,0.0053 0.0493,0.0033 0.09917,-0.02429 0.07243,-0.04017 0.09352,-0.03636 0.05187,0.0094 -0.03673,0.04031 -0.03822,0.05033 -0.008,0.05377 0.01787,0.0021 0.02332,0.0076 0.02537,0.02516 0.0014,0.01241 0.0055,0.02257 0.009,0.02257 0.0088,0 0.09551,-0.06078 0.141264,-0.09903 0.03575,-0.02987 0.07271,-0.0976 0.06234,-0.114222 -0.0022,-0.0035 -0.01729,-0.0089 -0.03358,-0.01188 -0.03486,-0.0065 -0.0342,-0.0134 0.0039,-0.03893 0.01552,-0.01043 0.03577,-0.02905 0.045,-0.04141 l 0.01679,-0.02247 -0.01809,-0.01908 c -0.0099,-0.01051 -0.01808,-0.02204 -0.01808,-0.02566 0,-0.0036 0.01329,-0.01863 0.02953,-0.03338 0.02878,-0.02611 0.02929,-0.02771 0.02042,-0.06044 -0.01024,-0.03757 -0.01884,-0.04379 -0.08057,-0.05816 -0.05188,-0.01206 -0.05791,-0.01849 -0.06165,-0.06584 -0.0027,-0.03481 -0.0014,-0.03747 0.02509,-0.04995 0.0154,-0.0072 0.04334,-0.03334 0.06208,-0.05796 0.01874,-0.02463 0.06292,-0.07182 0.0982,-0.104914 0.03528,-0.03307 0.06413,-0.0635 0.06413,-0.06758 0,-0.0041 -0.01304,-0.01506 -0.02897,-0.02438 -0.01593,-0.0094 -0.02898,-0.01979 -0.02898,-0.02324 0,-0.0034 0.01452,-0.01584 0.03225,-0.02746 0.02327,-0.01528 0.04551,-0.02186 0.07988,-0.02365 l 0.04761,-0.0025 0.0142,-0.0433 c 0.01097,-0.03351 0.0252,-0.0533 0.06289,-0.08755 l 0.04869,-0.04425 -0.01599,-0.0273 c -0.04676,-0.07985 -0.05436,-0.100461 -0.05436,-0.147643 v -0.04782 h 0.04139 c 0.05262,0 0.05291,-0.0077 0.0032,-0.08163 -0.038,-0.05665 -0.03813,-0.05703 -0.04196,-0.141415 -0.0032,-0.0721 -9.57e-4,-0.09431 0.01562,-0.150239 l 0.01948,-0.06562 0.04089,-0.0026 c 0.02248,-0.0014 0.04562,-0.0064 0.05141,-0.01122 0.0058,-0.0048 0.02933,-0.04314 0.05232,-0.08529 0.02299,-0.04213 0.08072,-0.144148 0.128281,-0.226673 0.07904,-0.13712 0.09508,-0.170557 0.08188,-0.170557 -0.0223,0 -0.186249,0.08049 -0.224367,0.110135 l -0.04822,0.03753 -0.07241,5e-6 c -0.03983,2e-6 -0.07241,-0.003 -0.07241,-0.0063 0,-0.0035 0.0051,-0.01365 0.01121,-0.02257 0.0062,-0.009 0.01948,-0.03834 0.02961,-0.06541 0.03948,-0.105702 0.0504,-0.118313 0.17077,-0.1974 0.06114,-0.04018 0.111182,-0.07636 0.111182,-0.08041 0,-0.004 -0.0079,-0.02004 -0.01754,-0.0355 l -0.01754,-0.02813 0.02529,-0.05077 c 0.03806,-0.07636 0.03957,-0.09458 0.01115,-0.132371 -0.02423,-0.0322 -0.07776,-0.06062 -0.115907,-0.06153 -0.01125,-2.65e-4 -0.07468,0.03561 -0.151256,0.08555 -0.121888,0.07948 -0.134419,0.09 -0.16517,0.138621 -0.0282,0.04457 -0.03987,0.05538 -0.07633,0.07074 -0.02368,0.0099 -0.09025,0.04032 -0.147943,0.06742 -0.100616,0.04729 -0.105499,0.05076 -0.120003,0.0851 -0.02087,0.0494 -0.224794,0.253304 -0.266612,0.266571 -0.01645,0.0053 -0.05782,0.02486 -0.09197,0.04365 -0.03414,0.01877 -0.112348,0.05532 -0.173799,0.08117 -0.159774,0.06726 -0.229226,0.114181 -0.332795,0.224901 -0.137482,0.146972 -0.245318,0.240205 -0.27783,0.240205 -0.05469,0 -0.0388,-0.07476 0.0329,-0.154993 0.02665,-0.0298 0.06419,-0.07988 0.08343,-0.11126 0.03032,-0.04949 0.05312,-0.07154 0.17153,-0.166081 0.17975,-0.143515 0.182671,-0.1468 0.176499,-0.198456 -0.0061,-0.05069 0.02104,-0.112636 0.09187,-0.210093 0.07224,-0.0994 0.106437,-0.17099 0.09993,-0.209204 l -0.0053,-0.03098 0.0854,-0.05059 c 0.05907,-0.03499 0.105816,-0.07097 0.151612,-0.11669 l 0.0662,-0.0661 0.294415,-0.133076 c 0.16193,-0.07318 0.32021,-0.139433 0.351736,-0.147206 0.03152,-0.0078 0.08526,-0.02776 0.119388,-0.04443 0.05808,-0.02835 0.06784,-0.03048 0.151994,-0.0331 0.06375,-0.002 0.08829,-1.83e-4 0.08431,0.0062 -0.0082,0.01324 -0.09313,0.06894 -0.143513,0.09421 -0.02406,0.01206 -0.04174,0.02517 -0.03929,0.02911 0.0024,0.0039 0.02988,0.01167 0.06093,0.01718 0.04498,0.008 0.0604,0.008 0.07588,-3.04e-4 0.01763,-0.0094 0.02144,-0.0079 0.04109,0.016 0.01806,0.02194 0.02641,0.02586 0.05029,0.02362 0.02837,-0.0027 0.02868,-0.0032 0.0328,-0.04883 0.004,-0.04371 0.0065,-0.04822 0.04966,-0.08602 0.02502,-0.02193 0.07001,-0.06301 0.09995,-0.09127 l 0.05446,-0.0514 h 0.119803 c 0.151588,0 0.204948,-0.01482 0.254597,-0.07073 0.02711,-0.03054 0.05078,-0.04437 0.146021,-0.08529 0.125068,-0.05374 0.173895,-0.07979 0.197027,-0.10513 0.01781,-0.01951 0.01351,-0.02959 -0.01992,-0.04673 -0.02201,-0.01129 -0.03016,-0.01099 -0.08844,0.0033 -0.119882,0.02936 -0.118544,0.02954 -0.06005,-0.0085 0.02958,-0.01928 0.07239,-0.053417 0.09511,-0.075843 0.02871,-0.028343 0.06024,-0.048658 0.103452,-0.066657 0.128889,-0.053717 0.415286,-0.1609192 0.419292,-0.1569481 0.0023,0.00228 -0.0021,0.01354 -0.0096,0.025033 -0.0098,0.014833 -0.03942,0.03067 -0.102044,0.054606 -0.04852,0.018536 -0.09755,0.042317 -0.108922,0.052868 -0.01138,0.010551 -0.04489,0.030039 -0.07448,0.043321 -0.07858,0.035294 -0.0855,0.045524 -0.07708,0.1140881 l 0.0069,0.05613 0.05991,-0.0011 c 0.05396,-10e-4 0.05992,4.49e-4 0.05992,0.01463 0,0.02981 -0.02331,0.06869 -0.07688,0.128249 -0.03651,0.0406 -0.05958,0.0753 -0.0721,0.108447 -0.01014,0.02681 -0.02287,0.05242 -0.02835,0.05693 -0.0055,0.0044 -0.04671,0.01406 -0.09164,0.02123 -0.05201,0.0083 -0.108941,0.02441 -0.156713,0.04437 -0.04127,0.01723 -0.09552,0.0359 -0.12055,0.04148 -0.05643,0.01258 -0.0788,0.0261 -0.09521,0.0576 -0.007,0.0135 -0.01788,0.02453 -0.02407,0.02453 -0.0062,0 -0.03555,-0.01126 -0.06525,-0.02504 l -0.05397,-0.02503 -0.116614,0.05792 c -0.06413,0.03185 -0.116611,0.06117 -0.116611,0.06517 0,0.004 0.01024,0.0097 0.02277,0.0127 0.0703,0.01682 0.08483,0.02255 0.08483,0.03348 0,0.0065 -0.02123,0.05418 -0.0472,0.105857 l -0.04718,0.09395 0.01068,0.09686 c 0.0058,0.05327 0.01205,0.09823 0.01371,0.09991 0.007,0.007 0.04562,-0.0088 0.08277,-0.03368 0.03237,-0.02176 0.04661,-0.03989 0.07578,-0.09651 0.01978,-0.03835 0.04032,-0.06973 0.04568,-0.06973 0.0054,0 0.01536,0.0179 0.02222,0.03977 0.01276,0.04074 0.01109,0.0513 -0.01923,0.121184 -0.007,0.01628 0.0087,0.02349 0.03885,0.01778 0.01403,-0.0026 0.03371,-0.01962 0.05464,-0.0471 0.02499,-0.03281 0.04799,-0.0509 0.09755,-0.07669 0.05255,-0.02734 0.07053,-0.04199 0.09478,-0.07717 0.01646,-0.02388 0.0326,-0.05264 0.03584,-0.06392 0.0032,-0.01127 0.02119,-0.05296 0.03989,-0.09263 l 0.03397,-0.07211 0.06897,-0.03248 c 0.03794,-0.01786 0.07076,-0.03248 0.07296,-0.03248 0.0022,0 0.004,0.0078 0.004,0.01727 0,0.01024 -0.02332,0.04112 -0.05751,0.07607 -0.05692,0.05819 -0.05756,0.05935 -0.0632,0.113977 -0.0053,0.05098 -0.0046,0.05519 0.01024,0.05519 0.02715,0 0.2096,-0.0805 0.244438,-0.107855 0.01815,-0.01425 0.05595,-0.03734 0.08401,-0.05133 l 0.05101,-0.02542 0.0048,-0.06562 c 0.0025,-0.0361 0.01082,-0.08137 0.0183,-0.100617 0.0099,-0.02555 0.01229,-0.0489 0.0087,-0.08659 -0.0049,-0.05043 -0.0043,-0.0521 0.02165,-0.0737 0.02076,-0.01732 0.03578,-0.02232 0.06932,-0.02309 0.082,-0.0019 0.08695,-0.0048 0.147809,-0.08928 0.04981,-0.0691 0.06047,-0.09104 0.09414,-0.193738 0.04414,-0.1346522 0.05011,-0.1413499 0.144612,-0.1625521 0.0641,-0.014389 0.102044,-0.032594 0.09731,-0.046714 -0.0033,-0.00983 -0.101806,-0.045597 -0.159657,-0.057989 -0.05504,-0.011792 -0.06124,-0.018971 -0.03437,-0.039918 0.01224,-0.00952 0.02823,-0.028777 0.03549,-0.042711 0.01223,-0.02346 0.01216,-0.026108 -8.86e-4,-0.035594 -0.0078,-0.00559 -0.02849,-0.012661 -0.04602,-0.015599 -0.0422,-0.00703 -0.04984,-0.018154 -0.05184,-0.075108 -0.0017,-0.047614 -0.0016,-0.047934 0.02315,-0.050489 0.01365,-0.00145 0.06045,-0.015578 0.103987,-0.031456 l 0.07916,-0.02887 0.05948,0.017906 c 0.03271,0.00983 0.0612,0.020667 0.0633,0.024029 0.0065,0.010561 -0.01275,0.067433 -0.03349,0.098496 -0.0127,0.019033 -0.02176,0.047614 -0.02509,0.079163 -0.005,0.04811 -0.0047,0.049951 0.02128,0.071457 0.03305,0.027567 0.07381,0.028922 0.134558,0.00455 0.02971,-0.011958 0.05902,-0.017161 0.09135,-0.016189 0.06028,0.00176 0.06208,-0.010034 0.0084,-0.055537 -0.04131,-0.035004 -0.04129,-0.0397 2.58e-4,-0.060947 0.03418,-0.017481 0.08055,-0.0029 0.129406,0.040611 0.03648,0.032511 0.04418,0.035842 0.08282,0.035842 0.03671,0 0.04988,-0.00497 0.09533,-0.035801 0.02901,-0.019685 0.09391,-0.05291 0.14421,-0.073836 0.08647,-0.035946 0.09568,-0.038045 0.168281,-0.038128 0.07787,-9.31e-5 0.244592,-0.033835 0.465785,-0.094286 0.08179,-0.022354 0.08407,-0.022509 0.19492,-0.013344 0.132848,0.010985 0.175823,0.011647 0.170203,0.00259 -0.0022,-0.00362 -0.03578,-0.025798 -0.07444,-0.049227 l -0.0703,-0.042587 -0.146027,-0.014047 -0.14603,-0.014047 -0.05145,0.018288 c -0.04249,0.015102 -0.07797,0.019374 -0.204169,0.024577 -0.146892,0.006 -0.18689,0.00372 -0.256932,-0.014978 -0.03396,-0.009 -0.04096,-0.021133 -0.0435,-0.074932 -0.0016,-0.031218 -0.02583,-0.024919 0.263578,-0.068167 1.405073,-0.2100087 2.896166,-0.1222974 4.252696,0.2501562 0.312375,0.085762 0.306803,0.083725 0.311569,0.1139438 0.0041,0.025488 0.0084,0.02795 0.151137,0.086662 0.08085,0.033235 0.192578,0.075605 0.248283,0.094162 0.0557,0.018557 0.127355,0.047458 0.159215,0.064216 0.05601,0.029481 0.05786,0.031446 0.05592,0.059209 -0.002,0.027805 6.78e-4,0.030556 0.08276,0.086859 0.07982,0.054751 0.369626,0.2090431 0.469618,0.2500421 0.06839,0.02804 0.07062,0.03093 0.04446,0.05799 l -0.0224,0.02317 0.01588,0.03074 c 0.0087,0.0169 0.03357,0.04812 0.05519,0.06937 0.02162,0.02125 0.03928,0.04348 0.03923,0.0494 -8.2e-5,0.0059 -0.0092,0.03016 -0.02031,0.05385 -0.01684,0.03586 -0.02386,0.04307 -0.04185,0.04307 -0.02591,0 -0.02525,0.0032 0.02183,0.104607 0.03257,0.07024 0.03841,0.09228 0.0244,0.09228 -0.0043,0 -0.06106,-0.02581 -0.126209,-0.05736 -0.09085,-0.04399 -0.128117,-0.05784 -0.159852,-0.05949 -0.02277,-0.0012 -0.04273,0.0014 -0.04438,0.0057 -0.0017,0.0043 0.07562,0.05219 0.17173,0.10649 0.09611,0.0543 0.174729,0.10311 0.174729,0.10848 0,0.0054 -0.01112,0.01218 -0.02473,0.01514 -0.01361,0.0029 -0.0266,0.0083 -0.02888,0.01204 -0.007,0.01141 0.04461,0.126643 0.06407,0.14271 0.01014,0.0084 0.03989,0.02597 0.06608,0.03909 0.02618,0.01311 0.04761,0.02583 0.04761,0.02827 0,0.0024 -0.01186,0.01518 -0.02635,0.02831 -0.02444,0.02214 -0.03001,0.02357 -0.07656,0.0199 l -0.0502,-0.0039 0.05072,0.02394 c 0.0279,0.01316 0.05327,0.02801 0.05639,0.03302 0.01277,0.02047 -0.02408,0.01646 -0.13177,-0.01442 -0.104658,-0.03 -0.124516,-0.03909 -0.25216,-0.11534 -0.0762,-0.04552 -0.142641,-0.08276 -0.14763,-0.08276 -0.005,0 -0.01161,-0.004 -0.01471,-0.0091 -0.0041,-0.0065 0.03759,-0.0083 0.147788,-0.0061 0.0844,0.0017 0.156032,2.93e-4 0.159221,-0.0029 0.0032,-0.0032 0.0076,-0.02162 0.0096,-0.04101 0.0038,-0.03511 0.0036,-0.03549 -0.05273,-0.08084 -0.03112,-0.02505 -0.08493,-0.06449 -0.119544,-0.08765 l -0.06312,-0.0421 -0.131512,-0.01724 c -0.07234,-0.0095 -0.185515,-0.02839 -0.251515,-0.04201 -0.119325,-0.02463 -0.3276,-0.04816 -0.430358,-0.04862 -0.05243,-2.38e-4 -0.05576,-0.0017 -0.131289,-0.05294 l -0.07749,-0.05269 -0.05078,0.01903 c -0.02793,0.01047 -0.07686,0.03151 -0.108718,0.04675 l -0.05793,0.02771 -0.0083,0.05265 c -0.0047,0.02896 -0.01264,0.05409 -0.018,0.05586 -0.0054,0.0019 -0.02534,-0.0047 -0.04444,-0.01435 -0.03885,-0.01964 -0.04294,-0.0176 -0.05775,0.02889 -0.0068,0.02126 -0.02617,0.04728 -0.05502,0.07385 -0.03252,0.02995 -0.04506,0.04769 -0.04641,0.06562 -0.0017,0.02202 7.62e-4,0.02473 0.02298,0.02589 0.01365,7.14e-4 0.02968,0.0017 0.03559,0.002 0.02611,0.0019 0.03676,0.05898 0.03836,0.205848 0.0016,0.143404 0.0017,0.143622 0.02793,0.196887 0.01451,0.02931 0.02639,0.05736 0.02639,0.06229 4e-6,0.0049 -0.02208,0.02654 -0.04909,0.048 -0.0569,0.04522 -0.06063,0.0517 -0.04548,0.0788 0.01818,0.03254 0.0141,0.03927 -0.02749,0.04533 -0.06217,0.0091 -0.07242,0.01543 -0.08486,0.05281 -0.0082,0.02478 -0.02644,0.04756 -0.0645,0.08079 -0.03525,0.03077 -0.06127,0.06243 -0.07764,0.09447 -0.02457,0.04806 -0.02461,0.04839 -0.01515,0.118956 0.01782,0.13304 0.02196,0.1439 0.08589,0.225059 0.03267,0.04147 0.07421,0.09666 0.09231,0.122632 0.02476,0.03553 0.05138,0.05926 0.107403,0.09577 0.06415,0.04181 0.08313,0.04995 0.136821,0.05868 0.06222,0.01014 0.0624,0.01014 0.09792,-0.01322 0.02674,-0.01752 0.04284,-0.03774 0.0648,-0.08127 0.04182,-0.08298 0.04767,-0.08816 0.09304,-0.08249 0.0898,0.01124 0.141364,0.02302 0.150933,0.03445 0.0057,0.0068 0.01786,0.03096 0.02717,0.05384 0.01432,0.0352 0.03215,0.05436 0.116227,0.124832 0.09079,0.07611 0.104063,0.09094 0.154704,0.17294 0.06614,0.107099 0.115854,0.153117 0.180164,0.166788 0.06945,0.01476 0.0688,0.01513 0.09147,-0.05044 l 0.02057,-0.05947 0.04551,-0.0083 c 0.02504,-0.0046 0.05018,-0.01118 0.05587,-0.01484 0.0066,-0.0044 0.01034,-0.02722 0.01034,-0.06447 0,-0.05754 -2.98e-4,-0.05831 -0.06,-0.15328 l -0.06,-0.09545 0.0017,-0.0804 c 0.0016,-0.07264 0.0036,-0.08277 0.02243,-0.104894 0.01144,-0.01348 0.02335,-0.03807 0.02648,-0.05461 0.0054,-0.02862 0.0034,-0.03216 -0.039,-0.07096 -0.03012,-0.02753 -0.07487,-0.05498 -0.137331,-0.08421 -0.10102,-0.04731 -0.10283,-0.04906 -0.197496,-0.190467 -0.03938,-0.05884 -0.04038,-0.06183 -0.0381,-0.114853 0.0023,-0.05509 0.0072,-0.06587 0.06021,-0.132987 0.01192,-0.01509 0.01796,-0.03848 0.02121,-0.08204 l 0.0047,-0.06093 -0.05022,-0.03488 c -0.041,-0.0285 -0.05123,-0.04026 -0.05576,-0.06412 -0.0049,-0.02492 -0.0021,-0.03278 0.01773,-0.0533 0.01983,-0.0205 0.02955,-0.02407 0.06576,-0.02407 0.04549,0 0.107125,0.01768 0.150904,0.04328 0.02147,0.01257 0.02961,0.02521 0.03995,0.06214 0.007,0.02551 0.01449,0.05103 0.01633,0.05674 0.0019,0.0058 -7.69e-4,0.07178 -0.0058,0.146817 l -0.0091,0.13643 0.07907,0.07272 c 0.0435,0.04001 0.09683,0.0976 0.118541,0.12801 0.04631,0.06488 0.04658,0.06509 0.09233,0.0769 0.01941,0.005 0.06567,0.03087 0.10281,0.05743 0.0373,0.0267 0.07334,0.04667 0.08056,0.04462 0.0071,-0.0021 0.02823,-0.0081 0.04676,-0.01328 0.02208,-0.0063 0.05922,-0.03191 0.107589,-0.07424 0.04064,-0.03554 0.07761,-0.06467 0.08215,-0.06469 0.0047,-2.6e-5 0.0362,0.01572 0.07034,0.03499 0.05092,0.02875 0.06207,0.03867 0.06207,0.0553 0,0.02782 -0.05023,0.05049 -0.161247,0.07284 -0.04771,0.0096 -0.09151,0.02218 -0.09733,0.02794 -0.0058,0.0058 -0.01491,0.03099 -0.02019,0.05607 -0.0093,0.0441 -0.0088,0.04689 0.01522,0.08577 l 0.02488,0.04018 0.07797,0.0041 c 0.09134,0.0049 0.123373,0.02123 0.176721,0.09057 l 0.03188,0.04144 -0.02342,0.02424 c -0.01287,0.01334 -0.02807,0.02423 -0.03373,0.02423 -0.0057,0 -0.04078,-0.01835 -0.07802,-0.04078 -0.07934,-0.04776 -0.09859,-0.0551 -0.107444,-0.04091 -0.01278,0.02046 -0.01682,0.09497 -0.0077,0.139136 0.01112,0.05316 0.01466,0.0591 0.09035,0.152613 0.03198,0.0395 0.05813,0.07761 0.0581,0.08469 0,0.007 -0.01118,0.02947 -0.02479,0.04979 -0.01663,0.02478 -0.02477,0.04719 -0.02477,0.06822 -8.3e-5,0.04665 -0.01097,0.06034 -0.05303,0.06658 -0.03024,0.0046 -0.04447,0.0018 -0.07856,-0.01543 -0.02292,-0.0115 -0.0492,-0.02093 -0.0584,-0.02093 -0.04135,0 -0.125801,0.0447 -0.210747,0.111554 -0.113655,0.08944 -0.121615,0.09249 -0.165202,0.06304 -0.01859,-0.01256 -0.04979,-0.0385 -0.06933,-0.05768 -0.01954,-0.01919 -0.0384,-0.03487 -0.04191,-0.03487 -0.0035,0 -0.04343,0.02045 -0.08874,0.04546 -0.06521,0.03599 -0.08751,0.0445 -0.106955,0.04087 -0.01352,-0.0025 -0.02761,-0.0077 -0.03134,-0.01132 -0.01374,-0.01362 0.01209,-0.05573 0.06139,-0.10011 l 0.05063,-0.04561 -0.02805,-0.03666 c -0.01542,-0.02016 -0.03721,-0.05624 -0.04841,-0.0802 -0.0192,-0.04102 -0.02177,-0.04326 -0.04509,-0.03862 -0.03429,0.0069 -0.06216,0.02643 -0.07127,0.05021 -0.0087,0.02279 -0.01869,0.024 -0.08611,0.01059 -0.05308,-0.01056 -0.06259,-0.02205 -0.04292,-0.05181 0.01759,-0.0266 0.01682,-0.04206 -0.0035,-0.07043 -0.0093,-0.01294 -0.02795,-0.05009 -0.04145,-0.08255 -0.0135,-0.03246 -0.02871,-0.06399 -0.03376,-0.07004 -0.01594,-0.01905 -0.04825,-0.01245 -0.07661,0.01565 -0.01481,0.01466 -0.04249,0.03887 -0.06152,0.05378 -0.03445,0.02701 -0.03458,0.02736 -0.03456,0.08204 0,0.0417 0.0043,0.06182 0.01779,0.08363 0.0097,0.0158 0.04359,0.07959 0.07519,0.141763 0.03158,0.06219 0.07722,0.138945 0.101413,0.170593 0.0373,0.04879 0.04304,0.06093 0.0378,0.07974 -0.0044,0.01569 -0.01081,0.02146 -0.02195,0.01971 -0.1519,-0.02392 -0.177144,-0.02174 -0.177144,0.01521 0,0.02771 -0.0217,0.03797 -0.09246,0.04383 -0.06483,0.0054 -0.07077,0.0076 -0.09996,0.03571 -0.033,0.0319 -0.03604,0.04653 -0.01925,0.09232 0.0093,0.02548 0.0082,0.03518 -0.0097,0.08615 -0.01111,0.03159 -0.02264,0.07772 -0.02563,0.102551 l -0.0054,0.04513 -0.08277,0.05433 c -0.04552,0.02987 -0.100058,0.06057 -0.121197,0.0682 -0.06722,0.02424 -0.06768,0.02503 -0.05255,0.08973 0.0071,0.03088 0.01202,0.05943 0.01069,0.06343 -0.0013,0.004 -0.03971,0.02861 -0.08522,0.05469 -0.0854,0.04892 -0.09032,0.05525 -0.07788,0.100306 0.0029,0.01034 -0.01224,0.01267 -0.09477,0.01462 l -0.09816,0.0023 -0.04011,-0.03719 c -0.03975,-0.03687 -0.05976,-0.04506 -0.06996,-0.02871 -0.003,0.0047 0.02095,0.05283 0.05301,0.107017 0.04603,0.07778 0.05566,0.09953 0.04581,0.103285 -0.0069,0.0026 -0.05421,-8.47e-4 -0.105227,-0.0078 l -0.09273,-0.01244 -0.132406,0.0244 c -0.07283,0.01343 -0.134273,0.02626 -0.136555,0.02857 -0.0023,0.0023 0.0065,0.01271 0.01981,0.02313 0.02123,0.01682 0.02344,0.02277 0.01946,0.05228 -0.0027,0.02042 -8.27e-4,0.03617 0.005,0.04073 0.0053,0.0041 0.04117,0.01205 0.07986,0.01767 0.07451,0.01083 0.270837,0.06909 0.286578,0.08503 0.0052,0.0053 0.01557,0.03539 0.02319,0.06709 0.0077,0.03172 0.01646,0.0618 0.01963,0.06685 0.0032,0.005 0.02876,0.02597 0.05686,0.04648 0.03032,0.02213 0.06509,0.0577 0.08553,0.08754 0.03822,0.05579 0.04377,0.081 0.05361,0.243341 0.0053,0.08695 0.0042,0.09644 -0.02094,0.184583 -0.01457,0.0511 -0.03068,0.09562 -0.03583,0.09894 -0.01416,0.0092 -0.211926,0.0077 -0.406595,-0.0032 -0.125893,-0.007 -0.215791,-0.0072 -0.326151,-10e-4 -0.151576,0.0085 -0.152565,0.0085 -0.194487,-0.01094 -0.04885,-0.02256 -0.105263,-0.02561 -0.124306,-0.0068 -0.0071,0.0071 -0.013,0.02555 -0.013,0.04102 v 0.02814 h -0.06152 c -0.05845,0 -0.06236,0.0012 -0.07861,0.02382 -0.02235,0.03112 -0.02159,0.04299 0.0044,0.06703 0.03107,0.02882 0.03689,0.04323 0.02875,0.07133 -0.0056,0.01921 -0.0034,0.03085 0.0091,0.05135 0.01363,0.02222 0.01537,0.03491 0.0107,0.07814 -0.0049,0.04536 -0.003,0.05741 0.01646,0.09932 0.02183,0.04724 0.02198,0.04894 0.01623,0.173491 l -0.0058,0.125788 -0.05508,0.08431 c -0.04548,0.06962 -0.05779,0.09613 -0.07068,0.152046 -0.01345,0.05834 -0.01394,0.06876 -0.0037,0.07521 0.0065,0.0041 0.0361,0.02143 0.0657,0.03848 l 0.0538,0.03101 0.0042,0.134627 0.0042,0.134626 0.03723,0.01113 c 0.03873,0.01158 0.06711,0.01072 0.226266,-0.0069 l 0.0897,-0.0098 0.05372,0.05236 c 0.02953,0.02879 0.06267,0.0697 0.07366,0.09088 0.019,0.03668 0.08538,0.09683 0.106864,0.09683 0.0055,0 0.03947,-0.02307 0.07563,-0.05128 0.03616,-0.02821 0.09064,-0.06732 0.121067,-0.08691 l 0.05532,-0.03564 0.10473,0.0098 c 0.116014,0.01088 0.295905,0.0044 0.308271,-0.01121 0.0041,-0.0052 0.01559,-0.034 0.02555,-0.06412 0.0099,-0.03012 0.02256,-0.05815 0.028,-0.06229 0.0055,-0.0041 0.03595,-0.01768 0.0678,-0.03008 0.03187,-0.0124 0.06258,-0.02633 0.06827,-0.03101 0.0063,-0.0052 0.01034,-0.02874 0.01034,-0.05987 0,-0.04788 0.0024,-0.05471 0.03612,-0.09949 0.01988,-0.02644 0.0478,-0.05892 0.06206,-0.07216 0.03939,-0.03659 0.03565,-0.06491 -0.01641,-0.123883 l -0.04236,-0.04797 0.0053,-0.05103 c 0.007,-0.06829 0.0684,-0.205196 0.117434,-0.26208 0.02909,-0.03373 0.05904,-0.05465 0.141116,-0.09846 0.09927,-0.053 0.150751,-0.09381 0.173637,-0.137631 0.0051,-0.0097 0.01363,-0.04786 0.01895,-0.08462 l 0.0096,-0.06686 -0.02665,-0.05356 -0.02665,-0.05357 0.02838,-0.03263 c 0.01561,-0.01796 0.04515,-0.04085 0.06562,-0.05084 0.03246,-0.01587 0.04572,-0.01759 0.10345,-0.01337 0.03641,0.0026 0.112057,0.01605 0.168093,0.02976 0.05603,0.01371 0.103454,0.02492 0.105376,0.02492 0.002,0 0.04609,-0.03851 0.09815,-0.0856 0.05205,-0.04709 0.105208,-0.091 0.118096,-0.09761 0.03019,-0.01548 0.04822,-0.03627 0.05813,-0.06702 0.0065,-0.02054 0.01459,-0.02625 0.04827,-0.03464 0.04512,-0.01121 0.03587,-0.01425 0.152863,0.0504 0.07763,0.0429 0.118582,0.08656 0.1525,0.162582 0.0234,0.05247 0.02442,0.05329 0.107676,0.08861 0.03857,0.01635 0.127387,0.06996 0.215178,0.129869 0.151354,0.103285 0.177015,0.115381 0.245545,0.115734 0.03026,1.54e-4 0.04561,0.0058 0.07449,0.0276 0.02944,0.0222 0.122011,0.07667 0.18936,0.111454 0.0068,0.0035 0.02382,0.02259 0.03792,0.04241 0.01954,0.02749 0.0324,0.03717 0.05419,0.04066 0.04002,0.0064 0.04407,0.0099 0.08902,0.07601 0.103649,0.152447 0.11488,0.197752 0.06371,0.257012 -0.02217,0.02568 -0.04822,0.04127 -0.119013,0.07124 -0.0981,0.04151 -0.08918,0.04078 -0.212608,0.01781 -0.01863,-0.0034 -0.03722,0.0023 -0.07448,0.02311 -0.02732,0.01525 -0.05078,0.03337 -0.05215,0.04029 -0.0014,0.007 0.01775,0.02969 0.04339,0.05141 0.04068,0.03447 0.05895,0.0428 0.161464,0.07375 0.06356,0.0192 0.144054,0.0483 0.178851,0.06469 0.0348,0.01639 0.06581,0.02977 0.0689,0.02977 0.0032,0 0.01202,-0.01072 0.01984,-0.02382 0.01888,-0.03167 0.01795,-0.08534 -0.0024,-0.138396 -0.01594,-0.04159 -0.01606,-0.04534 -0.003,-0.09711 0.0076,-0.02961 0.0189,-0.05584 0.02529,-0.05827 0.0063,-0.0024 0.02049,0.0038 0.0313,0.01387 0.01081,0.01003 0.02325,0.01611 0.02764,0.01343 0.01067,-0.0065 0.05118,-0.107668 0.05118,-0.127791 0,-0.0088 -0.0044,-0.02545 -0.0097,-0.03705 -0.0079,-0.01714 -0.007,-0.02652 0.0042,-0.0499 0.01397,-0.02905 0.01874,-0.107004 0.0076,-0.123043 -0.0033,-0.0049 -0.03105,-0.02241 -0.06158,-0.03916 -0.03052,-0.01676 -0.05778,-0.03415 -0.06056,-0.03859 -0.0065,-0.01056 0.01139,-0.09642 0.0215,-0.102603 0.02293,-0.01404 0.07244,-0.0041 0.119477,0.02401 0.07178,0.0429 0.103368,0.03788 0.103368,-0.01647 0,-0.05633 -0.04911,-0.08886 -0.302076,-0.200005 -0.110672,-0.04862 -0.125919,-0.05776 -0.140507,-0.08421 -0.019,-0.03448 -0.03015,-0.03855 -0.105852,-0.0387 -0.0517,-1.04e-4 -0.06157,-0.0032 -0.128279,-0.04053 -0.05393,-0.03015 -0.09079,-0.05929 -0.145283,-0.114877 -0.04016,-0.04096 -0.127676,-0.117723 -0.194489,-0.170578 -0.06682,-0.05286 -0.123956,-0.09962 -0.126986,-0.10394 -0.0031,-0.0044 -0.0081,-0.03329 -0.01126,-0.06438 -0.0049,-0.04689 -0.01056,-0.06281 -0.03404,-0.09331 -0.01557,-0.02022 -0.02652,-0.03965 -0.02435,-0.04316 0.0082,-0.01321 0.112078,-0.06033 0.123426,-0.05602 0.0064,0.0025 0.02346,0.02416 0.03764,0.04819 0.01418,0.02402 0.03053,0.04968 0.03628,0.05698 0.01844,0.0234 0.07393,0.05642 0.09481,0.05642 0.01412,0 0.04232,0.02108 0.09353,0.06991 0.08105,0.07729 0.125247,0.10191 0.18342,0.102179 0.02711,1.24e-4 0.07793,0.01501 0.16902,0.0495 0.139961,0.05299 0.212499,0.08877 0.377375,0.186196 l 0.105162,0.06215 0.02101,0.06244 c 0.01156,0.03433 0.03686,0.104437 0.05622,0.155783 0.03309,0.08773 0.03778,0.09529 0.07765,0.125338 0.03316,0.02499 0.04463,0.03984 0.05258,0.06789 0.0152,0.05384 0.05145,0.08356 0.128959,0.105745 0.06926,0.01983 0.07185,0.02289 0.05739,0.06834 -0.0049,0.01504 -0.0016,0.01852 0.02204,0.0236 0.0152,0.0033 0.03989,0.01657 0.05483,0.02952 0.01495,0.01297 0.03254,0.02356 0.0391,0.02356 0.01593,0 0.03718,0.04223 0.03718,0.07396 0,0.01405 0.0079,0.04383 0.01763,0.06614 0.01317,0.03035 0.02309,0.04181 0.03931,0.04543 0.07515,0.01678 0.07106,0.0139 0.07548,0.05285 0.004,0.03451 0.0055,0.03643 0.03011,0.03643 0.02378,0 0.05981,0.02802 0.06067,0.04718 5.12e-4,0.01152 0.02284,0.0063 0.04439,-0.01063 0.01182,-0.0093 0.02537,-0.03045 0.03009,-0.04718 0.008,-0.02838 0.0063,-0.03355 -0.02455,-0.07815 -0.01822,-0.02626 -0.03311,-0.05119 -0.03311,-0.05538 0,-0.0042 0.01055,-0.0077 0.02345,-0.0077 0.0129,0 0.02577,-0.0023 0.02858,-0.0052 0.0029,-0.0029 -0.0078,-0.02191 -0.02366,-0.04245 -0.01585,-0.02054 -0.02747,-0.04134 -0.02587,-0.04618 0.0017,-0.0049 0.02229,-0.0099 0.04597,-0.01129 0.04128,-0.0024 0.04296,-0.0034 0.04072,-0.02462 -0.002,-0.01873 0.0012,-0.02253 0.02045,-0.02472 0.01252,-0.0014 0.02277,-0.0056 0.02277,-0.0091 0,-0.0035 -0.01804,-0.03006 -0.04011,-0.05894 -0.03885,-0.05085 -0.04234,-0.05321 -0.110937,-0.0753 -0.07954,-0.02564 -0.114153,-0.04779 -0.108482,-0.06946 0.0025,-0.0096 -0.02057,-0.0417 -0.06807,-0.09513 -0.06214,-0.06986 -0.0724,-0.08565 -0.07596,-0.116903 -0.0022,-0.01987 -9.57e-4,-0.03612 0.003,-0.03612 0.0039,0 0.02482,0.0174 0.04661,0.03867 0.03917,0.03823 0.03988,0.03852 0.06235,0.02556 0.01551,-0.009 0.02858,-0.01092 0.0411,-0.0063 0.02941,0.01106 0.02912,-0.0034 -0.0016,-0.06671 -0.0158,-0.03266 -0.02605,-0.06406 -0.0228,-0.06978 0.0032,-0.0058 0.02041,-0.02177 0.0381,-0.03569 0.03118,-0.02453 0.03477,-0.02531 0.116386,-0.02531 0.0941,0 0.09434,1.29e-4 0.15138,0.07974 0.02274,0.03175 0.02408,0.03729 0.01615,0.06675 -0.0079,0.02947 -0.0064,0.03551 0.01764,0.07275 0.02742,0.04235 0.03169,0.05925 0.01837,0.07247 -0.0044,0.0044 -0.0053,0.01203 -0.0021,0.01711 0.0087,0.01373 0.06644,0.03571 0.09378,0.03571 0.02106,0 0.02382,0.003 0.02382,0.02523 0,0.01904 -0.0081,0.03243 -0.03311,0.05468 -0.0364,0.0324 -0.0409,0.05004 -0.01796,0.07062 0.01851,0.01661 0.02624,0.01686 0.05556,0.0019 0.02101,-0.01081 0.02633,-0.01014 0.06367,0.0087 0.0402,0.02019 0.04066,0.02087 0.0354,0.05172 -0.0052,0.03023 -0.0042,0.03194 0.03127,0.05252 0.02012,0.01169 0.05643,0.02899 0.08068,0.03848 0.02426,0.0095 0.05594,0.02754 0.0704,0.04013 0.02221,0.01933 0.03651,0.02378 0.09159,0.0286 0.05243,0.0046 0.07178,0.01024 0.09838,0.02871 0.01822,0.01266 0.04504,0.0253 0.05963,0.02808 0.02335,0.0044 0.02955,0.0014 0.05172,-0.02524 0.01913,-0.02299 0.0252,-0.0385 0.0252,-0.06435 0,-0.04252 0.0097,-0.05055 0.06975,-0.05754 0.04516,-0.0053 0.05225,-0.0035 0.120865,0.02983 l 0.0729,0.0354 0.03791,-0.01435 c 0.05217,-0.01975 0.09189,-0.06936 0.105939,-0.132305 0.01038,-0.04643 0.01297,-0.04999 0.05212,-0.07124 0.06322,-0.03432 0.07017,-0.03182 0.07017,0.02533 0,0.05053 7.2e-4,0.05206 0.06838,0.145152 0.01658,0.0228 0.04174,0.07265 0.05591,0.110749 0.02938,0.07899 0.08819,0.2856 0.09479,0.332962 0.01375,0.09887 0.03699,0.303793 0.0413,0.363916 0.0027,0.03834 0.007,0.08718 0.0096,0.108518 l 0.0047,0.03877 -0.07706,0.0494 c -0.0424,0.02717 -0.08061,0.0494 -0.08495,0.0494 -0.0044,0 -0.01412,-0.0057 -0.02177,-0.01249 -0.0133,-0.01194 -0.109713,-0.03631 -0.144803,-0.0366 -0.01147,-9.9e-5 -0.03745,0.02623 -0.08277,0.08392 -0.03631,0.04624 -0.07857,0.09792 -0.0939,0.114852 l -0.02786,0.03079 h -0.2676 -0.267602 l -0.125693,-0.02969 c -0.125064,-0.02953 -0.12587,-0.02987 -0.161455,-0.06767 l -0.03577,-0.03799 -0.118271,0.0023 -0.118271,0.0023 -0.02773,0.03053 c -0.03816,0.04198 -0.09345,0.120391 -0.12124,0.171908 l -0.02316,0.04294 0.03372,0.07602 c 0.01854,0.0418 0.04128,0.0951 0.05051,0.118421 l 0.01681,0.04241 -0.03656,0.07445 c -0.03561,0.07253 -0.06872,0.10726 -0.102344,0.107351 -0.0063,0 -0.0678,-0.02553 -0.136724,-0.05675 l -0.125334,-0.05678 -0.134711,-0.01272 c -0.07409,-0.007 -0.138059,-0.01476 -0.142153,-0.01725 -0.0041,-0.0025 -0.03037,-0.04715 -0.05837,-0.09921 -0.05535,-0.102861 -0.05762,-0.104751 -0.136697,-0.114534 -0.02702,-0.0033 -0.0752,-0.01537 -0.107053,-0.02673 -0.05475,-0.01953 -0.06816,-0.02074 -0.244145,-0.02225 -0.233529,-0.0021 -0.293555,-0.01487 -0.410819,-0.08821 -0.06501,-0.04067 -0.07605,-0.05092 -0.08442,-0.07859 -0.01566,-0.05179 -0.01215,-0.06344 0.04418,-0.146941 0.05229,-0.07752 0.0538,-0.08121 0.0538,-0.132494 v -0.05275 l -0.06222,-0.05682 c -0.03422,-0.03126 -0.0655,-0.06292 -0.06949,-0.07036 -0.0048,-0.0088 -8.4e-5,-0.04196 0.01322,-0.09424 0.01127,-0.04439 0.01844,-0.08274 0.01595,-0.0852 -0.0025,-0.0025 -0.02381,0.0037 -0.04737,0.01377 l -0.04284,0.01826 -0.02984,-0.03321 c -0.02016,-0.02244 -0.04707,-0.03999 -0.08299,-0.05407 -0.02923,-0.01146 -0.05383,-0.02085 -0.05468,-0.02085 -8.34e-4,0 -0.02427,0.0218 -0.05206,0.04843 -0.06978,0.06685 -0.103399,0.07844 -0.209014,0.07206 -0.05511,-0.0033 -0.08979,-0.0019 -0.103703,0.0044 -0.01992,0.0091 -0.05612,0.004 -0.103908,-0.01421 -0.0095,-0.0036 -0.0283,0.0079 -0.05978,0.03608 -0.02532,0.02272 -0.0603,0.04854 -0.07774,0.05735 l -0.03169,0.01602 -0.05751,-0.02425 c -0.05434,-0.0229 -0.06161,-0.02392 -0.131989,-0.0187 -0.04928,0.0036 -0.123492,0.01899 -0.219317,0.04529 -0.07967,0.02186 -0.185408,0.04593 -0.235,0.05349 l -0.09017,0.01376 -0.08363,0.06158 c -0.04601,0.03388 -0.105976,0.08159 -0.133287,0.106065 -0.03823,0.03427 -0.07298,0.05459 -0.151109,0.0884 -0.05581,0.02414 -0.133712,0.05365 -0.173141,0.06558 l -0.07169,0.02168 -0.09997,-0.01362 c -0.05499,-0.0077 -0.160936,-0.01655 -0.23545,-0.0201 l -0.135481,-0.0064 -0.02176,-0.0276 c -0.05107,-0.06479 -0.05262,-0.0658 -0.105131,-0.07054 l -0.05007,-0.0046 -0.05935,0.114724 c -0.05377,0.103922 -0.06063,0.122744 -0.07283,0.199937 -0.0073,0.04688 -0.0171,0.08968 -0.02155,0.09512 -0.0046,0.0055 -0.05133,0.03262 -0.104212,0.0604 -0.05288,0.02776 -0.140554,0.07842 -0.194828,0.112582 -0.115869,0.07291 -0.138007,0.100762 -0.177684,0.223543 -0.01389,0.04299 -0.03888,0.107571 -0.05552,0.143509 -0.01665,0.03594 -0.04153,0.09598 -0.05533,0.133439 l -0.02507,0.0681 0.02679,0.06088 0.02679,0.0609 -0.02681,0.06592 c -0.02297,0.05652 -0.03761,0.07726 -0.102406,0.145207 -0.04156,0.0436 -0.118591,0.116719 -0.171144,0.162485 -0.09333,0.08127 -0.09785,0.08404 -0.194489,0.118886 -0.05441,0.01962 -0.128278,0.04665 -0.164144,0.06006 l -0.06521,0.02439 -0.03975,0.0842 c -0.02352,0.04981 -0.07111,0.127259 -0.116498,0.189615 -0.04219,0.05798 -0.112777,0.163528 -0.15683,0.234559 -0.06738,0.108629 -0.081,0.1364 -0.08585,0.174798 -0.0058,0.04548 -0.006,0.04577 -0.06096,0.08107 -0.03037,0.01949 -0.06495,0.04603 -0.07684,0.05901 -0.02307,0.02517 -0.235566,0.4268 -0.299938,0.566886 -0.0212,0.04613 -0.04971,0.101309 -0.06332,0.122611 -0.02308,0.03607 -0.03179,0.07506 -0.01951,0.08723 0.003,0.003 0.01606,-0.0024 0.02926,-0.01171 0.03165,-0.02234 0.04398,-0.01613 0.05514,0.0278 0.0051,0.02014 0.02609,0.05788 0.04698,0.08456 0.04058,0.0518 0.04043,0.05138 0.05362,0.141963 0.02496,0.171258 -0.08806,0.779483 -0.17557,0.944975 -0.04539,0.08581 -0.124618,0.179953 -0.151464,0.179953 -0.01127,0 -0.0205,0.004 -0.0205,0.0089 0,0.0049 0.04097,0.06549 0.09104,0.134733 0.05008,0.06923 0.09104,0.132077 0.09104,0.139622 0,0.0077 -0.007,0.02351 -0.01561,0.03549 -0.01879,0.02619 -0.03393,0.07733 -0.03399,0.114785 -8.2e-5,0.03824 0.04821,0.119905 0.100958,0.170746 0.03191,0.03076 0.06329,0.05046 0.115329,0.07236 0.07975,0.0336 0.0816,0.03641 0.0816,0.124289 0,0.03937 0.0033,0.04771 0.03104,0.07827 0.0377,0.04155 0.122551,0.104218 0.217768,0.160853 l 0.07088,0.04215 0.09259,0.141143 c 0.08287,0.126318 0.09259,0.144992 0.09259,0.177787 0,0.02819 0.0098,0.05529 0.0426,0.117402 0.03386,0.06416 0.0406,0.08316 0.03288,0.09237 -0.01441,0.0172 0.05395,0.07062 0.134037,0.104721 0.03898,0.0166 0.08962,0.04766 0.127425,0.07813 0.04185,0.03374 0.09193,0.06362 0.150484,0.08977 0.156385,0.06984 0.246796,0.126851 0.308362,0.194409 0.05372,0.05895 0.05785,0.06162 0.16746,0.107305 0.06181,0.02579 0.147656,0.05951 0.190778,0.07498 l 0.07841,0.02813 0.114147,-0.02463 c 0.06278,-0.01354 0.207253,-0.05311 0.321048,-0.08791 l 0.206902,-0.0633 0.219318,6.73e-4 c 0.212175,6.47e-4 0.221875,0.0014 0.297938,0.02279 l 0.07862,0.02212 0.150141,-0.05643 c 0.111854,-0.04204 0.17259,-0.0704 0.238171,-0.111206 0.07785,-0.04843 0.09715,-0.05663 0.166858,-0.07086 0.07053,-0.01438 0.08379,-0.02009 0.125977,-0.05427 0.05705,-0.04623 0.07014,-0.0519 0.214738,-0.09304 0.153775,-0.04377 0.359333,-0.06864 0.475699,-0.05755 0.104348,0.0099 0.146328,0.03038 0.199153,0.09704 0.03565,0.04499 0.04008,0.05552 0.04869,0.115871 0.0087,0.06127 0.01187,0.06855 0.04076,0.09442 0.04949,0.04431 0.06914,0.04411 0.210545,-0.0023 0.260405,-0.08541 0.320376,-0.101061 0.377014,-0.09841 0.04794,0.0022 0.05384,0.0046 0.06337,0.02429 0.01173,0.02435 0.06855,0.0479 0.115512,0.0479 0.01692,0 0.02959,0.0048 0.03246,0.01219 0.0026,0.0068 5.79e-4,0.07984 -0.0046,0.162489 -0.0073,0.120591 -0.01423,0.169674 -0.03472,0.248287 -0.01696,0.06508 -0.02408,0.10881 -0.02119,0.130216 0.003,0.02211 -4.54e-4,0.04153 -0.01089,0.06182 -0.0084,0.01627 -0.0282,0.06638 -0.044,0.111331 -0.02606,0.07397 -0.0968,0.209441 -0.126622,0.24248 -0.01034,0.01146 -0.007,0.02357 0.02632,0.09844 0.02097,0.04696 0.04192,0.08994 0.04654,0.09552 0.0048,0.0056 0.07109,0.04979 0.147697,0.09822 0.113623,0.07185 0.142724,0.09417 0.15793,0.121122 0.01024,0.01817 0.03412,0.05703 0.05302,0.08636 0.051,0.07908 0.07901,0.160322 0.09021,0.261579 0.0065,0.05926 0.01553,0.09826 0.02804,0.122073 0.01238,0.02353 0.02238,0.0665 0.03053,0.131259 0.01563,0.124263 0.01674,0.115755 -0.01672,0.12961 -0.033,0.01366 -0.03177,0.0094 -0.02914,0.102023 0.0016,0.0522 0.0072,0.0829 0.02308,0.122038 0.01974,0.04894 0.02039,0.05501 0.01034,0.09434 -0.03303,0.128838 -0.07305,0.202892 -0.128429,0.237619 -0.03545,0.02223 -0.09584,0.08228 -0.188871,0.187786 -0.03791,0.04299 -0.05679,0.07498 -0.08817,0.1495 -0.02753,0.06534 -0.05662,0.117096 -0.09359,0.166541 -0.0295,0.03946 -0.06897,0.102116 -0.0877,0.139239 -0.03333,0.06609 -0.03404,0.06927 -0.03404,0.152899 0,0.07838 0.0021,0.08988 0.0257,0.139859 0.01414,0.02995 0.03253,0.08078 0.04088,0.112936 0.0089,0.03458 0.0272,0.07579 0.0446,0.100834 l 0.02942,0.04236 -0.01724,0.05067 c -0.01319,0.03873 -0.0261,0.05838 -0.05474,0.08337 l -0.03747,0.03269 0.0042,0.05554 c 0.0038,0.05175 0.0021,0.05973 -0.02689,0.117068 -0.01705,0.03384 -0.03363,0.07586 -0.03682,0.09342 -0.0053,0.02884 -0.0032,0.03471 0.0227,0.06153 0.02951,0.03068 0.02928,0.02977 0.04119,0.165016 0.0017,0.01787 -0.0064,0.02471 -0.06255,0.05333 -0.05681,0.02897 -0.06544,0.03642 -0.07373,0.06363 -0.0052,0.01695 -0.007,0.0331 -0.0043,0.0359 0.0029,0.0029 0.01925,0.0052 0.0365,0.0053 0.02453,1.4e-4 0.08418,-0.02707 0.273933,-0.124974 0.239003,-0.123319 0.320294,-0.157079 0.178902,-0.0743 -0.408733,0.239311 -0.997268,0.515706 -1.49483,0.70202 -0.934232,0.349828 -1.887289,0.554917 -2.93641,0.631881 -0.167542,0.01229 -0.942893,0.02246 -1.12141,0.01469 z M 15.97716,18.547889 c 0.02252,-0.02019 0.01922,-0.03263 -0.02729,-0.102851 -0.02835,-0.04282 -0.04767,-0.06406 -0.0582,-0.06406 -0.02657,0 -0.07316,0.02305 -0.07316,0.03618 0,0.02661 0.03566,0.104954 0.0565,0.12411 0.02633,0.02421 0.07876,0.02759 0.102168,0.0066 z m -0.191808,-0.250345 c 2.4e-5,-0.0077 -0.01299,-0.04434 -0.02893,-0.08178 -0.02721,-0.06397 -0.02897,-0.07356 -0.02897,-0.158796 0,-0.10281 0.0066,-0.08757 -0.093,-0.211954 -0.03555,-0.04435 -0.07394,-0.09883 -0.08528,-0.121004 -0.03981,-0.07787 -0.06643,-0.04363 -0.05909,0.07601 0.0056,0.09004 0.0058,0.08958 -0.05643,0.100709 -0.01822,0.0032 -0.03776,0.0097 -0.04347,0.01439 -0.01896,0.01555 -0.0107,0.05178 0.02495,0.10939 0.01941,0.03138 0.05174,0.08566 0.07183,0.120627 0.02008,0.03498 0.04085,0.06358 0.04613,0.06358 0.0053,0 0.01425,-0.01014 0.01992,-0.02244 l 0.01034,-0.02243 0.02369,0.02859 c 0.02103,0.02538 0.02557,0.02743 0.04057,0.01832 0.0093,-0.0057 0.02028,-0.01024 0.02445,-0.01024 0.01483,0 0.08368,0.101372 0.08368,0.123229 0,0.01194 0.0027,0.02443 0.0061,0.02775 0.0079,0.0079 0.04347,-0.03614 0.04352,-0.05393 z m -0.319474,-0.733505 c 0.01101,-0.02846 0.0036,-0.115391 -0.0235,-0.278951 -0.0185,-0.111265 -0.03047,-0.216282 -0.03404,-0.298741 -0.0031,-0.06994 -0.01069,-0.152317 -0.01699,-0.183069 -0.0063,-0.03076 -0.01146,-0.08509 -0.01146,-0.120771 0,-0.08084 -0.0258,-0.14716 -0.06508,-0.167298 -0.03699,-0.01897 -0.04628,-0.01632 -0.07062,0.02013 -0.0404,0.0605 -0.03693,0.106755 0.0056,0.07366 0.02291,-0.01786 0.02707,-0.01543 0.04974,0.02887 0.01112,0.02173 0.01122,0.0282 8.11e-4,0.05274 -0.01037,0.02442 -0.01024,0.03643 7.74e-4,0.09482 0.007,0.03676 0.01271,0.105326 0.01281,0.15235 9.3e-5,0.04702 0.004,0.109496 0.0085,0.138824 0.0047,0.02932 0.01149,0.103161 0.01533,0.164076 l 0.007,0.110749 -0.02844,0.03136 -0.02843,0.03135 0.0212,0.02812 c 0.01168,0.01546 0.03115,0.04125 0.04325,0.05731 0.02269,0.03004 0.08236,0.07644 0.09915,0.0771 0.0052,1.96e-4 0.01172,-0.0055 0.01449,-0.01261 z m 10.997837,-3.749625 c 0.0326,-0.03681 0.10012,-0.05846 0.139542,-0.04475 0.02554,0.0089 0.02939,0.0081 0.04451,-0.0099 0.0091,-0.01082 0.02027,-0.02602 0.02483,-0.03375 0.01226,-0.02085 0.11179,-0.03929 0.177905,-0.03296 0.03792,0.0036 0.07093,9.58e-4 0.111756,-0.0088 0.03187,-0.0077 0.100803,-0.01662 0.153191,-0.01988 0.08508,-0.0054 0.101444,-0.009 0.153108,-0.03399 0.04208,-0.02039 0.05856,-0.03291 0.06041,-0.04595 0.004,-0.02734 -0.02256,-0.0368 -0.08524,-0.03041 -0.06982,0.0071 -0.07084,-0.0044 -0.0054,-0.06076 0.04506,-0.03884 0.04922,-0.04545 0.0587,-0.09324 0.01156,-0.05824 0.01071,-0.05959 -0.06395,-0.102975 -0.0342,-0.01986 -0.03902,-0.02049 -0.09549,-0.01264 -0.03272,0.0046 -0.06258,0.0055 -0.06639,0.0021 -0.0037,-0.0034 -9.57e-4,-0.01757 0.0062,-0.03142 0.0071,-0.01383 0.01312,-0.03009 0.01312,-0.03611 0,-0.02032 -0.06922,-0.06955 -0.106623,-0.07581 -0.03626,-0.0061 -0.03768,-0.009 -0.02254,-0.04529 0.0031,-0.0073 -0.0085,-0.03135 -0.02868,-0.05948 -0.03239,-0.04518 -0.03533,-0.04718 -0.0702,-0.04718 -0.0421,0 -0.04839,-0.0071 -0.07825,-0.08884 -0.01647,-0.04509 -0.02664,-0.05831 -0.0772,-0.100492 -0.05189,-0.0433 -0.06231,-0.04863 -0.09599,-0.04915 -0.02078,-3.17e-4 -0.04509,-0.0034 -0.05401,-0.0069 -0.01527,-0.006 -0.01488,-0.0071 0.0062,-0.02083 0.02194,-0.01423 0.02209,-0.015 0.0085,-0.03777 -0.01376,-0.02308 -0.01363,-0.02346 0.02004,-0.05966 0.02155,-0.02317 0.03927,-0.05339 0.0487,-0.08305 0.02277,-0.07158 0.01995,-0.07345 -0.117696,-0.07836 -0.113447,-0.004 -0.115023,-0.0044 -0.117774,-0.02363 -0.0021,-0.01467 0.007,-0.02846 0.03672,-0.05549 0.02418,-0.022 0.03649,-0.03884 0.03176,-0.04338 -0.01909,-0.0183 -0.176849,-0.0331 -0.199643,-0.01874 -0.0054,0.0034 -0.01097,0.02447 -0.0124,0.04683 -0.0025,0.03994 -0.0032,0.04086 -0.03897,0.05315 -0.0305,0.01053 -0.04158,0.02003 -0.05613,0.04814 -7.93e-4,0.0016 -0.01464,-0.002 -0.03073,-0.0078 -0.02604,-0.0094 -0.03121,-0.0088 -0.04655,0.005 -0.01298,0.01164 -0.01664,0.02339 -0.01477,0.04744 0.0023,0.03002 0.005,0.03304 0.04552,0.04995 0.02368,0.0098 0.04536,0.02026 0.04816,0.02304 0.0029,0.0029 5.12e-4,0.02017 -0.0051,0.03868 -0.01389,0.04601 -1.48e-4,0.0788 0.02996,0.07143 0.01126,-0.0027 0.03006,-0.0073 0.04179,-0.01024 l 0.02135,-0.0053 -0.0058,0.06671 c -0.0066,0.07593 0.0022,0.08656 0.0291,0.03446 0.0091,-0.01773 0.02051,-0.03466 0.02529,-0.03759 0.01237,-0.0077 0.07211,0.05415 0.07908,0.08176 0.0043,0.01697 -8.3e-5,0.03505 -0.01642,0.0681 -0.01224,0.02475 -0.02039,0.04686 -0.01809,0.04912 0.0023,0.0023 0.04894,-0.0044 0.103634,-0.01485 0.0547,-0.01046 0.101692,-0.0168 0.10442,-0.01407 0.0027,0.0027 -8.87e-4,0.01616 -0.0081,0.02987 -0.0071,0.01375 -0.01302,0.03051 -0.01302,0.03727 0,0.0068 0.02382,0.02914 0.05292,0.04974 0.05175,0.03662 0.05323,0.03872 0.0671,0.09474 0.01778,0.07187 0.01414,0.08455 -0.02076,0.07249 -0.01888,-0.0065 -0.03514,-0.0063 -0.06179,0.0012 -0.02308,0.0064 -0.05436,0.008 -0.08648,0.0042 -0.04897,-0.0057 -0.05032,-0.0053 -0.05028,0.01349 1.15e-4,0.04837 0.0165,0.07956 0.05193,0.09889 0.03004,0.01638 0.03528,0.02325 0.03747,0.0493 0.0023,0.02771 -3.98e-4,0.0321 -0.0324,0.05213 -0.01922,0.01203 -0.05109,0.02733 -0.07083,0.034 -0.04259,0.01439 -0.04507,0.02758 -0.0098,0.05246 0.01967,0.01389 0.04291,0.01973 0.09476,0.0238 0.05478,0.0044 0.07544,0.0098 0.102034,0.02729 0.01835,0.01203 0.03587,0.02188 0.03896,0.02188 0.0031,0 0.01781,-0.0093 0.03273,-0.02051 0.01492,-0.01126 0.02925,-0.02051 0.03181,-0.02051 0.0088,0 0.0049,0.02536 -0.0079,0.04963 -0.01184,0.02273 -0.01567,0.02421 -0.06226,0.02421 h -0.04964 l -0.103254,0.0996 c -0.05679,0.05478 -0.103255,0.104057 -0.103255,0.109497 0,0.0118 0.03399,0.02868 0.04494,0.02229 0.0043,-0.0025 0.01851,-0.01669 0.03169,-0.03159 z m -0.509968,-0.319189 c 0.103766,-0.05518 0.164806,-0.07757 0.230555,-0.08453 l 0.04966,-0.0053 0.009,-0.08204 c 0.0081,-0.07385 0.0073,-0.08675 -0.0069,-0.12914 -0.0088,-0.02591 -0.02499,-0.06031 -0.03605,-0.07646 -0.01105,-0.01615 -0.01795,-0.03278 -0.01533,-0.03698 0.0026,-0.0042 0.01925,-0.0077 0.03695,-0.0077 0.02695,0 0.03573,-0.0047 0.05385,-0.02814 0.03509,-0.04561 0.03066,-0.07394 -0.01891,-0.12078 -0.02313,-0.02188 -0.04885,-0.03975 -0.05716,-0.03974 -0.0084,1.5e-5 -0.04068,0.009 -0.07197,0.01977 -0.05376,0.01866 -0.05907,0.01909 -0.09764,0.0078 -0.02243,-0.0066 -0.0583,-0.01088 -0.07969,-0.0096 l -0.03892,0.0025 -0.0024,0.06359 -0.0024,0.06357 h -0.0776 c -0.108291,0 -0.119652,0.0062 -0.08723,0.04698 0.02356,0.02969 0.02066,0.04641 -0.01241,0.07142 -0.01593,0.01204 -0.02897,0.02695 -0.02897,0.03312 0,0.0063 0.01918,0.0175 0.04345,0.02547 0.07914,0.0259 0.09576,0.04487 0.06413,0.07324 -0.02339,0.02099 -0.02097,0.02708 0.01656,0.04198 0.01822,0.0072 0.03311,0.01768 0.03311,0.02324 0,0.0056 -0.02595,0.0202 -0.05769,0.03255 -0.04519,0.01757 -0.06311,0.02976 -0.08277,0.05624 -0.0298,0.04017 -0.02992,0.04138 -0.0078,0.07677 l 0.01722,0.02763 h 0.07088 c 0.07018,0 0.07171,-4.42e-4 0.156547,-0.04556 z m -3.772582,-1.739937 c 0.01071,-0.0029 0.03344,-0.02607 0.0519,-0.05302 0.02149,-0.03136 0.05499,-0.064 0.09683,-0.09431 0.03518,-0.0255 0.09562,-0.07887 0.134313,-0.118631 0.07029,-0.07223 0.07041,-0.07231 0.153106,-0.09858 0.04552,-0.01446 0.107326,-0.03844 0.13735,-0.05329 0.05696,-0.02821 0.07171,-0.04656 0.141077,-0.175755 0.01741,-0.03242 0.02386,-0.03746 0.053,-0.04133 0.01825,-0.0024 0.0423,-0.01073 0.05342,-0.01846 0.01711,-0.01188 0.04131,-0.01405 0.157531,-0.01405 0.12962,0 0.141208,-0.0013 0.207131,-0.02364 0.114727,-0.03884 0.186414,-0.06935 0.337553,-0.143667 0.07898,-0.03884 0.148984,-0.07061 0.155589,-0.07061 0.0065,0 0.02343,0.0058 0.0374,0.01301 0.03626,0.01858 0.116982,0.0058 0.395865,-0.06239 0.125177,-0.03064 0.24893,-0.06 0.275009,-0.06523 0.03554,-0.0071 0.0514,-0.01505 0.06332,-0.03155 0.0087,-0.01211 0.0349,-0.03295 0.0581,-0.0463 0.04961,-0.02855 0.05013,-0.03156 0.02193,-0.127637 -0.01689,-0.05764 -0.02579,-0.0741 -0.05379,-0.09975 -0.03056,-0.02797 -0.03356,-0.03434 -0.03356,-0.07147 v -0.04077 l 0.04748,-0.0097 c 0.04491,-0.0093 0.05203,-0.0084 0.131884,0.01726 0.09639,0.03089 0.101993,0.02951 0.118502,-0.02891 0.01173,-0.04154 0.01936,-0.04924 0.08472,-0.08563 0.02608,-0.01451 0.04972,-0.03007 0.05252,-0.03458 0.0096,-0.01531 -0.01471,-0.05581 -0.05117,-0.08543 -0.03642,-0.02958 -0.04534,-0.04492 -0.02601,-0.04474 0.02536,2.55e-4 0.155177,-0.04473 0.155177,-0.053768 0,-0.00559 -0.03559,-0.032646 -0.07912,-0.060233 -0.04352,-0.027598 -0.07696,-0.053613 -0.07433,-0.057823 0.0026,-0.00424 0.02514,-0.011844 0.05,-0.016954 0.02489,-0.00517 0.04786,-0.013551 0.0511,-0.018723 0.0032,-0.00528 0.01364,-0.037239 0.02315,-0.07124 l 0.01727,-0.061816 0.06596,-0.00414 c 0.06465,-0.00403 0.108071,-0.018319 0.09918,-0.032594 C 25.280952,9.653517 25.226672,9.64338 25.119198,9.636853 25.011445,9.630333 25.005889,9.629093 24.967961,9.603214 24.888911,9.549301 24.812884,9.524392 24.680045,9.508876 24.567367,9.495708 24.555379,9.495625 24.524701,9.507736 c -0.0279,0.011068 -0.07241,0.013189 -0.276905,0.013189 -0.312368,0 -0.444014,0.015185 -0.74286,0.08568 -0.05192,0.012247 -0.113342,0.020978 -0.147656,0.020978 -0.05351,0 -0.06516,0.00331 -0.130416,0.036928 -0.03941,0.020316 -0.08655,0.049579 -0.104766,0.065043 -0.04249,0.036101 -0.03515,0.050458 0.03774,0.073774 0.04167,0.013323 0.0557,0.022064 0.06431,0.040042 0.01282,0.02676 0.0089,0.034539 -0.05998,0.1185572 -0.03518,0.042928 -0.04925,0.053582 -0.08608,0.06525 -0.03702,0.01172 -0.05029,0.02186 -0.08349,0.06371 -0.03158,0.03984 -0.05335,0.0571 -0.109085,0.08651 -0.06887,0.03634 -0.06966,0.03712 -0.07214,0.07084 -0.0024,0.03255 -0.0012,0.03452 0.02689,0.04371 0.08136,0.02661 -0.02154,0.08174 -0.153114,0.08205 -0.05028,1.19e-4 -0.05614,0.0021 -0.08019,0.02679 -0.02749,0.02825 -0.04674,0.06816 -0.03895,0.08067 0.0025,0.0041 0.03985,0.0076 0.08282,0.0076 0.04297,0 0.07814,0.0031 0.07814,0.0067 0,0.0037 -0.03072,0.02197 -0.06827,0.04066 -0.05744,0.02857 -0.07914,0.03482 -0.136737,0.03931 -0.05574,0.0043 -0.08066,0.0112 -0.134103,0.0368 -0.059,0.02828 -0.06772,0.03554 -0.08624,0.07178 -0.01448,0.02833 -0.02867,0.04361 -0.04774,0.05145 -0.03482,0.01428 -0.131642,0.0968 -0.146885,0.125172 -0.01034,0.01922 -0.01003,0.02353 0.0021,0.03686 0.0077,0.0083 0.01377,0.01859 0.01377,0.02286 0,0.0043 -0.02646,0.03351 -0.05883,0.06498 -0.05053,0.04915 -0.06519,0.0705 -0.104027,0.15155 -0.09198,0.191937 -0.101992,0.22173 -0.101992,0.303468 v 0.07357 l 0.03517,0.01824 c 0.01935,0.01003 0.05381,0.02024 0.07656,0.02272 l 0.04139,0.0046 0.0021,0.07384 c 0.0022,0.07852 0.0121,0.108554 0.0391,0.119404 0.01996,0.0081 0.09999,0.0096 0.126781,0.0025 z m 2.695514,-0.23607 c 0.166389,-0.04632 0.31952,-0.09706 0.335154,-0.111044 0.01464,-0.01311 0.0497,-0.09232 0.0497,-0.11231 0,-0.01478 -0.07312,-0.12369 -0.08646,-0.128759 -0.0057,-0.0021 -0.0381,-0.0086 -0.07211,-0.01419 -0.06116,-0.01024 -0.06217,-0.01003 -0.09427,0.01155 -0.0378,0.02547 -0.05043,0.02609 -0.180938,0.0092 -0.05383,-0.007 -0.09997,-0.01063 -0.10254,-0.0081 -0.0025,0.0025 0.0071,0.01676 0.02165,0.03157 0.01448,0.01481 0.02632,0.02952 0.02632,0.03269 0,0.0032 -0.03083,0.0058 -0.06851,0.0058 -0.04921,0 -0.07379,0.0037 -0.08728,0.01304 -0.02821,0.01959 -0.03918,0.0099 -0.05089,-0.04477 -0.01822,-0.08506 -0.04966,-0.09768 -0.132676,-0.05321 -0.03184,0.01704 -0.05791,0.03549 -0.05791,0.04099 0,0.0088 0.04549,0.02921 0.105528,0.04758 0.02363,0.0072 0.04024,0.03567 0.02796,0.04783 -0.0049,0.0048 -0.0319,0.01282 -0.06018,0.01788 -0.02828,0.005 -0.05266,0.01283 -0.05413,0.01722 -0.0016,0.0044 0.0178,0.02016 0.04286,0.03501 0.0477,0.02829 0.05483,0.04361 0.03341,0.07169 -0.02895,0.03795 -0.01205,0.0515 0.09077,0.07289 0.03186,0.0066 0.084,0.02129 0.115864,0.03258 0.06647,0.02356 0.0574,0.02426 0.198627,-0.01506 z m 1.824879,-1.483949 c 0,-0.0059 -0.01863,-0.036918 -0.04139,-0.068943 -0.02277,-0.032025 -0.04139,-0.062788 -0.04139,-0.068364 0,-0.014275 0.0816,-0.00548 0.144635,0.01564 0.02719,0.00921 0.05099,0.01504 0.05285,0.013189 0.0019,-0.00186 -0.0027,-0.012599 -0.01014,-0.023884 -0.0138,-0.020874 -0.100358,-0.064826 -0.177988,-0.090397 -0.03989,-0.013137 -0.04219,-0.015413 -0.04029,-0.039949 0.0021,-0.025643 9.56e-4,-0.026357 -0.0642,-0.047883 -0.08165,-0.026967 -0.115854,-0.027939 -0.213196,-0.0061 -0.04207,0.00941 -0.09229,0.016954 -0.111642,0.016706 -0.02311,-2.906e-4 -0.03517,0.0031 -0.03517,0.00993 0,0.014471 0.04796,0.058134 0.08276,0.075305 0.01593,0.00786 0.0503,0.030111 0.07639,0.049413 0.02817,0.020843 0.07356,0.043766 0.111727,0.056406 0.03537,0.01172 0.101537,0.043383 0.147052,0.070391 0.08048,0.047717 0.120003,0.060409 0.120003,0.0385 z m 5.685676,16.199478 c 0,-0.0044 0.02435,-0.04589 0.0541,-0.09226 0.02976,-0.04636 0.07302,-0.121807 0.09614,-0.167642 0.04755,-0.09431 0.08945,-0.148167 0.242997,-0.312579 0.05924,-0.06343 0.143635,-0.161462 0.18755,-0.217864 0.04391,-0.05639 0.113964,-0.139163 0.155661,-0.183918 0.0417,-0.04476 0.12969,-0.149126 0.195535,-0.231939 0.112213,-0.14113 0.124158,-0.159688 0.190495,-0.296001 0.03892,-0.07999 0.100306,-0.219267 0.136392,-0.309507 0.06275,-0.156878 0.06726,-0.172708 0.103068,-0.360963 0.04055,-0.213202 0.102137,-0.438676 0.149419,-0.547103 0.01635,-0.0375 0.09405,-0.230614 0.172653,-0.429142 0.07859,-0.198531 0.189485,-0.473561 0.246395,-0.61118 0.05691,-0.137617 0.171177,-0.422747 0.253925,-0.633624 l 0.150449,-0.383411 0.07774,-0.352684 c 0.06657,-0.302028 0.0843,-0.399548 0.123371,-0.678973 0.03863,-0.276328 0.04695,-0.358046 0.05422,-0.533687 0.01149,-0.277458 0.01132,-0.311311 -0.0017,-0.298498 -0.0056,0.0056 -0.07782,0.153047 -0.160475,0.32774 -0.08519,0.180062 -0.15548,0.318661 -0.162304,0.320026 -0.0065,0.0013 -0.03547,-0.02243 -0.06409,-0.05278 l -0.05207,-0.05517 0.0051,-0.07029 0.0051,-0.07028 -0.03494,-0.06283 c -0.01921,-0.03457 -0.06919,-0.101578 -0.111042,-0.148922 -0.06938,-0.07848 -0.07925,-0.08657 -0.111726,-0.09158 -0.01959,-0.0031 -0.04169,-0.0071 -0.04911,-0.0093 -0.01325,-0.0037 -0.08779,-0.206296 -0.147584,-0.401142 l -0.02518,-0.08204 -0.06825,-0.05852 -0.06825,-0.05852 -0.07808,-0.236412 c -0.04295,-0.130026 -0.09414,-0.269135 -0.113775,-0.309131 l -0.03571,-0.07271 -0.06863,-0.03143 c -0.03775,-0.01727 -0.07275,-0.03643 -0.07779,-0.04256 -0.0051,-0.0062 -0.01188,-0.05541 -0.01521,-0.109562 -0.0033,-0.05414 -0.0089,-0.10613 -0.01253,-0.115521 -0.0035,-0.0094 -0.08632,-0.129371 -0.183915,-0.266621 -0.345763,-0.486291 -0.49559,-0.70769 -0.490819,-0.725287 0.0024,-0.0091 0.0047,-0.02294 0.0047,-0.03085 8.2e-5,-0.008 0.0049,-0.01432 0.01047,-0.01428 0.01594,9.8e-5 0.111764,0.152077 0.127927,0.202904 0.01181,0.03718 0.02242,0.05172 0.05954,0.08167 0.0783,0.0632 0.140372,0.08691 0.130062,0.04966 -0.01058,-0.03823 -0.01525,-0.07999 -0.0089,-0.07999 0.02215,0 0.09385,0.06104 0.165938,0.141263 0.115134,0.128138 0.204559,0.253083 0.268201,0.374742 0.05301,0.101351 0.0544,0.103089 0.08891,0.11137 0.03056,0.0073 0.04079,0.01633 0.08011,0.07046 0.05027,0.06918 0.132583,0.260373 0.167526,0.389166 0.01102,0.04062 0.02363,0.08713 0.02799,0.103388 0.0064,0.02395 0.01882,0.03671 0.06522,0.06731 0.04644,0.03063 0.06765,0.05251 0.112215,0.115866 0.03023,0.04296 0.07739,0.117385 0.104822,0.165377 0.02743,0.04798 0.06301,0.107603 0.07906,0.132466 0.06238,0.09668 0.07842,0.153047 0.126566,0.445167 0.01493,0.09064 0.08755,0.359901 0.104292,0.386752 0.0076,0.01209 0.03584,0.0078 0.0517,-0.0081 0.01119,-0.01108 0.01795,-0.03867 0.02567,-0.104599 0.0092,-0.07843 0.01713,-0.105785 0.06404,-0.220276 0.132286,-0.323027 0.166344,-0.424402 0.196867,-0.585972 0.07206,-0.381457 0.07746,-0.432917 0.08318,-0.792782 l 0.0053,-0.32815 -0.04163,-0.35984 -0.04163,-0.359841 -0.05573,-0.09755 c -0.03926,-0.06873 -0.06706,-0.107027 -0.09409,-0.129624 -0.035,-0.02924 -0.04187,-0.04151 -0.07821,-0.139428 -0.02192,-0.05905 -0.04304,-0.107355 -0.04695,-0.107355 -0.009,0 -0.0099,-0.02097 0.01003,0.217907 l 0.01716,0.205601 -0.02108,0.04727 c -0.01223,0.02743 -0.02474,0.04502 -0.02979,0.04193 -0.01181,-0.0072 -0.07892,-0.141632 -0.08599,-0.172251 -0.0032,-0.01354 -0.01117,-0.04378 -0.01784,-0.0672 -0.01209,-0.04237 -0.01235,-0.0426 -0.05138,-0.04769 -0.02158,-0.0029 -0.04552,-0.0077 -0.0532,-0.01073 -0.0077,-0.0032 -0.07939,-0.09378 -0.159315,-0.201511 l -0.145372,-0.195849 v -0.09653 c 0,-0.105164 6.29e-4,-0.106491 0.05025,-0.106491 0.02214,0 0.02736,0.0064 0.06502,0.07999 0.02381,0.04655 0.05761,0.09741 0.08077,0.121631 0.04588,0.04796 0.170848,0.12534 0.213545,0.132208 l 0.02906,0.0047 v -0.08622 c 0,-0.09261 0.0064,-0.108452 0.04215,-0.103203 0.01474,0.0022 0.02334,0.01677 0.04489,0.07616 0.01466,0.04041 0.03055,0.07477 0.03529,0.07633 0.01369,0.0046 0.06531,-0.06844 0.08616,-0.121708 0.01047,-0.02673 0.02139,-0.04861 0.02429,-0.04861 0.0063,0 0.05771,0.182598 0.110372,0.391707 0.146434,0.581488 0.23412,1.133395 0.283161,1.782282 0.01151,0.152296 0.01463,0.295311 0.01482,0.680911 2.99e-4,0.569954 -0.0119,0.788352 -0.07051,1.263374 -0.19435,1.575105 -0.752282,3.062953 -1.64738,4.393104 -0.283043,0.420612 -0.590874,0.812997 -0.923557,1.177233 -0.124053,0.135821 -0.151485,0.163069 -0.151485,0.150458 z M 14.885885,21.469691 c -0.07912,-0.326836 -0.16196,-0.855397 -0.200586,-1.279782 -0.03246,-0.356645 -0.0378,-0.491569 -0.03733,-0.943432 4.62e-4,-0.447242 0.0096,-0.662221 0.04109,-0.959837 0.0066,-0.06316 0.01221,-0.118543 0.01228,-0.123055 7.9e-5,-0.0046 0.0029,-0.0039 0.0062,0.0012 0.0033,0.0053 0.0036,0.06795 6.98e-4,0.139463 -0.0089,0.214536 -0.0077,0.661245 0.0021,0.823251 0.009,0.147633 0.01035,0.155189 0.04982,0.277298 0.03316,0.102561 0.04889,0.137826 0.08596,0.192716 0.04171,0.06179 0.04539,0.07095 0.04539,0.113844 0,0.02566 -0.0096,0.106112 -0.02139,0.178771 l -0.02139,0.132114 0.02186,0.12121 c 0.02187,0.121183 0.02187,0.121231 0.0092,0.23969 -0.0152,0.143032 -0.03023,0.223479 -0.05803,0.31074 l -0.02095,0.0657 0.01681,0.12123 c 0.0092,0.06667 0.0335,0.231977 0.05392,0.367338 0.03965,0.262819 0.04523,0.349609 0.0142,0.221501 z"
       style="fill:#ffffff;stroke-width:0;fill-opacity:1;stroke:#ffffff;stroke-opacity:1;stroke-miterlimit:4;stroke-dasharray:none" />
  </g>
  <g
     transform="translate(39.522545,-33.696616)"
     id="text821"
     style="font-style:normal;font-variant:normal;font-weight:normal;font-stretch:normal;font-size:10.58333302px;line-height:1.25;font-family:'.Al Bayan PUA';-inkscape-font-specification:'.Al Bayan PUA';letter-spacing:0px;word-spacing:0px;fill:#000000;fill-opacity:1;stroke:#ffffff;stroke-width:0.3175;stroke-opacity:1;stroke-miterlimit:4;stroke-dasharray:none"
     aria-label="COVIDmapper">
    <path
       id="path831"
       style="font-style:normal;font-variant:normal;font-weight:normal;font-stretch:normal;font-family:'Arial Black';-inkscape-font-specification:'Arial Black, ';stroke-width:0.3175;stroke:#ffffff;stroke-opacity:1;stroke-miterlimit:4;stroke-dasharray:none"
       d="m -34.205041,41.027446 2.051555,0.620117 q -0.206706,0.862996 -0.651123,1.441772 -0.444418,0.578776 -1.105876,0.873332 -0.656291,0.294555 -1.674316,0.294555 -1.235067,0 -2.020549,-0.356567 -0.780314,-0.361735 -1.348755,-1.266072 -0.56844,-0.904338 -0.56844,-2.315105 0,-1.881022 0.997355,-2.888712 1.002523,-1.012858 2.831868,-1.012858 1.431437,0 2.247925,0.578776 0.821655,0.578776 1.219564,1.777669 l -2.067057,0.45992 q -0.108521,-0.346232 -0.227377,-0.506429 -0.19637,-0.268717 -0.480591,-0.413411 -0.28422,-0.144694 -0.63562,-0.144694 -0.795817,0 -1.219563,0.640788 -0.320394,0.475423 -0.320394,1.493449 0,1.260904 0.382405,1.73116 0.382406,0.465088 1.07487,0.465088 0.671794,0 1.012858,-0.377238 0.346232,-0.377238 0.501261,-1.09554 z" />
    <path
       id="path835"
       style="font-style:normal;font-variant:normal;font-weight:normal;font-stretch:normal;font-family:'Arial Black';-inkscape-font-specification:'Arial Black, ';stroke-width:0.3175;stroke:#ffffff;stroke-opacity:1;stroke-miterlimit:4;stroke-dasharray:none"
       d="m -20.298911,36.547099 h 2.449463 l 1.705322,5.451863 1.679484,-5.451863 h 2.377116 l -2.811198,7.575765 h -2.537313 z" />
    <path
       id="path837"
       style="font-style:normal;font-variant:normal;font-weight:normal;font-stretch:normal;font-family:'Arial Black';-inkscape-font-specification:'Arial Black, ';stroke-width:0.3175;stroke:#ffffff;stroke-opacity:1;stroke-miterlimit:4;stroke-dasharray:none"
       d="m -11.229698,36.547099 h 2.3461097 v 7.575765 h -2.3461097 z" />
    <path
       id="path839"
       style="font-style:normal;font-variant:normal;font-weight:normal;font-stretch:normal;font-family:'Arial Black';-inkscape-font-specification:'Arial Black, ';stroke-width:0.3175;stroke:#ffffff;stroke-opacity:1;stroke-miterlimit:4;stroke-dasharray:none"
       d="m -7.1782665,36.547099 h 3.4778237 q 1.028361,0 1.6588135,0.279053 0.6356201,0.279052 1.04903151,0.800984 0.41341145,0.521932 0.5994466,1.214397 0.18603515,0.692464 0.18603515,1.46761 0,1.214396 -0.27905273,1.88619 -0.27388508,0.666626 -0.76481113,1.121378 -0.4909261,0.449585 -1.0541992,0.599447 -0.7699788,0.206706 -1.3952637,0.206706 h -3.4778237 z m 2.3409423,1.715658 v 4.139282 h 0.5736083 q 0.7338054,0 1.0438639,-0.160197 0.3100586,-0.165365 0.4857585,-0.568441 0.1756999,-0.408244 0.1756999,-1.317749 0,-1.204061 -0.3927409,-1.648478 -0.3927409,-0.444417 -1.3022461,-0.444417 z" />
    <path
       id="path841"
       style="font-style:normal;font-variant:normal;font-weight:normal;font-stretch:normal;font-family:'Arial Black';-inkscape-font-specification:'Arial Black, ';stroke-width:0.3175;stroke:#ffffff;stroke-opacity:1;stroke-miterlimit:4;stroke-dasharray:none"
       d="M 0.89359281,38.634827 H 2.8572972 v 0.800985 q 0.4237467,-0.501262 0.8526611,-0.713135 0.434082,-0.211874 1.0438639,-0.211874 0.6562907,0 1.0386962,0.232544 0.3824056,0.232544 0.6252849,0.692465 0.4960937,-0.537435 0.9043375,-0.728638 0.4082438,-0.196371 1.0076904,-0.196371 0.883667,0 1.3797607,0.5271 0.4960941,0.521932 0.4960941,1.638143 v 3.446818 H 8.0972873 V 40.99644 q 0,-0.372071 -0.144694,-0.552938 -0.2118734,-0.28422 -0.5270996,-0.28422 -0.3720703,0 -0.5994466,0.268717 -0.2273763,0.268717 -0.2273763,0.862996 v 2.831869 H 4.4902724 v -3.023071 q 0,-0.361735 -0.041341,-0.490927 -0.067179,-0.206705 -0.2325439,-0.330729 -0.1653646,-0.129191 -0.3875732,-0.129191 -0.361735,0 -0.594279,0.273885 -0.2325439,0.273885 -0.2325439,0.89917 v 2.800863 H 0.89359281 Z" />
    <path
       id="path843"
       style="font-style:normal;font-variant:normal;font-weight:normal;font-stretch:normal;font-family:'Arial Black';-inkscape-font-specification:'Arial Black, ';stroke-width:0.3175;stroke:#ffffff;stroke-opacity:1;stroke-miterlimit:4;stroke-dasharray:none"
       d="m 13.378618,40.412496 -2.010214,-0.211873 q 0.113689,-0.5271 0.325562,-0.826823 0.217041,-0.304891 0.620117,-0.5271 0.289388,-0.160197 0.795817,-0.248047 0.506429,-0.08785 1.09554,-0.08785 0.945679,0 1.519287,0.108521 0.573609,0.103353 0.956014,0.43925 0.268718,0.232543 0.423747,0.661458 0.155029,0.423747 0.155029,0.81132 v 2.423624 q 0,0.387574 0.04651,0.609782 0.05168,0.217041 0.217041,0.558106 h -1.974039 q -0.118856,-0.211874 -0.15503,-0.320394 -0.03617,-0.113688 -0.07235,-0.3514 -0.413411,0.397909 -0.821655,0.568441 -0.558105,0.227376 -1.297078,0.227376 -0.981853,0 -1.493449,-0.454752 -0.506429,-0.454753 -0.506429,-1.121379 0,-0.625285 0.366902,-1.028361 0.366903,-0.403076 1.353923,-0.599447 1.18339,-0.237711 1.53479,-0.330729 0.3514,-0.09819 0.744141,-0.253214 0,-0.387573 -0.160197,-0.542603 -0.160197,-0.155029 -0.563273,-0.155029 -0.516765,0 -0.775147,0.165365 -0.201538,0.129191 -0.325561,0.485758 z m 1.824178,1.105876 q -0.434082,0.155029 -0.904338,0.273885 -0.640788,0.170532 -0.81132,0.335897 -0.1757,0.170532 -0.1757,0.387573 0,0.248047 0.170532,0.408244 0.1757,0.155029 0.511597,0.155029 0.3514,0 0.651123,-0.170532 0.304891,-0.170533 0.428914,-0.413412 0.129192,-0.248047 0.129192,-0.640788 z" />
    <path
       id="path845"
       style="font-style:normal;font-variant:normal;font-weight:normal;font-stretch:normal;font-family:'Arial Black';-inkscape-font-specification:'Arial Black, ';stroke-width:0.3175;stroke:#ffffff;stroke-opacity:1;stroke-miterlimit:4;stroke-dasharray:none"
       d="m 18.541093,46.210592 v -7.575765 h 1.968872 v 0.81132 q 0.408244,-0.511597 0.749308,-0.692464 0.459921,-0.24288 1.018026,-0.24288 1.100708,0 1.700155,0.842326 0.604614,0.842326 0.604614,2.08256 0,1.369426 -0.656291,2.092896 -0.65629,0.718302 -1.658813,0.718302 -0.485759,0 -0.888835,-0.165364 -0.397908,-0.165365 -0.713135,-0.490926 v 2.619995 z m 2.108399,-4.816244 q 0,0.651123 0.273885,0.966349 0.273885,0.315227 0.692464,0.315227 0.366902,0 0.614949,-0.299724 0.248047,-0.304891 0.248047,-1.028361 0,-0.666626 -0.258382,-0.976684 -0.258382,-0.315226 -0.630452,-0.315226 -0.403077,0 -0.671794,0.315226 -0.268717,0.315226 -0.268717,1.023193 z" />
    <path
       id="path847"
       style="font-style:normal;font-variant:normal;font-weight:normal;font-stretch:normal;font-family:'Arial Black';-inkscape-font-specification:'Arial Black, ';stroke-width:0.3175;stroke:#ffffff;stroke-opacity:1;stroke-miterlimit:4;stroke-dasharray:none"
       d="m 25.610429,46.210592 v -7.575765 h 1.968872 v 0.81132 q 0.408244,-0.511597 0.749308,-0.692464 0.459921,-0.24288 1.018026,-0.24288 1.100708,0 1.700155,0.842326 0.604614,0.842326 0.604614,2.08256 0,1.369426 -0.656291,2.092896 -0.65629,0.718302 -1.658813,0.718302 -0.485759,0 -0.888835,-0.165364 -0.397908,-0.165365 -0.713135,-0.490926 v 2.619995 z m 2.108398,-4.816244 q 0,0.651123 0.273886,0.966349 0.273885,0.315227 0.692464,0.315227 0.366902,0 0.614949,-0.299724 0.248047,-0.304891 0.248047,-1.028361 0,-0.666626 -0.258382,-0.976684 -0.258382,-0.315226 -0.630452,-0.315226 -0.403077,0 -0.671794,0.315226 -0.268718,0.315226 -0.268718,1.023193 z" />
    <path
       id="path849"
       style="font-style:normal;font-variant:normal;font-weight:normal;font-stretch:normal;font-family:'Arial Black';-inkscape-font-specification:'Arial Black, ';stroke-width:0.3175;stroke:#ffffff;stroke-opacity:1;stroke-miterlimit:4;stroke-dasharray:none"
       d="m 38.762081,41.900777 h -4.216797 q 0.05684,0.506429 0.273885,0.754476 0.304891,0.356568 0.795817,0.356568 0.310059,0 0.589112,-0.15503 0.170532,-0.09819 0.366902,-0.346232 l 2.072225,0.191203 q -0.475423,0.826823 -1.147217,1.188558 -0.671793,0.356567 -1.92753,0.356567 -1.090373,0 -1.715658,-0.304891 -0.625285,-0.310058 -1.038696,-0.976684 -0.408244,-0.671794 -0.408244,-1.576131 0,-1.286744 0.821655,-2.082561 0.826823,-0.795817 2.278931,-0.795817 1.178222,0 1.860351,0.356568 0.682129,0.356567 1.038697,1.033528 0.356567,0.676962 0.356567,1.762167 z m -2.139404,-1.00769 q -0.06201,-0.609782 -0.330729,-0.873332 -0.26355,-0.26355 -0.697632,-0.26355 -0.501262,0 -0.800985,0.397909 -0.191203,0.248047 -0.242879,0.738973 z" />
    <path
       id="path851"
       style="font-style:normal;font-variant:normal;font-weight:normal;font-stretch:normal;font-family:'Arial Black';-inkscape-font-specification:'Arial Black, ';stroke-width:0.3175;stroke:#ffffff;stroke-opacity:1;stroke-miterlimit:4;stroke-dasharray:none"
       d="m 39.759436,38.634827 h 1.968872 v 0.89917 q 0.284221,-0.583944 0.583944,-0.800985 0.304891,-0.222209 0.749308,-0.222209 0.465088,0 1.018026,0.289388 l -0.651123,1.498617 q -0.37207,-0.155029 -0.589111,-0.155029 -0.413412,0 -0.640788,0.341064 -0.325562,0.480591 -0.325562,1.79834 v 1.839681 h -2.113566 z" />
  </g>
  <flowRoot
     transform="matrix(0.26458333,0,0,0.26458333,41.06825,-33.415579)"
     style="font-style:normal;font-weight:normal;font-size:40px;line-height:1.25;font-family:sans-serif;letter-spacing:0px;word-spacing:0px;fill:#000000;fill-opacity:1;stroke:none"
     id="flowRoot823"
     xml:space="preserve"><flowRegion
       id="flowRegion825"><rect
         y="-32.396748"
         x="-58.420361"
         height="170.48123"
         width="192.7872"
         id="rect827" /></flowRegion><flowPara
       id="flowPara829"></flowPara></flowRoot></svg>
